<svg width="169" height="17" viewBox="0 0 169 17" fill="none" xmlns="http://www.w3.org/2000/svg">
<path fill-rule="evenodd" clip-rule="evenodd" d="M54.0801 10C55.1846 10 56.0801 9.10457 56.0801 8C56.0801 6.89543 55.1846 6 54.0801 6C52.9755 6 52.0801 6.89543 52.0801 8C52.0801 9.10457 52.9755 10 54.0801 10Z" fill="#F8355E"/>
<path fill-rule="evenodd" clip-rule="evenodd" d="M134.08 10C135.185 10 136.08 9.10457 136.08 8C136.08 6.89543 135.185 6 134.08 6C132.976 6 132.08 6.89543 132.08 8C132.08 9.10457 132.976 10 134.08 10Z" fill="#F8355E"/>
<path d="M3.956 15.686L5.267 6.854L8.809 15.686H10.396L14.099 6.854L15.226 15.686H19.205L16.905 0.345H12.926L9.637 8.533L6.532 0.345H2.599L0 15.686H3.956Z" fill="#30373D"/>
<path d="M21.0459 14.306C22.1499 15.065 23.1159 15.433 23.3689 15.525C24.4959 15.962 25.3929 16.031 26.3819 16.031C28.0379 16.031 29.6019 15.778 30.9129 14.467C32.0169 13.363 32.3619 12.006 32.3619 10.603C32.3619 9.522 32.1779 8.694 31.3729 7.866C30.5679 6.969 29.5789 6.647 28.5899 6.348L27.3709 5.98C26.4279 5.704 26.1519 5.451 26.0369 5.29C25.8989 5.106 25.8299 4.876 25.8299 4.6C25.8299 4.255 25.9679 4.025 26.2209 3.772C26.6119 3.404 27.1409 3.312 27.5319 3.312C28.0609 3.312 28.9579 3.404 30.1539 4.347L31.7409 1.242C30.2689 0.483001 28.5439 0 27.0029 0C25.1399 0 23.8749 0.644 23.0699 1.449C22.4029 2.116 21.6669 3.243 21.6669 5.152C21.6669 5.957 21.7359 7.015 22.5409 7.866C23.1619 8.579 24.1049 8.901 24.7489 9.108L25.7839 9.43C26.7729 9.729 27.3709 9.89 27.7619 10.235C28.1069 10.511 28.1989 10.856 28.1989 11.155C28.1989 11.546 28.0609 11.868 27.8079 12.121C27.5549 12.397 27.0719 12.65 26.2669 12.65C24.8869 12.65 23.5989 11.891 22.7479 11.086L21.0459 14.306Z" fill="#30373D"/>
<path d="M38.8545 0.345H34.8755V15.686H38.8545V9.039L44.0525 15.686H49.2045L42.5575 7.613L48.6525 0.345H43.7305L38.8545 6.67V0.345Z" fill="#30373D"/>
<path d="M60.6582 14.306C61.7622 15.065 62.7282 15.433 62.9812 15.525C64.1082 15.962 65.0052 16.031 65.9942 16.031C67.6502 16.031 69.2142 15.778 70.5252 14.467C71.6292 13.363 71.9742 12.006 71.9742 10.603C71.9742 9.522 71.7902 8.694 70.9852 7.866C70.1802 6.969 69.1912 6.647 68.2022 6.348L66.9832 5.98C66.0402 5.704 65.7642 5.451 65.6492 5.29C65.5112 5.106 65.4422 4.876 65.4422 4.6C65.4422 4.255 65.5802 4.025 65.8332 3.772C66.2242 3.404 66.7532 3.312 67.1442 3.312C67.6732 3.312 68.5702 3.404 69.7662 4.347L71.3532 1.242C69.8812 0.483001 68.1562 0 66.6152 0C64.7522 0 63.4872 0.644 62.6822 1.449C62.0152 2.116 61.2792 3.243 61.2792 5.152C61.2792 5.957 61.3482 7.015 62.1532 7.866C62.7742 8.579 63.7172 8.901 64.3612 9.108L65.3962 9.43C66.3852 9.729 66.9832 9.89 67.3742 10.235C67.7192 10.511 67.8112 10.856 67.8112 11.155C67.8112 11.546 67.6732 11.868 67.4202 12.121C67.1672 12.397 66.6842 12.65 65.8792 12.65C64.4992 12.65 63.2112 11.891 62.3602 11.086L60.6582 14.306Z" fill="#30373D"/>
<path d="M83.5499 3.726V0.345H73.0389V3.726H76.3049V15.686H80.2839V3.726H83.5499Z" fill="#30373D"/>
<path d="M101.552 8.027C101.552 5.98 100.793 3.841 99.137 2.277C97.573 0.782001 95.388 0 93.088 0C90.788 0 88.603 0.782001 87.039 2.277C85.383 3.841 84.624 5.98 84.624 8.027C84.624 10.051 85.383 12.19 87.039 13.754C88.603 15.249 90.788 16.031 93.088 16.031C95.388 16.031 97.573 15.249 99.137 13.754C100.793 12.19 101.552 10.051 101.552 8.027ZM93.088 3.864C94.169 3.864 95.319 4.278 96.17 5.083C96.883 5.796 97.412 6.831 97.412 8.027C97.412 9.2 96.883 10.258 96.17 10.971C95.457 11.684 94.468 12.167 93.088 12.167C91.731 12.167 90.719 11.661 89.983 10.948C89.408 10.396 88.764 9.476 88.764 8.096C88.764 7.015 89.155 5.888 89.983 5.083C90.811 4.255 91.984 3.864 93.088 3.864Z" fill="#30373D"/>
<path d="M104.091 0.345V15.686H108.07V9.798L111.888 15.686H116.833L112.026 9.407C112.739 9.246 113.521 8.924 114.142 8.349C114.901 7.613 115.361 6.463 115.361 5.152C115.361 3.933 114.947 2.599 114.05 1.702C112.923 0.529 111.474 0.345 110.301 0.345H104.091ZM108.07 3.427H108.829C109.703 3.427 110.347 3.634 110.738 4.025C111.083 4.37 111.267 4.853 111.267 5.313C111.267 5.796 111.06 6.302 110.761 6.601C110.278 7.061 109.45 7.222 108.829 7.222H108.07V3.427Z" fill="#30373D"/>
<path d="M127.228 0.345H118.511V15.686H127.228V12.305H122.49V9.66H126.975V6.279H122.49V3.726H127.228V0.345Z" fill="#30373D"/>
<path d="M141.08 0.313997V15.655H145.059V9.767L148.877 15.655H153.822L149.015 9.376C149.728 9.215 150.51 8.893 151.131 8.318C151.89 7.582 152.35 6.432 152.35 5.121C152.35 3.902 151.936 2.568 151.039 1.671C149.912 0.497998 148.463 0.313997 147.29 0.313997H141.08ZM145.059 3.396H145.818C146.692 3.396 147.336 3.603 147.727 3.994C148.072 4.339 148.256 4.822 148.256 5.282C148.256 5.765 148.049 6.271 147.75 6.57C147.267 7.03 146.439 7.191 145.818 7.191H145.059V3.396Z" fill="#30373D"/>
<path d="M155.5 0.313997V9.123C155.5 10.779 155.638 12.688 156.995 14.16C157.938 15.172 159.663 16 162.078 16C164.263 16 165.85 15.402 167.138 14.091C168.794 12.435 168.863 10.71 168.863 9.123V0.313997H164.884V9.054C164.884 9.882 164.907 11.032 163.987 11.837C163.55 12.228 162.86 12.504 162.147 12.504C161.434 12.504 160.721 12.205 160.261 11.768C159.502 11.032 159.479 10.043 159.479 9.399V0.313997H155.5Z" fill="#30373D"/>
</svg>
