<svg width="18" height="18" viewBox="0 0 18 18" fill="none" xmlns="http://www.w3.org/2000/svg">
<path fill-rule="evenodd" clip-rule="evenodd" d="M4.96724 0H13.0325C15.7717 0 18.0001 2.22841 18 4.96735V13.0327C18 15.7716 15.7717 18 13.0325 18H4.96724C2.22831 18 0 15.7717 0 13.0327V4.96735C0 2.22841 2.22831 0 4.96724 0ZM13.0326 16.403C14.8911 16.403 16.4031 14.8911 16.4031 13.0326H16.403V4.96735C16.403 3.10903 14.891 1.59705 13.0325 1.59705H4.96724C3.10892 1.59705 1.59705 3.10903 1.59705 4.96735V13.0326C1.59705 14.8911 3.10892 16.4031 4.96724 16.403H13.0326ZM4.36186 9.00021C4.36186 6.4427 6.44249 4.36207 9 4.36207C11.5575 4.36207 13.6381 6.4427 13.6381 9.00021C13.6381 11.5576 11.5575 13.6381 9 13.6381C6.44249 13.6381 4.36186 11.5576 4.36186 9.00021ZM5.9589 9.00011C5.9589 10.6769 7.32321 12.041 9 12.041C10.6768 12.041 12.0411 10.6769 12.0411 9.00011C12.0411 7.32321 10.6769 5.95901 9 5.95901C7.3231 5.95901 5.9589 7.32321 5.9589 9.00011ZM13.0054 3.35071C13.2227 3.13245 13.525 3.00788 13.8327 3.00788C14.1414 3.00788 14.4438 3.13245 14.661 3.35071C14.8793 3.56791 15.0038 3.87028 15.0038 4.17905C15.0038 4.48674 14.8793 4.78912 14.661 5.00738C14.4427 5.22458 14.1414 5.35021 13.8327 5.35021C13.525 5.35021 13.2226 5.22458 13.0054 5.00738C12.7871 4.78912 12.6615 4.48685 12.6615 4.17905C12.6615 3.87028 12.787 3.56791 13.0054 3.35071Z" fill="#F8355E"/>
</svg>
