<svg width="30" height="30" viewBox="0 0 30 30" fill="none" xmlns="http://www.w3.org/2000/svg">
<path fill-rule="evenodd" clip-rule="evenodd" d="M14.9963 0H15.0037C23.2744 0 30 6.72937 30 15C30 23.2706 23.2744 30 15.0037 30C11.9531 30 9.12375 29.0925 6.75187 27.5212L0.98625 29.3644L2.85562 23.7919C1.0575 21.3225 0 18.2812 0 15C0 6.7275 6.72563 0 14.9963 0ZM20.7881 23.2987C21.9338 23.0513 23.37 22.2038 23.7319 21.1819C24.0938 20.1581 24.0938 19.2862 23.9888 19.1006C23.904 18.9533 23.7035 18.8568 23.4042 18.7127C23.3263 18.6752 23.2417 18.6345 23.1506 18.5887C22.71 18.3694 20.5669 17.31 20.1619 17.1694C19.7644 17.0194 19.3856 17.0719 19.0856 17.4956C19.0286 17.5755 18.9716 17.6556 18.915 17.7352C18.5531 18.2442 18.204 18.7352 17.9137 19.0481C17.6494 19.3294 17.2181 19.365 16.8563 19.215C16.8168 19.1985 16.7716 19.1803 16.7209 19.1598C16.148 18.9284 14.8771 18.4151 13.3387 17.0456C12.0413 15.8906 11.16 14.4525 10.905 14.0212C10.6546 13.5886 10.8706 13.335 11.0702 13.1005C11.0739 13.0962 11.0776 13.0918 11.0812 13.0875C11.2099 12.9283 11.3348 12.7957 11.4603 12.6625C11.5506 12.5666 11.6412 12.4704 11.7337 12.3638C11.7475 12.3479 11.7609 12.3325 11.7739 12.3176C11.9704 12.0916 12.0875 11.957 12.2194 11.6756C12.3694 11.385 12.2625 11.085 12.1556 10.8638C12.0821 10.7088 11.6278 9.60664 11.2379 8.66051C11.071 8.25567 10.9159 7.8794 10.8075 7.61812C10.5169 6.9225 10.2956 6.89625 9.855 6.8775C9.8415 6.87682 9.82786 6.87613 9.81408 6.87544C9.6748 6.86839 9.52141 6.86062 9.3525 6.86062C8.77875 6.86062 8.18062 7.02937 7.81875 7.39875C7.80611 7.41166 7.79292 7.42507 7.77924 7.43898C7.31629 7.90982 6.285 8.95864 6.285 11.0494C6.285 13.1441 7.77132 15.1714 8.04633 15.5465C8.05391 15.5569 8.06057 15.566 8.06625 15.5737C8.0828 15.5955 8.11399 15.6407 8.15938 15.7064C8.7209 16.5196 11.4559 20.4803 15.5344 22.17C18.9806 23.5987 20.0044 23.4656 20.7881 23.2987Z" fill="#30CE68"/>
</svg>
