<svg width="50" height="46" viewBox="0 0 50 46" fill="none" xmlns="http://www.w3.org/2000/svg">
<path fill-rule="evenodd" clip-rule="evenodd" d="M19 0C20.6569 0 22 1.34315 22 3V43C22 44.6569 20.6569 46 19 46H3C1.34315 46 0 44.6569 0 43V3C0 1.34315 1.34315 0 3 0H19ZM36 7.19C35.9945 5.43049 34.5695 4.00549 32.81 4H23V7H29C29.5523 7 30 6.55228 30 6V5.5C30 5.22386 30.2239 5 30.5 5H32.81C34.0195 5 35 5.9805 35 7.19V42.81C35 44.0195 34.0195 45 32.81 45H22.44C22.2197 45.3764 21.9393 45.7141 21.61 46H32.81C34.5695 45.9945 35.9945 44.5695 36 42.81V7.19ZM26.25 5.72H24.25C24.1119 5.72 24 5.60807 24 5.47C24 5.33193 24.1119 5.22 24.25 5.22H26.25C26.3881 5.22 26.5 5.33193 26.5 5.47C26.5 5.60807 26.3881 5.72 26.25 5.72ZM27 5.47C27 5.65225 27.1477 5.8 27.33 5.8C27.4175 5.8 27.5015 5.76523 27.5633 5.70334C27.6252 5.64146 27.66 5.55752 27.66 5.47C27.66 5.28775 27.5123 5.14 27.33 5.14C27.1477 5.14 27 5.28775 27 5.47ZM47 6H37V11H49V41H37V43C36.9935 44.1521 36.4906 45.2454 35.62 46H47C48.6569 46 50 44.6569 50 43V9C50 7.34315 48.6569 6 47 6ZM38.25 8.75H42.75C42.8881 8.75 43 8.63807 43 8.5C43 8.36193 42.8881 8.25 42.75 8.25H38.25C38.1119 8.25 38 8.36193 38 8.5C38 8.63807 38.1119 8.75 38.25 8.75ZM40.5 45.25C39.5335 45.25 38.75 44.4665 38.75 43.5C38.75 42.5335 39.5335 41.75 40.5 41.75C41.4665 41.75 42.25 42.5335 42.25 43.5C42.25 44.4665 41.4665 45.25 40.5 45.25ZM13.33 1.15C13.5123 1.15 13.66 1.29775 13.66 1.48C13.66 1.66225 13.5123 1.81 13.33 1.81C13.1477 1.81 13 1.66225 13 1.48C13 1.29775 13.1477 1.15 13.33 1.15ZM12.25 1.23H10.25C10.1119 1.23 10 1.34193 10 1.48C10 1.61807 10.1119 1.73 10.25 1.73H12.25C12.3881 1.73 12.5 1.61807 12.5 1.48C12.5 1.34193 12.3881 1.23 12.25 1.23ZM21 43C21 44.1046 20.1046 45 19 45H3C1.89543 45 1 44.1046 1 43V3C1 1.89543 1.89543 1 3 1H5.5C5.77614 1 6 1.22386 6 1.5V2C6 2.55228 6.44772 3 7 3H15C15.5523 3 16 2.55228 16 2V1.5C16 1.22386 16.2239 1 16.5 1H19C20.1046 1 21 1.89543 21 3V43ZM39.38 43.4967C39.3819 42.8794 39.8827 42.38 40.5 42.38C41.1202 42.3855 41.62 42.8898 41.62 43.51C41.6145 44.1272 41.1106 44.6236 40.4934 44.62C39.8762 44.6163 39.3782 44.1139 39.38 43.4967Z" fill="#30373D"/>
</svg>
