<svg width="22" height="41" viewBox="0 0 22 41" fill="none" xmlns="http://www.w3.org/2000/svg">
<path fill-rule="evenodd" clip-rule="evenodd" d="M18.301 0H17.2632C17.2632 1.19177 16.297 2.15789 15.1053 2.15789H6.47369C5.28191 2.15789 4.31579 1.19177 4.31579 0H3.27795C2.41024 0.00512013 1.57961 0.33485 0.966043 0.917741C0.352473 1.50063 0.00538961 2.28973 0 3.11405V37.8859C0.00538961 38.7103 0.352473 39.4994 0.966043 40.0823C1.57961 40.6651 2.41024 40.9949 3.27795 41H18.301C19.1687 40.9949 19.9993 40.6651 20.6129 40.0823C21.2265 39.4994 21.5736 38.7103 21.5789 37.8859V3.11405C21.5736 2.28973 21.2265 1.50063 20.6129 0.917741C19.9993 0.33485 19.1687 0.00512013 18.301 0ZM19.4211 9.17105L2.15789 16.7237V22.1184L19.4211 14.5658V9.17105ZM19.4211 18.8816L2.15789 26.4342V28.5921L19.4211 21.0395V18.8816Z" fill="#B9EEFF"/>
</svg>
