<svg width="30" height="34" viewBox="0 0 30 34" fill="none" xmlns="http://www.w3.org/2000/svg">
<path d="M12.8635 8.5C12.8635 3.72189 10.5935 0 6.49852 0C2.27003 0 0 3.52071 0 8.4497C0 13.5296 2.1365 17.2012 6.58754 17.2012C10.727 17.2012 12.8635 13.1775 12.8635 8.5ZM7.65579 8.4497C7.65579 9.75739 7.65579 12.3225 6.45401 12.3225C5.25223 12.3225 5.20772 10.0089 5.20772 8.65089C5.20772 7.34319 5.25223 4.92899 6.45401 4.92899C7.56677 4.92899 7.65579 7.14201 7.65579 8.4497ZM23.5015 0.201181H19.4955L6.58754 33.7485H10.6825L23.5015 0.201181ZM30 25.2988C30 20.5207 27.73 16.7988 23.635 16.7988C19.4065 16.7988 17.1365 20.3195 17.1365 25.2485C17.1365 30.3284 19.273 34 23.724 34C27.8635 34 30 29.9763 30 25.2988ZM24.7923 25.2485C24.7923 26.5562 24.7923 29.1213 23.5905 29.1213C22.3887 29.1213 22.3442 26.8077 22.3442 25.4497C22.3442 24.142 22.3887 21.7278 23.5905 21.7278C24.7033 21.7278 24.7923 23.9408 24.7923 25.2485Z" fill="#FFD47A"/>
</svg>
