<svg width="28" height="41" viewBox="0 0 28 41" fill="none" xmlns="http://www.w3.org/2000/svg">
<path fill-rule="evenodd" clip-rule="evenodd" d="M2.625 0H16.625C17.3212 0 17.9889 0.280945 18.4811 0.781067C18.9734 1.28113 19.25 1.95941 19.25 2.66669H12.25C11.3068 2.71014 10.4164 3.1217 9.7644 3.81549C9.11237 4.50928 8.74902 5.43188 8.75 6.39111V38.0533C8.75153 38.5956 8.87073 39.1308 9.09912 39.6209C9.32751 40.111 9.65942 40.5439 10.0712 40.8889H2.625C1.92883 40.8889 1.26111 40.6079 0.76886 40.1078C0.27655 39.6077 0 38.9294 0 38.2222V2.66669C0 1.95941 0.27655 1.28113 0.76886 0.781067C1.26111 0.280945 1.92883 0 2.625 0ZM7.29834 7.41418C7.6676 7.03912 7.875 6.53046 7.875 6V2.88892C7.875 2.35846 7.6676 1.84973 7.29834 1.47467C6.92914 1.09961 6.42841 0.888916 5.90625 0.888916H2.84375C2.32159 0.888916 1.82086 1.09961 1.45166 1.47467C1.0824 1.84973 0.875 2.35846 0.875 2.88892V6C0.875 6.53046 1.0824 7.03912 1.45166 7.41418C1.82086 7.78931 2.32159 8 2.84375 8H5.90625C6.42841 8 6.92914 7.78931 7.29834 7.41418ZM12.4163 3.55554H25.2087C25.9476 3.56018 26.6549 3.86047 27.1774 4.39124C27.6999 4.922 27.9954 5.6405 28 6.39111V38.0533C27.9954 38.8039 27.6999 39.5225 27.1774 40.0532C26.6549 40.584 25.9476 40.8842 25.2087 40.8889H12.4163C11.6774 40.8842 10.9701 40.584 10.4476 40.0532C9.92517 39.5225 9.62958 38.8039 9.625 38.0533V6.39111C9.62958 5.6405 9.92517 4.922 10.4476 4.39124C10.9701 3.86047 11.6774 3.56018 12.4163 3.55554ZM17.3502 10.3209C17.4491 10.0782 17.5 9.81818 17.5 9.55554V6.44446C17.5 6.18176 17.4491 5.92169 17.3502 5.67908C17.2512 5.4364 17.1062 5.21594 16.9233 5.03021C16.7405 4.84448 16.5235 4.6972 16.2847 4.59668C16.0458 4.49615 15.7898 4.44446 15.5312 4.44446H12.4688C11.9466 4.44446 11.4459 4.65515 11.0767 5.03021C10.7074 5.40527 10.5 5.914 10.5 6.44446V9.55554C10.5 10.086 10.7074 10.5947 11.0767 10.9697C11.4459 11.3448 11.9466 11.5555 12.4688 11.5555H15.5312C15.7898 11.5555 16.0458 11.5038 16.2847 11.4033C16.5235 11.3028 16.7405 11.1555 16.9233 10.9697C17.1062 10.7841 17.2512 10.5635 17.3502 10.3209Z" fill="#D0AE9B"/>
</svg>
