<svg width="24" height="24" viewBox="0 0 24 24" fill="none" xmlns="http://www.w3.org/2000/svg">
<path fill-rule="evenodd" clip-rule="evenodd" d="M0.849503 19.2414H1.84404C1.1603 20.4621 1.32605 22.0345 2.36203 23.069C2.9629 23.669 3.77096 24 4.64119 24C5.51141 24 6.29875 23.669 6.92034 23.069C7.52121 22.469 7.85272 21.6621 7.85272 20.7931C7.85272 20.2345 7.70769 19.7172 7.43833 19.2414H11.4372C10.7535 20.4621 10.9192 22.0345 11.9552 23.069C12.5561 23.669 13.3641 24 14.2344 24C15.1046 24 15.8919 23.669 16.5135 23.069C17.1144 22.469 17.4459 21.6621 17.4459 20.7931C17.4459 20.2345 17.3009 19.7172 17.0315 19.2414H18.1089C18.5855 19.2414 18.9584 18.869 18.9584 18.3931C18.9584 17.9172 18.5855 17.5448 18.1089 17.5448H1.69901V15.8897H20.3466C20.7196 15.8897 21.0511 15.6414 21.1547 15.269L23.9726 4.98621C24.0347 4.73793 23.9933 4.46897 23.8275 4.26207C23.6618 4.05517 23.4131 3.93103 23.1645 3.93103H1.69901V0.848276C1.69901 0.372414 1.32605 0 0.849503 0C0.372953 0 0 0.372414 0 0.848276V4.75862V15.0414V18.3724C0 18.869 0.372953 19.2414 0.849503 19.2414ZM13.1362 19.7172C13.4263 19.4276 13.7992 19.2621 14.2136 19.2621C14.628 19.2621 15.001 19.4276 15.2911 19.7172C15.5811 20.0069 15.7469 20.3793 15.7469 20.7931C15.7469 21.2069 15.5811 21.5793 15.2911 21.869C14.7109 22.4483 13.7164 22.4483 13.1362 21.869C12.5354 21.269 12.5354 20.3172 13.1362 19.7172ZM4.64119 19.2621C4.2268 19.2621 3.85384 19.4276 3.56377 19.7172C2.9629 20.3172 2.9629 21.269 3.56377 21.869C4.14392 22.4483 5.13846 22.4483 5.71861 21.869C6.00868 21.5793 6.17444 21.2069 6.17444 20.7931C6.17444 20.3793 6.00868 20.0069 5.71861 19.7172C5.42853 19.4276 5.05558 19.2621 4.64119 19.2621Z" fill="#6344B6"/>
</svg>
