<svg width="24" height="24" viewBox="0 0 24 24" fill="none" xmlns="http://www.w3.org/2000/svg">
<path opacity="0.3" fill-rule="evenodd" clip-rule="evenodd" d="M1.94869 19.1795H0.964073C0.492278 19.1795 0.123047 18.8102 0.123047 18.3179V15.0154V4.82049V0.943565C0.123047 0.47177 0.492278 0.102539 0.964073 0.102539C1.43587 0.102539 1.8051 0.47177 1.8051 0.943565V3.99997H23.0564C23.3025 3.99997 23.5487 4.12305 23.7128 4.32818C23.8769 4.53331 23.9179 4.79997 23.8564 5.04613L21.0666 15.241C20.9641 15.6102 20.6359 15.8564 20.2666 15.8564H1.8051V17.4974H18.0513C18.523 17.4974 18.8923 17.8666 18.8923 18.3384C18.8923 18.8102 18.523 19.1795 18.0513 19.1795H16.9846C17.2513 19.6513 17.3948 20.1641 17.3948 20.7179C17.3948 21.5795 17.0666 22.3795 16.4718 22.9743C15.8564 23.5692 15.0769 23.8974 14.2154 23.8974C13.3538 23.8974 12.5538 23.5692 11.9589 22.9743C10.9333 21.9487 10.7692 20.3897 11.4461 19.1795H7.48715C7.75382 19.6513 7.89741 20.1641 7.89741 20.7179C7.89741 21.5795 7.5692 22.3795 6.97433 22.9743C6.35894 23.5692 5.57946 23.8974 4.71792 23.8974C3.85638 23.8974 3.05638 23.5692 2.46151 22.9743C1.43587 21.9487 1.27176 20.3897 1.94869 19.1795ZM14.1948 19.2C13.7846 19.2 13.4154 19.3641 13.1282 19.6513C12.5333 20.2461 12.5333 21.1897 13.1282 21.7846C13.7025 22.3589 14.6871 22.3589 15.2615 21.7846C15.5487 21.4974 15.7128 21.1282 15.7128 20.7179C15.7128 20.3077 15.5487 19.9384 15.2615 19.6513C14.9743 19.3641 14.6051 19.2 14.1948 19.2ZM3.65125 19.6513C3.93843 19.3641 4.30766 19.2 4.71792 19.2C5.12818 19.2 5.49741 19.3641 5.78458 19.6513C6.07176 19.9384 6.23587 20.3077 6.23587 20.7179C6.23587 21.1282 6.07176 21.4974 5.78458 21.7846C5.21023 22.3589 4.22561 22.3589 3.65125 21.7846C3.05638 21.1897 3.05638 20.2461 3.65125 19.6513ZM21.9487 5.66151H1.8051V14.1948H19.6102L21.9487 5.66151Z" fill="white"/>
</svg>
