<svg width="38" height="60" viewBox="0 0 38 60" fill="none" xmlns="http://www.w3.org/2000/svg">
<path fill-rule="evenodd" clip-rule="evenodd" d="M33.9966 31.1643C35.0966 32.3222 35.9271 33.1963 36.1371 33.3605C37.689 34.558 37.7257 36.5621 37.579 37.7841C37.5179 38.2607 37.3591 38.7128 37.188 39.165C36.2715 41.5234 34.7318 55.2587 34.3285 58.9857C34.2674 59.5112 33.8275 59.9145 33.2898 59.9145H21.9741C21.3876 59.9145 20.9232 59.4379 20.9232 58.8635V57.776C17.4527 54.1466 16.1941 48.8921 16.1941 48.8921L15.0699 39.2261C12.5525 30.5132 15.5953 30.2566 15.5953 30.2566C15.7053 30.2444 15.803 30.2444 15.913 30.2444H15.913C19.9334 30.2444 20.6422 38.1874 20.6422 38.1874C20.6422 38.1874 22.0963 41.169 23.3916 42.1222V34.3992V7.50306C22.7562 7.62525 22.0719 7.58859 21.3631 7.31976C20.6177 7.0387 19.9823 6.50102 19.5546 5.8167C18.9558 4.86354 18.858 3.97149 19.0047 3.15275H7.60346C7.7501 3.98371 7.65234 4.9002 7.02912 5.85336C6.5892 6.51324 5.96599 7.05092 5.22057 7.33198C4.52403 7.60081 3.83971 7.63747 3.2165 7.51528V35.0957C3.76639 34.9613 4.35295 34.9369 4.97617 35.0835C6.47923 35.4257 7.65234 36.7088 7.84786 38.2485C7.90896 38.7373 7.8723 39.2139 7.76232 39.666H10.2063H11.4283C11.4833 39.7149 11.5291 39.7546 11.5749 39.7943C11.6208 39.834 11.6666 39.8737 11.7216 39.9226L12.0637 42.831H9.87637H3.75417C1.70122 42.831 0.0393066 41.169 0.0393066 39.1161V3.71487C0.0393066 1.66191 1.70122 0 3.75417 0H22.8418C24.8947 0 26.5566 1.66191 26.5566 3.71487V23.9389C27.8505 24.695 31.5762 28.6166 33.9966 31.1643ZM11.0495 9.59267C11.0495 10.8269 12.0515 11.8411 13.298 11.8411C14.5444 11.8411 15.5464 10.8269 15.5464 9.59267C15.5464 8.35845 14.5444 7.3442 13.298 7.3442C12.0637 7.3442 11.0495 8.35845 11.0495 9.59267ZM21.4487 21.4338C21.4487 16.9369 17.7949 13.2831 13.298 13.2831C8.7888 13.2831 5.14725 16.9369 5.14725 21.4338C5.14725 25.4175 8.00672 28.7291 11.7827 29.4379C11.8438 29.3279 11.9171 29.2179 11.9904 29.108L11.9904 29.1079C13.2002 27.3483 14.8377 27.0794 15.3143 27.0428C15.4853 27.0306 15.7053 27.0183 15.913 27.0183C16.9029 27.0183 17.7949 27.2383 18.5892 27.6293C20.3367 26.1263 21.4487 23.9145 21.4487 21.4338ZM10.4996 23.2057C10.5363 23.9022 10.7562 24.4521 11.1839 24.831C11.636 25.2464 12.2104 25.4908 12.8825 25.5642V26.4684C12.8825 26.5906 12.9802 26.6884 13.1024 26.6884H13.909C14.0312 26.6884 14.1289 26.5906 14.1289 26.4684V25.5397C14.6788 25.442 15.1187 25.222 15.4609 24.8921C15.8642 24.501 16.0719 23.9878 16.0719 23.3401C16.0719 22.668 15.8764 22.1426 15.4731 21.7882C15.0699 21.4216 14.4466 21.0672 13.5912 20.7006C13.2246 20.5418 12.968 20.3829 12.8336 20.224C12.6992 20.0652 12.6259 19.8574 12.6259 19.6008C12.6259 19.3442 12.687 19.1487 12.8092 18.9776C12.9314 18.8187 13.1269 18.7332 13.3957 18.7332C13.6523 18.7332 13.8601 18.831 14.0189 19.0265C14.1411 19.1853 14.2145 19.4053 14.2389 19.6986C14.2511 19.833 14.3733 19.9308 14.4955 19.9185L15.8153 19.8941C15.9619 19.8941 16.0841 19.7719 16.0719 19.6253C16.0352 19.0509 15.8519 18.5621 15.5098 18.1711C15.1554 17.7678 14.691 17.499 14.1167 17.389V16.3992C14.1167 16.277 14.0189 16.1792 13.8967 16.1792H13.0902C12.968 16.1792 12.8703 16.277 12.8703 16.3992V17.3646C12.2593 17.4501 11.7582 17.6823 11.3794 18.0489C10.964 18.4521 10.744 18.9654 10.744 19.5886C10.744 20.2729 10.9395 20.7984 11.3428 21.1528C11.7338 21.5071 12.3692 21.8615 13.2369 22.2037C13.5912 22.3625 13.8479 22.5214 13.9823 22.6802C14.1167 22.8391 14.19 23.0713 14.19 23.3523C14.19 23.609 14.1167 23.8045 13.9823 23.9633C13.8479 24.1222 13.6401 24.1955 13.3835 24.1955C13.0658 24.1955 12.8092 24.0978 12.6136 23.89C12.4548 23.7312 12.357 23.4745 12.3204 23.1324C12.3081 22.998 12.1859 22.9002 12.0637 22.9002L10.744 22.9246C10.6096 22.9369 10.4996 23.0591 10.4996 23.2057Z" fill="url(#paint0_linear)"/>
<defs>
<linearGradient id="paint0_linear" x1="18.8372" y1="-29.9572" x2="-35.1121" y2="3.89537" gradientUnits="userSpaceOnUse">
<stop stop-color="#6EC2FA"/>
<stop offset="1" stop-color="#3C93F3"/>
</linearGradient>
</defs>
</svg>
