<svg width="50" height="50" viewBox="0 0 50 50" fill="none" xmlns="http://www.w3.org/2000/svg">
<path fill-rule="evenodd" clip-rule="evenodd" d="M46.6667 0C48.505 0 50 1.495 50 3.33333C50 4.8825 48.9333 6.17583 47.5 6.54833V9.16667C47.5 8.70583 47.1267 8.33333 46.6667 8.33333H45C44.54 8.33333 44.1667 8.70583 44.1667 9.16667C44.1667 9.6275 44.54 10 45 10H46.6667C47.1267 10 47.5 9.6275 47.5 9.16667V47.0117L45 44.5117L40 49.5117L35 44.5117L30 49.5117L25 44.5117L20 49.5117L15 44.5117L10 49.5117L5 44.5117L2.5 47.0117V9.16667C2.5 9.6275 2.87333 10 3.33333 10H5C5.46 10 5.83333 9.6275 5.83333 9.16667C5.83333 8.70583 5.46 8.33333 5 8.33333H3.33333C2.87333 8.33333 2.5 8.70583 2.5 9.16667V6.54833C1.06667 6.17583 0 4.8825 0 3.33333C0 1.495 1.495 0 3.33333 0H46.6667ZM26.6667 28.3333C26.6667 27.8725 26.2933 27.5 25.8333 27.5H24.1667C23.7067 27.5 23.3333 27.8725 23.3333 28.3333C23.3333 28.7942 23.7067 29.1667 24.1667 29.1667H25.8333C26.2933 29.1667 26.6667 28.7942 26.6667 28.3333ZM24.1667 22.5C24.1667 22.2742 24.2583 22.0658 24.4083 21.9083C24.725 21.6 25.2833 21.6 25.5917 21.9083C25.7417 22.0658 25.8333 22.2742 25.8333 22.5C25.8333 22.725 25.7417 22.9333 25.5917 23.0917C25.4333 23.2417 25.2167 23.3333 25 23.3333C24.7833 23.3333 24.5667 23.2417 24.4083 23.0917C24.2583 22.9333 24.1667 22.725 24.1667 22.5ZM23.3333 16.6667C23.3333 17.1275 23.7067 17.5 24.1667 17.5H36.6667C37.1267 17.5 37.5 17.1275 37.5 16.6667C37.5 16.2058 37.1267 15.8333 36.6667 15.8333H24.1667C23.7067 15.8333 23.3333 16.2058 23.3333 16.6667ZM25.705 9.16667C25.705 8.70583 26.0783 8.33333 26.5383 8.33333H29.615C30.075 8.33333 30.4483 8.70583 30.4483 9.16667C30.4483 9.6275 30.075 10 29.615 10H26.5383C26.0783 10 25.705 9.6275 25.705 9.16667ZM32.6925 8.33333C32.2325 8.33333 31.8592 8.70583 31.8592 9.16667C31.8592 9.6275 32.2325 10 32.6925 10H35.7692C36.2292 10 36.6025 9.6275 36.6025 9.16667C36.6025 8.70583 36.2292 8.33333 35.7692 8.33333H32.6925ZM7.24333 9.16667C7.24333 8.70583 7.61667 8.33333 8.07667 8.33333H11.1533C11.6133 8.33333 11.9867 8.70583 11.9867 9.16667C11.9867 9.6275 11.6133 10 11.1533 10H8.07667C7.61667 10 7.24333 9.6275 7.24333 9.16667ZM15.8333 21.6667C15.8333 22.1275 16.2067 22.5 16.6667 22.5C17.1267 22.5 17.5 22.1275 17.5 21.6667C17.5 19.6542 16.0658 17.9717 14.1667 17.5842V16.6667C14.1667 16.2058 13.7933 15.8333 13.3333 15.8333C12.8733 15.8333 12.5 16.2058 12.5 16.6667V17.5867C11.5917 17.7717 10.7625 18.2542 10.1517 18.9767C9.6425 19.5783 9.40667 20.3492 9.49 21.1458C9.57417 21.9608 9.995 22.7183 10.6425 23.2217L12.5 24.6667V29.1983C11.5325 28.8533 10.8333 27.9367 10.8333 26.8517C10.8333 26.3908 10.46 26.0183 10 26.0183C9.54 26.0183 9.16667 26.3908 9.16667 26.8517C9.16667 28.8642 10.6008 30.5467 12.5 30.9342V31.6658C12.5 32.1267 12.8733 32.4992 13.3333 32.4992C13.7933 32.4992 14.1667 32.1267 14.1667 31.6658V30.9308C15.0758 30.7458 15.9042 30.2633 16.5158 29.5408C17.025 28.9383 17.26 28.1675 17.1767 27.37C17.0917 26.5558 16.6717 25.8 16.0242 25.2967L14.1667 23.8517V19.32C15.1342 19.665 15.8333 20.5817 15.8333 21.6667ZM17.3083 10H14.2317C13.7717 10 13.3983 9.6275 13.3983 9.16667C13.3983 8.70583 13.7717 8.33333 14.2317 8.33333H17.3083C17.7683 8.33333 18.1417 8.70583 18.1417 9.16667C18.1417 9.6275 17.7683 10 17.3083 10ZM20.3842 8.33333C19.9242 8.33333 19.5508 8.70583 19.5508 9.16667C19.5508 9.6275 19.9242 10 20.3842 10H23.4608C23.9208 10 24.2942 9.6275 24.2942 9.16667C24.2942 8.70583 23.9208 8.33333 23.4608 8.33333H20.3842ZM36.6667 35H24.1667C23.7067 35 23.3333 34.6275 23.3333 34.1667C23.3333 33.7058 23.7067 33.3333 24.1667 33.3333H36.6667C37.1267 33.3333 37.5 33.7058 37.5 34.1667C37.5 34.6275 37.1267 35 36.6667 35ZM28.575 27.7417C28.425 27.8992 28.3333 28.1167 28.3333 28.3333C28.3333 28.55 28.425 28.7667 28.575 28.925C28.7333 29.075 28.95 29.1667 29.1667 29.1667C29.3833 29.1667 29.6 29.075 29.7583 28.925C29.9083 28.7667 30 28.5583 30 28.3333C30 28.1075 29.9083 27.8917 29.7583 27.7417C29.45 27.4333 28.8917 27.4333 28.575 27.7417ZM41.425 34.7583C41.2667 34.9083 41.05 35 40.8333 35C40.6167 35 40.4 34.9083 40.2417 34.7583C40.0917 34.6 40 34.3833 40 34.1667C40 33.9408 40.0917 33.7325 40.2417 33.575C40.5583 33.2667 41.1083 33.2667 41.425 33.575C41.575 33.7325 41.6667 33.9408 41.6667 34.1667C41.6667 34.3833 41.575 34.6 41.425 34.7583ZM32.5 29.1667H40.8333C41.2933 29.1667 41.6667 28.7942 41.6667 28.3333C41.6667 27.8725 41.2933 27.5 40.8333 27.5H32.5C32.04 27.5 31.6667 27.8725 31.6667 28.3333C31.6667 28.7942 32.04 29.1667 32.5 29.1667ZM40.8333 23.3333H28.3333C27.8733 23.3333 27.5 22.9608 27.5 22.5C27.5 22.0392 27.8733 21.6667 28.3333 21.6667H40.8333C41.2933 21.6667 41.6667 22.0392 41.6667 22.5C41.6667 22.9608 41.2933 23.3333 40.8333 23.3333ZM40.8333 17.5C41.0583 17.5 41.2667 17.4083 41.425 17.2583C41.575 17.1 41.6667 16.8833 41.6667 16.6667C41.6667 16.45 41.575 16.2325 41.425 16.075C41.1167 15.7667 40.55 15.7667 40.2417 16.075C40.0917 16.2325 40 16.4408 40 16.6667C40 16.8833 40.0917 17.1 40.2417 17.2583C40.4 17.4083 40.6167 17.5 40.8333 17.5ZM41.9233 10H38.8467C38.3867 10 38.0133 9.6275 38.0133 9.16667C38.0133 8.70583 38.3867 8.33333 38.8467 8.33333H41.9233C42.3833 8.33333 42.7567 8.70583 42.7567 9.16667C42.7567 9.6275 42.3833 10 41.9233 10ZM47.5 2.5V4.77583C47.9975 4.48833 48.3333 3.94917 48.3333 3.33333C48.3333 2.41417 47.5858 1.66667 46.6667 1.66667H3.33333C2.41417 1.66667 1.66667 2.41417 1.66667 3.33333C1.66667 3.94917 2.0025 4.48833 2.5 4.77583V2.5H47.5ZM11.1475 20.9733C11.1858 21.3392 11.3742 21.68 11.6658 21.9067L12.5 22.5558V19.325C12.0883 19.4717 11.7133 19.7117 11.4233 20.0542C11.21 20.3058 11.1117 20.6325 11.1475 20.9733ZM15.2433 28.465C14.9533 28.8075 14.5783 29.0475 14.1667 29.1942V25.9633L15.0008 26.6125C15.2925 26.8383 15.4808 27.1792 15.5192 27.5442C15.555 27.8858 15.4567 28.2125 15.2433 28.465Z" fill="url(#paint0_linear)"/>
<defs>
<linearGradient id="paint0_linear" x1="25" y1="-24.7558" x2="-24.5093" y2="25.2418" gradientUnits="userSpaceOnUse">
<stop stop-color="#FFC15A"/>
<stop offset="1" stop-color="#FF8D2E"/>
</linearGradient>
</defs>
</svg>
