<svg width="60" height="40" viewBox="0 0 60 40" fill="none" xmlns="http://www.w3.org/2000/svg">
<path fill-rule="evenodd" clip-rule="evenodd" d="M6.23778 0.0389404H53.6453C57.1384 0.0389404 59.883 2.78362 59.8832 6.27683V8.77192C59.8832 9.52046 59.3841 10.0195 58.6356 10.0195H1.2476C0.499064 10.0195 0 9.52046 0 8.77192V6.27683C0 2.78362 2.74468 0.0389404 6.23778 0.0389404ZM58.6354 15.0097H1.2476C0.499064 15.0097 0 15.5088 0 16.2573V33.7232C0 37.2164 2.74468 39.9609 6.23778 39.9609H53.6451C57.1384 39.9609 59.8829 37.2162 59.8829 33.7232V16.2573C59.883 15.5088 59.384 15.0097 58.6354 15.0097ZM8.73298 24.9903H18.7135C19.462 24.9903 19.9611 25.4893 19.9611 26.2379C19.9611 26.9864 19.462 27.4855 18.7135 27.4855H8.73298C7.98444 27.4854 7.48538 26.9863 7.48538 26.2378C7.48538 25.4892 7.98444 24.9903 8.73298 24.9903ZM8.73298 32.4757H26.1988C26.9474 32.4757 27.4464 31.9766 27.4464 31.2281C27.4464 30.4795 26.9474 29.9805 26.1988 29.9805H8.73298C7.98444 29.9805 7.48538 30.4795 7.48538 31.2281C7.48538 31.9766 7.98444 32.4757 8.73298 32.4757ZM47.4074 32.4757C46.4094 32.4757 45.6608 32.2262 44.9123 31.7271C44.1637 32.2262 43.4152 32.4757 42.4172 32.4757C39.6725 32.4757 37.4269 30.2301 37.4269 27.4854C37.4269 24.7407 39.6725 22.4951 42.4172 22.4951C43.4152 22.4951 44.1637 22.7446 44.9123 23.2436C45.6608 22.7446 46.4094 22.4951 47.4074 22.4951C50.152 22.4951 52.3977 24.7407 52.3977 27.4854C52.3977 30.2301 50.152 32.4757 47.4074 32.4757Z" fill="url(#paint0_linear)"/>
<defs>
<linearGradient id="paint0_linear" x1="29.9416" y1="-18.2215" x2="-2.6566" y2="35.2295" gradientUnits="userSpaceOnUse">
<stop stop-color="#A779D6"/>
<stop offset="1" stop-color="#6E44AD"/>
</linearGradient>
</defs>
</svg>
