<svg width="40" height="40" viewBox="0 0 40 40" fill="none" xmlns="http://www.w3.org/2000/svg">
<g clip-path="url(#clip0)">
<path fill-rule="evenodd" clip-rule="evenodd" d="M31.5809 0H25.2524C23.3146 0 21.7368 1.57776 21.7368 3.51562V5.62439H19.9399C19.2927 5.62439 18.7681 6.14929 18.7681 6.79626C18.7681 7.44354 19.2927 7.96814 19.9399 7.96814H21.7621C22.0603 11.3968 24.939 14.0622 28.4165 14.0622C32.1055 14.0622 35.0965 11.0712 35.0965 7.3822V3.51562C35.0965 1.57776 33.5187 0 31.5809 0ZM25.6857 16.9947C24.8306 17.3808 24.071 17.9402 23.4534 18.6271L17.1533 25.0779H8.35938C6.42334 25.0779 4.84375 26.6578 4.84375 28.5939C4.84375 30.5296 6.42365 32.1095 8.35938 32.1095H18.2034C19.2834 32.1095 20.354 31.8382 21.1581 31.0282L22.2058 29.9736V38.8276C22.2058 39.3952 22.6089 39.8921 23.1445 40.0001L33.9261 39.9995C34.5724 39.9989 35.0964 39.4743 35.0964 38.8276V23.0857C35.0964 18.2734 30.0977 15.0035 25.6857 16.9947ZM16.5023 22.7339H8.06445C7.41748 22.7339 6.89258 22.2093 6.89258 21.562V13.2026C6.89258 12.5554 7.41748 12.0308 8.06445 12.0308H11.1116V14.0437C11.1116 14.691 11.6362 15.2156 12.2835 15.2156C12.9305 15.2156 13.4554 14.691 13.4554 14.0437V12.0308H16.5023C17.1495 12.0308 17.6741 12.5554 17.6741 13.2026V21.562C17.6741 22.2093 17.1495 22.7339 16.5023 22.7339Z" fill="url(#paint0_linear)"/>
</g>
<defs>
<linearGradient id="paint0_linear" x1="19.9701" y1="0" x2="19.9701" y2="40.0001" gradientUnits="userSpaceOnUse">
<stop stop-color="#FC6EC3"/>
<stop offset="1" stop-color="#E8A262"/>
</linearGradient>
<clipPath id="clip0">
<rect width="40" height="40" fill="white"/>
</clipPath>
</defs>
</svg>
