<svg width="46" height="48" viewBox="0 0 46 48" fill="none" xmlns="http://www.w3.org/2000/svg">
<path fill-rule="evenodd" clip-rule="evenodd" d="M44.63 48H35.39C35.7966 47.7748 36.0348 47.3335 36 46.87V46H43C43.5523 46 44 45.5523 44 45V3C44 2.44772 43.5523 2 43 2H15C14.7259 1.99966 14.4637 2.11185 14.2746 2.31034C14.0856 2.50884 13.9863 2.77623 14 3.05V7H12V1.56C11.9524 0.774399 12.528 0.0889635 13.31 0H44.64C45.4149 0.0773476 46.0039 0.731281 46 1.51V46.68C45.9948 47.0372 45.8471 47.3775 45.5899 47.6253C45.3327 47.8732 44.9871 48.008 44.63 48ZM1.27 17H20.74C21.4271 17.0208 21.9792 17.5729 22 18.26V46.74C21.9743 47.425 21.425 47.9743 20.74 48H1.27C0.593032 48.0061 0.0322101 47.4762 0 46.8V18.26C0.0210892 17.5692 0.579034 17.0156 1.27 17ZM11.38 18.68C11.38 18.4425 11.1875 18.25 10.95 18.25H10.94C10.7064 18.2554 10.5199 18.4464 10.52 18.68C10.52 18.9175 10.7125 19.11 10.95 19.11C11.1875 19.11 11.38 18.9175 11.38 18.68ZM10 46.5C10 47.0523 10.4477 47.5 11 47.5C11.5523 47.5 12 47.0523 12 46.5C12 45.9477 11.5523 45.5 11 45.5C10.4477 45.5 10 45.9477 10 46.5ZM2 45H20V20H2V45ZM8.26 8H33.74C34.0741 7.9946 34.3962 8.12423 34.6334 8.35954C34.8705 8.59484 35.0027 8.91591 35 9.25V46.75C35.0027 47.0841 34.8705 47.4052 34.6334 47.6405C34.3962 47.8758 34.0741 48.0054 33.74 48H22.31C22.9 47.78 23 47.39 23 46.59V44H33V12H9V16H7V9.25C6.99726 8.91591 7.12946 8.59484 7.36665 8.35954C7.60383 8.12423 7.92594 7.9946 8.26 8ZM20.5 10C20.5 10.2761 20.7239 10.5 21 10.5C21.2761 10.5 21.5 10.2761 21.5 10C21.5 9.72386 21.2761 9.5 21 9.5C20.7239 9.5 20.5 9.72386 20.5 10Z" fill="url(#paint0_linear)"/>
<defs>
<linearGradient id="paint0_linear" x1="26.9809" y1="95.2416" x2="101.379" y2="26.4266" gradientUnits="userSpaceOnUse">
<stop stop-color="#8D219B"/>
<stop offset="1" stop-color="#FF6464"/>
</linearGradient>
</defs>
</svg>
