<svg width="23" height="44" viewBox="0 0 23 44" fill="none" xmlns="http://www.w3.org/2000/svg">
<path fill-rule="evenodd" clip-rule="evenodd" d="M23 14.9999V19.9999H22V30.6699C21.9817 31.8174 21.5277 32.9149 20.73 33.7399C20.69 33.7799 20.53 33.9999 20.53 33.9999C20.53 33.9999 19.12 36.1099 18.79 36.6699C18.0923 37.8627 18.0587 39.6408 18.039 40.6827C18.0325 41.0297 18.0275 41.295 18 41.4299C17.864 42.001 17.4133 42.4439 16.84 42.5699C14.9955 42.8983 13.123 43.0424 11.25 42.9999C9.21783 43.0401 7.18621 42.8962 5.18 42.5699C4.58706 42.4614 4.10245 42.0344 3.92 41.4599C3.79628 40.8521 3.77672 40.2326 3.75705 39.6094C3.74016 39.0741 3.72317 38.5359 3.64 37.9999C3.50168 36.3716 2.68516 34.8765 1.39 33.8799C0.484131 33.0614 -0.0228328 31.8906 -7.59144e-07 30.6699V13.3299C0.00714691 12.1301 0.497388 10.9838 1.36 10.1499L1.82 9.63992C2.91893 8.4076 3.57985 6.84669 3.7 5.19992C3.73984 4.89315 3.77809 4.49907 3.81666 4.1018C3.87489 3.50193 3.93382 2.89478 4 2.56992C4.12777 2.01229 4.55597 1.57252 5.11 1.42992C6.95446 1.10152 8.82701 0.95748 10.7 0.999924C11.68 0.999924 12.71 1.01992 13.65 1.07992C14.59 1.13992 15.53 1.20992 16.46 1.33992C17.2758 1.36346 17.9697 1.94175 18.14 2.73992C18.248 3.28441 18.2876 3.83551 18.3272 4.38597C18.372 5.00825 18.4167 5.62972 18.56 6.23992C18.8224 7.30729 19.2655 8.32192 19.87 9.23992C20.074 9.55776 20.341 9.85534 20.608 10.1529C20.9039 10.4827 21.1998 10.8125 21.41 11.1699C21.7953 11.8246 21.999 12.5703 22 13.3299V14.9999H23ZM18 33.9999C19.7377 33.8874 21.0687 32.4099 21 30.6699V13.3299C21.0687 11.59 19.7377 10.1125 18 9.99992H4C2.26232 10.1125 0.931261 11.59 0.999999 13.3299V30.6699C0.925859 32.4118 2.25982 33.8925 4 33.9999H18Z" fill="url(#paint0_linear)"/>
<defs>
<linearGradient id="paint0_linear" x1="11.3748" y1="91.6748" x2="64.8011" y2="59.7237" gradientUnits="userSpaceOnUse">
<stop stop-color="#FF611F"/>
<stop offset="1" stop-color="#EDFF00"/>
</linearGradient>
</defs>
</svg>
