<svg width="45" height="48" viewBox="0 0 45 48" fill="none" xmlns="http://www.w3.org/2000/svg">
<path fill-rule="evenodd" clip-rule="evenodd" d="M13.5752 17.2372L35.455 5.8562L42.3855 9.26583C43.8273 9.97509 45.0038 11.9836 45 13.7293L44.9554 34.6004C44.9516 36.3646 43.7488 38.3751 42.2827 39.0684L24.2276 47.6055C23.2757 48.0555 21.718 48.0555 20.7662 47.6053L2.71722 39.0685C1.25105 38.3749 0.048326 36.3642 0.044576 34.5999L1.71466e-05 13.7293C-0.00365932 11.9836 1.17281 9.97509 2.6145 9.26583L20.7109 0.363051C21.6949 -0.121017 23.3051 -0.121017 24.2891 0.363051L31.6381 3.97843L9.75825 15.3594V22.6678L13.5752 24.5456V17.2372ZM39.8526 23.1057L40.9116 22.562C41.416 22.3032 41.7348 21.5815 41.4836 21.2647L38.9674 18.0908C38.719 17.7775 38.0984 18.1108 37.8509 18.6886L35.3988 24.4124C35.1593 24.9715 35.4613 25.3598 35.9438 25.1122L36.9696 24.5856L36.9749 32.7229C36.9752 33.0786 37.2563 33.2326 37.6039 33.0665L39.1894 32.3092C39.5425 32.1406 39.8302 31.7117 39.8311 31.3514L39.8526 23.1057ZM30.5585 35.8041C30.5613 36.1493 30.2975 36.5559 29.9702 36.7122L28.4999 37.4145C28.1775 37.5685 27.9138 37.4169 27.9101 37.0761L27.824 29.28L26.8727 29.7683C26.4252 29.998 26.1397 29.6212 26.3575 29.0895L28.5862 23.6483C28.811 23.0994 29.3857 22.7908 29.6202 23.0947L31.9952 26.1729C32.2324 26.4802 31.9429 27.1656 31.476 27.4052L30.4952 27.9086L30.5585 35.8041ZM42.3333 34.0202C42.5136 33.9363 42.6608 33.7216 42.6619 33.5405L42.6675 32.5557C42.6686 32.3741 42.5228 32.296 42.3423 32.3811L25.5186 40.3106C25.3616 40.3846 25.2365 40.5802 25.2388 40.7477L25.2517 41.6557C25.254 41.8228 25.3829 41.8992 25.5396 41.8263L42.3333 34.0202Z" fill="url(#paint0_linear)"/>
<defs>
<linearGradient id="paint0_linear" x1="0" y1="0" x2="0" y2="47.943" gradientUnits="userSpaceOnUse">
<stop stop-color="#57168A"/>
<stop offset="1" stop-color="#2C0952"/>
</linearGradient>
</defs>
</svg>
