<svg width="60" height="40" viewBox="0 0 60 40" fill="none" xmlns="http://www.w3.org/2000/svg">
<path fill-rule="evenodd" clip-rule="evenodd" d="M6.23778 0.0390625H53.6453C57.1384 0.0390625 59.883 2.78374 59.8832 6.27696V8.77205C59.8832 9.52058 59.3841 10.0196 58.6356 10.0196H1.2476C0.499064 10.0196 0 9.52058 0 8.77205V6.27696C0 2.78374 2.74468 0.0390625 6.23778 0.0390625ZM58.6354 15.0098H1.2476C0.499064 15.0098 0 15.5089 0 16.2574V33.7233C0 37.2165 2.74468 39.9611 6.23778 39.9611H53.6451C57.1384 39.9611 59.8829 37.2164 59.8829 33.7233V16.2574C59.883 15.5089 59.384 15.0098 58.6354 15.0098ZM8.73298 24.9904H18.7135C19.462 24.9904 19.9611 25.4895 19.9611 26.238C19.9611 26.9865 19.462 27.4856 18.7135 27.4856H8.73298C7.98444 27.4855 7.48538 26.9864 7.48538 26.2379C7.48538 25.4894 7.98444 24.9904 8.73298 24.9904ZM8.73298 32.4758H26.1988C26.9474 32.4758 27.4464 31.9767 27.4464 31.2282C27.4464 30.4796 26.9474 29.9806 26.1988 29.9806H8.73298C7.98444 29.9806 7.48538 30.4796 7.48538 31.2282C7.48538 31.9767 7.98444 32.4758 8.73298 32.4758ZM47.4074 32.4758C46.4094 32.4758 45.6608 32.2263 44.9123 31.7272C44.1637 32.2263 43.4152 32.4758 42.4172 32.4758C39.6725 32.4758 37.4269 30.2302 37.4269 27.4855C37.4269 24.7408 39.6725 22.4952 42.4172 22.4952C43.4152 22.4952 44.1637 22.7447 44.9123 23.2437C45.6608 22.7447 46.4094 22.4952 47.4074 22.4952C50.152 22.4952 52.3977 24.7408 52.3977 27.4855C52.3977 30.2302 50.152 32.4758 47.4074 32.4758Z" fill="url(#paint0_linear)"/>
<defs>
<linearGradient id="paint0_linear" x1="29.9416" y1="-18.2214" x2="-2.6566" y2="35.2296" gradientUnits="userSpaceOnUse">
<stop stop-color="#A779D6"/>
<stop offset="1" stop-color="#6E44AD"/>
</linearGradient>
</defs>
</svg>
