<svg width="50" height="48" viewBox="0 0 50 48" fill="none" xmlns="http://www.w3.org/2000/svg">
<path fill-rule="evenodd" clip-rule="evenodd" d="M31.5993 3.69358L11.6779 9.13129H8.95062L26.7845 0.292906C28.1706 -0.39733 29.8541 0.175061 30.5443 1.56114L31.5993 3.69358ZM37.0426 3.95172C37.2896 3.88438 37.5365 3.85071 37.7834 3.85071C39.018 3.85071 40.1515 4.67001 40.4882 5.92141L41.3636 9.13129H34.2929H18.0696L32.3626 5.23118L37.0426 3.95172ZM44.2873 11.0954H43.6476H42.7778H41.908H35.2694H10.8754H7.67677H4.98316H4.48373H2.81145C1.9248 11.0954 1.13356 11.505 0.617284 12.1504C0.381594 12.4478 0.20202 12.7901 0.10101 13.1661C0.0392817 13.4018 0 13.6487 0 13.9012V14.2379V17.4366V45.1638C0 46.7127 1.25701 47.9697 2.80584 47.9697H44.2817C45.8306 47.9697 47.0875 46.7127 47.0875 45.1638V37.3356H30.4377C27.8058 37.3356 25.6678 35.1975 25.6678 32.5656V29.9955V29.1257V28.2559V26.3255C25.6678 25.0348 26.184 23.862 27.0202 23.0034C27.7609 22.2402 28.7542 21.7239 29.8653 21.5948C30.0505 21.5724 30.2413 21.5611 30.4321 21.5611H44.7531H45.6229H46.4927H47.0875V13.9012C47.0932 12.3524 45.8361 11.0954 44.2873 11.0954ZM49.0572 24.2435C48.7767 23.9854 48.4456 23.789 48.0752 23.6599C47.7889 23.5646 47.486 23.5084 47.1661 23.5084H47.0932H47.037H46.1672H43.0303H30.4377C28.8888 23.5084 27.6319 24.7654 27.6319 26.3143V27.7115V28.5813V29.4512V32.56C27.6319 34.1088 28.8888 35.3659 30.4377 35.3659H47.0932H47.1661C47.486 35.3659 47.789 35.3097 48.0752 35.2143C48.4456 35.0909 48.7767 34.8889 49.0572 34.6307C49.6184 34.1201 49.9719 33.3793 49.9719 32.5601V26.3143C49.9719 25.4949 49.6184 24.7541 49.0572 24.2435ZM36.2963 29.9955C36.2963 30.7699 35.6678 31.3984 34.8934 31.3984H33.9618C33.1874 31.3984 32.5589 30.7699 32.5589 29.9955V29.0639C32.5589 28.615 32.7666 28.2165 33.0976 27.964C33.3389 27.7788 33.6364 27.661 33.9618 27.661H34.1975H34.8934C35.6678 27.661 36.2963 28.2895 36.2963 29.0639V29.9955Z" fill="url(#paint0_linear)"/>
<defs>
<linearGradient id="paint0_linear" x1="42.5501" y1="-14.249" x2="-7.07893" y2="1.10822" gradientUnits="userSpaceOnUse">
<stop stop-color="#00C6FF"/>
<stop offset="1" stop-color="#0095FF"/>
</linearGradient>
</defs>
</svg>
