<svg width="18" height="14" viewBox="0 0 18 14" fill="none" xmlns="http://www.w3.org/2000/svg">
<path d="M0.207692 7.7C0.0692308 7.56 0 7.35 0 7.21C0 7.07 0.0692308 6.86 0.207692 6.72L1.17692 5.74C1.45385 5.46 1.86923 5.46 2.14615 5.74L2.21538 5.81L6.02308 9.94C6.16154 10.08 6.36923 10.08 6.50769 9.94L15.7846 0.21H15.8538C16.1308 -0.07 16.5462 -0.07 16.8231 0.21L17.7923 1.19C18.0692 1.47 18.0692 1.89 17.7923 2.17L6.71538 13.79C6.57692 13.93 6.43846 14 6.23077 14C6.02308 14 5.88462 13.93 5.74615 13.79L0.346154 7.91L0.207692 7.7Z" fill="#FF548C"/>
</svg>
