<svg width="18" height="18" viewBox="0 0 18 18" fill="none" xmlns="http://www.w3.org/2000/svg">
<path fill-rule="evenodd" clip-rule="evenodd" d="M0.562186 17.4406C-0.702733 16.0022 0.562186 14.7436 0.562186 14.7436L4.53765 10.4284C3.99554 9.43951 3.72448 8.36071 3.72448 7.10211C3.72448 3.1465 6.88678 0 10.8622 0C14.8377 0 18 3.2364 18 7.10211C18 11.0577 14.8377 14.2042 10.8622 14.2042C9.50697 14.2042 7.51924 13.3951 7.51924 13.3951L3.18238 17.4406C3.18238 17.4406 1.73675 18.6992 0.562186 17.4406ZM10.8947 1.89474C7.96953 1.89474 5.68421 4.27147 5.68421 7.10526C5.68421 9.93906 8.06094 12.3158 10.8947 12.3158C13.8199 12.3158 16.1053 9.93906 16.1053 7.10526C16.1053 4.18006 13.7285 1.89474 10.8947 1.89474Z" fill="#393939"/>
</svg>
