<svg width="60" height="60" viewBox="0 0 60 60" fill="none" xmlns="http://www.w3.org/2000/svg">
<path fill-rule="evenodd" clip-rule="evenodd" d="M30 60C46.5685 60 60 46.5685 60 30C60 13.4315 46.5685 0 30 0C13.4315 0 0 13.4315 0 30C0 46.5685 13.4315 60 30 60Z" fill="#FF548C"/>
<mask id="mask0" mask-type="alpha" maskUnits="userSpaceOnUse" x="0" y="0" width="60" height="60">
<path fill-rule="evenodd" clip-rule="evenodd" d="M30 60C46.5685 60 60 46.5685 60 30C60 13.4315 46.5685 0 30 0C13.4315 0 0 13.4315 0 30C0 46.5685 13.4315 60 30 60Z" fill="white"/>
</mask>
<g mask="url(#mask0)">
<path opacity="0.5" d="M30 39.5482C35.8081 39.5482 40.5169 33.8291 40.5169 26.7742C40.5169 19.7191 38.9709 14 30 14C21.0291 14 19.4828 19.7191 19.4828 26.7742C19.4828 33.8291 24.1916 39.5482 30 39.5482Z" fill="black"/>
<path d="M10.1357 59.0531C10.1339 58.6229 10.1321 58.9319 10.1357 59.0531V59.0531Z" fill="black"/>
<path d="M49.8634 59.3888C49.8691 59.271 49.8654 58.5718 49.8634 59.3888V59.3888Z" fill="black"/>
<path opacity="0.5" d="M49.841 58.5378C49.6463 46.248 48.0412 42.746 35.7587 40.5293C35.7587 40.5293 34.0297 42.7324 29.9999 42.7324C25.97 42.7324 24.2408 40.5293 24.2408 40.5293C12.0922 42.7218 10.3896 46.1718 10.1657 58.1385C10.1473 59.1157 10.1388 59.1671 10.1355 59.0536C10.1363 59.2662 10.1372 59.6593 10.1372 60.3448C10.1372 60.3448 13.0613 66.2397 29.9999 66.2397C46.9381 66.2397 49.8625 60.3448 49.8625 60.3448C49.8625 59.9044 49.8628 59.5981 49.8633 59.3897C49.86 59.4599 49.8534 59.3239 49.841 58.5378Z" fill="black"/>
</g>
</svg>
