<svg width="80" height="80" viewBox="0 0 80 80" fill="none" xmlns="http://www.w3.org/2000/svg">
<path fill-rule="evenodd" clip-rule="evenodd" d="M60.0155 5.35891C66.1372 8.93194 70.9841 13.7788 74.5573 19.9003C78.1288 26.0219 79.9149 32.7087 79.9147 39.9575C79.9147 47.2058 78.1288 53.8916 74.5565 60.0144C70.9837 66.1359 66.137 70.9841 60.0153 74.5562C53.8932 78.1288 47.2071 79.9151 39.9579 79.9151C32.7087 79.9151 26.0233 78.1288 19.9009 74.5562C13.7788 70.9828 8.93194 66.1347 5.35891 60.0144C1.78661 53.8916 0 47.2064 0 39.9575C0 32.7087 1.78606 26.0228 5.35945 19.9003C8.93266 13.7782 13.7795 8.93139 19.9016 5.35891C26.0241 1.78606 32.7092 0 39.9586 0C47.2087 0 53.8927 1.78606 60.0155 5.35891ZM31.6333 59.4679L59.937 42.8184C61.0464 42.1935 61.6015 41.2406 61.6015 39.9575C61.6015 38.6746 61.0464 37.7199 59.937 37.0959L31.6333 20.4472C30.5578 19.7881 29.4482 19.7709 28.3038 20.3954C27.194 21.0544 26.6389 22.0257 26.6389 23.3088V56.6061C26.6389 57.8901 27.194 58.8605 28.3038 59.5191C28.8587 59.7964 29.4136 59.9357 29.9685 59.9357C30.5578 59.9357 31.1129 59.7797 31.6333 59.4679Z" fill="#4BD964"/>
</svg>
