<svg width="32" height="46" viewBox="0 0 32 46" fill="none" xmlns="http://www.w3.org/2000/svg">
<path fill-rule="evenodd" clip-rule="evenodd" d="M9.91609 42.24V9.13C9.91609 6.59 11.6461 5 14.4261 5H22.0061V3.5C22.0061 1.21 20.4361 0 18.0861 0H3.93609C1.57609 0 0.00608909 1.18 0.00608909 3.5V41.78C-0.0538922 42.8664 0.331271 43.9303 1.07279 44.7266C1.81431 45.5228 2.84818 45.9826 3.93609 46H11.6461C10.5379 45.0671 9.90358 43.6885 9.91609 42.24ZM5.00609 6.5C5.00609 7.32843 4.33452 8 3.50609 8C2.67766 8 2.00609 7.32843 2.00609 6.5V3.5C2.00609 2.67157 2.67766 2 3.50609 2C4.33452 2 5.00609 2.67157 5.00609 3.5V6.5ZM27.6451 6H14.5151C12.4051 6 11.0051 7.05 11.0051 9.13V42.23C10.9534 43.1999 11.298 44.1492 11.9598 44.8601C12.6217 45.5709 13.544 45.9824 14.5151 46H27.5151C28.4827 45.977 29.3998 45.5633 30.0573 44.853C30.7148 44.1427 31.0567 43.1965 31.0051 42.23V9.13C31.0051 7.1 29.6751 6.06 27.6451 6ZM16.0051 12.5C16.0051 13.3284 15.3335 14 14.5051 14C13.6767 14 13.0051 13.3284 13.0051 12.5V9.5C13.0051 8.67157 13.6767 8 14.5051 8C15.3335 8 16.0051 8.67157 16.0051 9.5V12.5Z" fill="url(#paint0_linear)"/>
<defs>
<linearGradient id="paint0_linear" x1="6.92989" y1="-22.6333" x2="-39.8199" y2="19.0728" gradientUnits="userSpaceOnUse">
<stop stop-color="#00A5FF"/>
<stop offset="1" stop-color="#80FFA5"/>
</linearGradient>
</defs>
</svg>
