<svg width="18" height="18" viewBox="0 0 18 18" fill="none" xmlns="http://www.w3.org/2000/svg">
<path fill-rule="evenodd" clip-rule="evenodd" d="M13.5179 1.20704C14.8968 2.01183 15.9885 3.10353 16.7933 4.48235C17.5977 5.86117 18 7.36715 18 9.00004C18 10.6328 17.5977 12.1387 16.7931 13.5176C15.9884 14.8965 14.8967 15.9885 13.5179 16.793C12.1389 17.5977 10.6329 18.0001 9.00012 18.0001C7.36731 18.0001 5.8615 17.5977 4.48247 16.793C3.10353 15.9882 2.01183 14.8965 1.20704 13.5176C0.402415 12.1385 0 10.6329 0 9.00004C0 7.36731 0.402292 5.86137 1.20716 4.48235C2.01199 3.10341 3.1037 2.01171 4.48264 1.20704C5.8615 0.402292 7.36743 0 9.00029 0C10.6333 0 12.1388 0.402292 13.5179 1.20704ZM8.40253 14.8478L13.723 9.52724C13.8713 9.37894 13.9455 9.20305 13.9454 8.99984C13.9454 8.7967 13.8713 8.62086 13.723 8.47252L8.40249 3.15209C8.25403 3.00371 8.07823 2.92946 7.87505 2.92946C7.67179 2.92946 7.49616 3.00371 7.34761 3.15209L6.15231 4.34776C6.00384 4.49618 5.92959 4.67194 5.92959 4.87508C5.92959 5.07813 6.00384 5.25406 6.15231 5.40232L9.75028 9L6.15247 12.5975C6.00401 12.7459 5.92976 12.922 5.92976 13.1248C5.92976 13.328 6.00401 13.5039 6.15247 13.6522L7.34777 14.8478C7.49616 14.9962 7.67196 15.0706 7.87522 15.0706C8.07843 15.0706 8.25407 14.9961 8.40253 14.8478Z" fill="#D63469"/>
</svg>
