<svg width="24" height="24" viewBox="0 0 24 24" fill="none" xmlns="http://www.w3.org/2000/svg">
<path fill-rule="evenodd" clip-rule="evenodd" d="M1.82564 19.0769H0.841026C0.369231 19.0769 0 18.7077 0 18.2154V14.9128V4.71795V0.841026C0 0.369231 0.369231 0 0.841026 0C1.31282 0 1.68205 0.369231 1.68205 0.841026V3.89744H22.9333C23.1795 3.89744 23.4256 4.02051 23.5897 4.22564C23.7538 4.43077 23.7949 4.69744 23.7333 4.94359L20.9436 15.1385C20.841 15.5077 20.5128 15.7538 20.1436 15.7538H1.68205V17.3949H17.9282C18.4 17.3949 18.7692 17.7641 18.7692 18.2359C18.7692 18.7077 18.4 19.0769 17.9282 19.0769H16.8615C17.1282 19.5487 17.2718 20.0615 17.2718 20.6154C17.2718 21.4769 16.9436 22.2769 16.3487 22.8718C15.7333 23.4667 14.9538 23.7949 14.0923 23.7949C13.2308 23.7949 12.4308 23.4667 11.8359 22.8718C10.8103 21.8462 10.6462 20.2872 11.3231 19.0769H7.3641C7.63077 19.5487 7.77436 20.0615 7.77436 20.6154C7.77436 21.4769 7.44615 22.2769 6.85128 22.8718C6.2359 23.4667 5.45641 23.7949 4.59487 23.7949C3.73333 23.7949 2.93333 23.4667 2.33846 22.8718C1.31282 21.8462 1.14872 20.2872 1.82564 19.0769ZM14.0718 19.0974C13.6615 19.0974 13.2923 19.2615 13.0051 19.5487C12.4103 20.1436 12.4103 21.0872 13.0051 21.6821C13.5795 22.2564 14.5641 22.2564 15.1385 21.6821C15.4256 21.3949 15.5897 21.0256 15.5897 20.6154C15.5897 20.2051 15.4256 19.8359 15.1385 19.5487C14.8513 19.2615 14.4821 19.0974 14.0718 19.0974ZM3.52821 19.5487C3.81538 19.2615 4.18462 19.0974 4.59487 19.0974C5.00513 19.0974 5.37436 19.2615 5.66154 19.5487C5.94872 19.8359 6.11282 20.2051 6.11282 20.6154C6.11282 21.0256 5.94872 21.3949 5.66154 21.6821C5.08718 22.2564 4.10256 22.2564 3.52821 21.6821C2.93333 21.0872 2.93333 20.1436 3.52821 19.5487ZM21.8256 5.55897H1.68205V14.0923H19.4872L21.8256 5.55897Z" fill="white"/>
</svg>
