<svg width="20" height="20" viewBox="0 0 20 20" fill="none" xmlns="http://www.w3.org/2000/svg">
<path d="M14.8631 12.5061L12.2564 9.8995L14.8631 7.29286C15.5035 6.65246 15.4898 5.59039 14.8492 4.94975C14.2085 4.30911 13.1464 4.29544 12.506 4.93584L9.89941 7.54247L7.29278 4.93584C6.65238 4.29544 5.59031 4.30911 4.94967 4.94975C4.30903 5.59039 4.29536 6.65246 4.93576 7.29286L7.54239 9.8995L4.93576 12.5061C4.29536 13.1465 4.30903 14.2086 4.94967 14.8492C5.59031 15.4899 6.65238 15.5036 7.29278 14.8631L9.89941 12.2565L12.506 14.8631C13.1464 15.5036 14.2085 15.4899 14.8492 14.8492C15.4898 14.2086 15.5035 13.1465 14.8631 12.5061Z" fill="#CCCCCC"/>
</svg>
