<svg width="35" height="35" viewBox="0 0 35 35" fill="none" xmlns="http://www.w3.org/2000/svg">
<path fill-rule="evenodd" clip-rule="evenodd" d="M31.1685 12.8704C31.6725 14.3577 31.9281 15.9134 31.9281 17.5C31.9281 25.4556 25.4556 31.9281 17.4999 31.9281C9.54416 31.9281 3.07159 25.4556 3.07159 17.5C3.07159 9.54416 9.54405 3.07191 17.4998 3.07191C19.0866 3.07191 20.6423 3.32733 22.1294 3.83148V0.620682C20.6273 0.208916 19.0759 0 17.4999 0C7.85048 0 0 7.85048 0 17.5C0 27.1495 7.85048 35 17.4999 35C27.1493 35 34.9997 27.1495 34.9997 17.5C34.9997 15.9241 34.7909 14.3726 34.3791 12.8704H31.1685ZM23.9962 17.0742C24.9328 16.5632 25.4947 15.6437 25.4947 14.605C25.4947 12.6467 23.8429 11.4036 21.2205 11.4036C18.6322 11.4036 16.9633 12.6125 16.9633 14.5199C16.9633 15.5587 17.6104 16.5121 18.6151 17.0742C17.2358 17.619 16.3503 18.777 16.3503 20.1394C16.3503 22.2508 18.2575 23.5961 21.2375 23.5961C24.2175 23.5961 26.1248 22.2338 26.1248 20.0882C26.1248 18.76 25.3073 17.619 23.9962 17.0742ZM21.2376 21.3996C19.9264 21.3996 19.2111 20.8377 19.2111 19.8329C19.2111 18.8452 19.9263 18.2832 21.2376 18.2832C22.5488 18.2832 23.281 18.8453 23.281 19.8329C23.281 20.8548 22.5488 21.3996 21.2376 21.3996ZM19.5177 14.7753C19.5177 15.6269 20.1307 16.1035 21.2375 16.1035C22.3444 16.1035 22.9574 15.6268 22.9574 14.7753C22.9574 13.89 22.3444 13.3961 21.2375 13.3961C20.1306 13.3961 19.5177 13.89 19.5177 14.7753ZM11.0717 13.9579V23.4601H14.1029V11.5228H8.8751V13.9579H11.0717ZM30.2953 1.33908V4.69461H33.6506V7.10731H30.2953V10.4627H27.8824V7.10731H24.547V4.69461H27.8824V1.33908H30.2953Z" fill="white"/>
</svg>
