<svg width="34" height="30" viewBox="0 0 34 30" fill="none" xmlns="http://www.w3.org/2000/svg">
<path fill-rule="evenodd" clip-rule="evenodd" d="M14.144 4.44911C14.144 1.99189 18.5359 0 23.9535 0C29.371 0 33.7629 1.99189 33.7629 4.44911V5.41399C33.7629 7.87121 29.371 9.8631 23.9535 9.8631C18.5359 9.8631 14.144 7.87121 14.144 5.41399V4.44911ZM12.5434 17.2231C11.6755 17.3372 10.7584 17.3985 9.80955 17.3985C4.39194 17.3985 8.52773e-05 15.4064 8.52773e-05 12.9493V11.9844C8.52773e-05 9.52716 4.39194 7.53527 9.80955 7.53527C10.7584 7.53527 11.6756 7.59656 12.5434 7.71056V17.2231ZM12.5434 22.1903C11.6755 22.3043 10.7584 22.3656 9.80955 22.3656C4.39194 22.3656 8.52773e-05 20.3737 8.52773e-05 17.9164V16.9516C8.52773e-05 16.6392 0.0713773 16.3346 0.206395 16.0403C1.13353 18.0604 5.08057 19.5782 9.80955 19.5782C10.7586 19.5782 11.6753 19.5161 12.5434 19.4021V22.1903ZM12.5433 24.586V24.3693C11.6753 24.4833 10.7585 24.5454 9.80947 24.5454C5.08048 24.5454 1.13344 23.0276 0.20631 21.0075C0.0712921 21.3017 0 21.6064 0 21.9187V22.8836C0 25.3409 4.39186 27.3328 9.80947 27.3328C10.8929 27.3328 11.9349 27.2529 12.9094 27.1058C12.6679 26.6117 12.5433 26.0906 12.5433 25.5508V24.586ZM23.9535 12.0429C19.2245 12.0429 15.2774 10.5251 14.3503 8.505C14.2153 8.79916 14.144 9.10384 14.144 9.41624V10.3811C14.144 12.8383 18.5359 14.8302 23.9535 14.8302C29.371 14.8302 33.7629 12.8383 33.7629 10.3811V9.41624C33.7629 9.10384 33.6916 8.79916 33.5566 8.505C32.6295 10.5251 28.6825 12.0429 23.9535 12.0429ZM14.3503 13.4722C15.2774 15.4923 19.2245 17.0101 23.9535 17.0101C28.6825 17.0101 32.6295 15.4924 33.5566 13.4722C33.6916 13.7664 33.7629 14.0711 33.7629 14.3835V15.3484C33.7629 17.8057 29.371 19.7976 23.9535 19.7976C18.5359 19.7976 14.144 17.8057 14.144 15.3484V14.3835C14.144 14.0711 14.2153 13.7664 14.3503 13.4722ZM23.9535 22.2455C19.2245 22.2455 15.2774 20.7277 14.3503 18.7076C14.2153 19.0019 14.144 19.3065 14.144 19.6188V20.5837C14.144 23.041 18.5359 25.0329 23.9535 25.0329C29.371 25.0329 33.7629 23.041 33.7629 20.5837V19.6188C33.7629 19.3065 33.6916 19.0017 33.5566 18.7076C32.6295 20.7276 28.6825 22.2455 23.9535 22.2455ZM14.3503 23.6749C15.2774 25.6949 19.2245 27.2127 23.9535 27.2127C28.6825 27.2127 32.6295 25.6949 33.5566 23.6748C33.6916 23.9689 33.7629 24.2736 33.7629 24.586V25.5509C33.7629 28.0082 29.371 30 23.9535 30C18.5359 30 14.144 28.0082 14.144 25.5509V24.5861C14.144 24.2739 14.2153 23.9691 14.3503 23.6749Z" fill="white"/>
</svg>
