<svg width="27" height="33" viewBox="0 0 27 33" fill="none" xmlns="http://www.w3.org/2000/svg">
<path fill-rule="evenodd" clip-rule="evenodd" d="M0.964286 0H23.4643C25.414 0 27 1.58605 27 3.53571V29.3786C27 31.3282 25.414 32.9143 23.4643 32.9143H0.964286C0.431669 32.9143 0 32.4826 0 31.95V0.964286C0 0.431668 0.431669 0 0.964286 0ZM23.4643 30.9857C24.3505 30.9857 25.0715 30.2648 25.0715 29.3786V3.53574C25.0715 2.64955 24.3505 1.9286 23.4643 1.9286H1.9286V30.9857H23.4643ZM13.5 4.88572C9.24632 4.88572 5.78568 8.34635 5.78568 12.6C5.78568 16.8537 9.24632 20.3143 13.5 20.3143C17.7536 20.3143 21.2143 16.8537 21.2143 12.6C21.2143 8.34635 17.7536 4.88572 13.5 4.88572ZM19.2049 11.6357H17.265C17.1809 10.1468 16.9029 8.75716 16.46 7.63065C17.8875 8.48419 18.9184 9.93514 19.2049 11.6357ZM11.6674 13.5643C11.8761 16.7811 12.9875 18.3857 13.5 18.3857C14.0198 18.3857 15.1252 16.76 15.3329 13.5643H11.6674ZM11.6674 11.6357C11.8748 8.43997 12.9802 6.81424 13.5 6.81424C14.0126 6.81424 15.124 8.41887 15.3327 11.6357H11.6674ZM9.73502 11.6357C9.81915 10.1471 10.0971 8.75716 10.5401 7.63065C9.11251 8.48419 8.08168 9.93514 7.79515 11.6357H9.73502ZM7.79515 13.5643H9.73502C9.81915 15.0531 10.0971 16.4428 10.5401 17.5693C9.11251 16.7158 8.08168 15.2648 7.79515 13.5643ZM17.265 13.5643C17.1809 15.0529 16.9029 16.4428 16.46 17.5693C17.8875 16.7158 18.9184 15.2648 19.2049 13.5643H17.265ZM21.2143 23.2072C21.2143 22.6745 20.7826 22.2429 20.25 22.2429H6.74997C6.21735 22.2429 5.78568 22.6745 5.78568 23.2072V27.0643C5.78568 27.5969 6.21735 28.0286 6.74997 28.0286H20.25C20.7826 28.0286 21.2143 27.5969 21.2143 27.0643V23.2072ZM19.2857 26.1H7.71432V24.1714H19.2857V26.1Z" fill="white"/>
</svg>
