<svg width="48" height="48" viewBox="0 0 48 48" fill="none" xmlns="http://www.w3.org/2000/svg">
<path fill-rule="evenodd" clip-rule="evenodd" d="M23.9709 0.190491C37.0831 0.190491 47.7513 10.8587 47.7513 23.9709C47.7513 37.0831 37.0831 47.7513 23.9709 47.7513C10.8586 47.7513 0.19043 37.0831 0.19043 23.9709C0.19043 10.8587 10.8586 0.190491 23.9709 0.190491ZM23.9709 45.3752C35.7738 45.3752 45.3752 35.7738 45.3752 23.9709C45.3752 12.168 35.7738 2.56659 23.9709 2.56659C12.1679 2.56659 2.56653 12.168 2.56653 23.9709C2.56653 35.7738 12.1679 45.3752 23.9709 45.3752ZM31.875 18.181C31.4095 17.7155 30.6627 17.7155 30.1972 18.181L21.0807 27.249L17.7542 23.903C17.2887 23.4375 16.5419 23.4375 16.0764 23.8933C15.6109 24.3492 15.6109 25.1056 16.0667 25.5712L20.2273 29.7609C20.46 29.9936 20.7607 30.11 21.071 30.11C21.3717 30.11 21.6723 29.9936 21.9051 29.7609L31.8653 19.8588C32.3309 19.3933 32.3309 18.6465 31.875 18.181Z" fill="white"/>
</svg>
