<svg width="44" height="40" viewBox="0 0 44 40" fill="none" xmlns="http://www.w3.org/2000/svg">
<path fill-rule="evenodd" clip-rule="evenodd" d="M44 2.22222C44 0.994907 43.015 0 41.8 0H2.2C0.984958 0 0 0.994907 0 2.22222V30.3704C0 31.5977 0.984958 32.5926 2.2 32.5926H19.0667V35.5556H13.2C11.985 35.5556 11 36.5505 11 37.7778V39.2593C11 39.6683 11.3284 40 11.7333 40H32.2667C32.6716 40 33 39.6683 33 39.2593V37.7778C33 36.5505 32.015 35.5556 30.8 35.5556H25.6667V32.5926H41.8C43.015 32.5926 44 31.5977 44 30.3704V2.22222ZM30.8 37.037C31.205 37.037 31.5333 37.3687 31.5333 37.7778V38.5185H12.4667V37.7778C12.4667 37.3687 12.795 37.037 13.2 37.037H30.8ZM20.5333 35.5556H24.2V32.5926H20.5333V35.5556ZM42.5333 28.1481V30.3704C42.5333 30.7794 42.205 31.1111 41.8 31.1111H2.2C1.79502 31.1111 1.46667 30.7794 1.46667 30.3704V28.1481H42.5333ZM42.5333 26.6667V5.98741H1.46667V26.6667H42.5333ZM42.5333 2.22222V4.50593H1.46667V2.22222C1.46667 1.81315 1.79502 1.48148 2.2 1.48148H41.8C42.205 1.48148 42.5333 1.81315 42.5333 2.22222ZM3.66667 8.88889C3.26168 8.88889 2.93333 8.55722 2.93333 8.14815C2.93333 7.73907 3.26168 7.40741 3.66667 7.40741H5.86667C6.20327 7.4075 6.49651 7.63898 6.578 7.96889L7.172 10.3704H18.3333C18.3827 10.3704 18.4319 10.3754 18.4802 10.3854C18.877 10.4671 19.133 10.8584 19.052 11.2593L17.5853 18.6667C17.5157 19.0116 17.2152 19.2594 16.8667 19.2593H8.06667C7.71788 19.2597 7.41703 19.0119 7.34727 18.6667L5.29393 8.88889H3.66667ZM7.49393 11.8519H17.4387L16.2661 17.7778H8.66727L7.49393 11.8519ZM9.53333 20C10.7484 20 11.7333 20.9949 11.7333 22.2222C11.7333 23.4495 10.7484 24.4444 9.53333 24.4444C8.31829 24.4444 7.33333 23.4495 7.33333 22.2222C7.33333 20.9949 8.31829 20 9.53333 20ZM10.2667 22.2222C10.2667 22.6313 9.93832 22.963 9.53333 22.963C9.12835 22.963 8.8 22.6313 8.8 22.2222C8.8 21.8131 9.12835 21.4815 9.53333 21.4815C9.93832 21.4815 10.2667 21.8131 10.2667 22.2222ZM16.1333 20C17.3484 20 18.3333 20.9949 18.3333 22.2222C18.3333 23.4495 17.3484 24.4444 16.1333 24.4444C14.9183 24.4444 13.9333 23.4495 13.9333 22.2222C13.9333 20.9949 14.9183 20 16.1333 20ZM16.8667 22.2222C16.8667 22.6313 16.5383 22.963 16.1333 22.963C15.7283 22.963 15.4 22.6313 15.4 22.2222C15.4 21.8131 15.7283 21.4815 16.1333 21.4815C16.5383 21.4815 16.8667 21.8131 16.8667 22.2222ZM22.7333 11.1111C22.3284 11.1111 22 10.7794 22 10.3704C22 9.9613 22.3284 9.62963 22.7333 9.62963H35.9333C36.3383 9.62963 36.6667 9.9613 36.6667 10.3704C36.6667 10.7794 36.3383 11.1111 35.9333 11.1111H22.7333ZM38.1333 10.3704C38.1333 10.7794 38.4617 11.1111 38.8667 11.1111H40.3333C40.7383 11.1111 41.0667 10.7794 41.0667 10.3704C41.0667 9.9613 40.7383 9.62963 40.3333 9.62963H38.8667C38.4617 9.62963 38.1333 9.9613 38.1333 10.3704ZM22.7333 14.0741C22.3284 14.0741 22 13.7424 22 13.3333C22 12.9243 22.3284 12.5926 22.7333 12.5926H35.9333C36.3383 12.5926 36.6667 12.9243 36.6667 13.3333C36.6667 13.7424 36.3383 14.0741 35.9333 14.0741H22.7333ZM38.1333 13.3333C38.1333 13.7424 38.4617 14.0741 38.8667 14.0741H40.3333C40.7383 14.0741 41.0667 13.7424 41.0667 13.3333C41.0667 12.9243 40.7383 12.5926 40.3333 12.5926H38.8667C38.4617 12.5926 38.1333 12.9243 38.1333 13.3333ZM22.7333 17.037C22.3284 17.037 22 16.7054 22 16.2963C22 15.8872 22.3284 15.5556 22.7333 15.5556H35.9333C36.3383 15.5556 36.6667 15.8872 36.6667 16.2963C36.6667 16.7054 36.3383 17.037 35.9333 17.037H22.7333ZM38.1333 16.2963C38.1333 16.7054 38.4617 17.037 38.8667 17.037H40.3333C40.7383 17.037 41.0667 16.7054 41.0667 16.2963C41.0667 15.8872 40.7383 15.5556 40.3333 15.5556H38.8667C38.4617 15.5556 38.1333 15.8872 38.1333 16.2963ZM22.7333 20C22.3284 20 22 19.6683 22 19.2593C22 18.8502 22.3284 18.5185 22.7333 18.5185H35.9333C36.3383 18.5185 36.6667 18.8502 36.6667 19.2593C36.6667 19.6683 36.3383 20 35.9333 20H22.7333ZM38.1333 19.2593C38.1333 19.6683 38.4617 20 38.8667 20H40.3333C40.7383 20 41.0667 19.6683 41.0667 19.2593C41.0667 18.8502 40.7383 18.5185 40.3333 18.5185H38.8667C38.4617 18.5185 38.1333 18.8502 38.1333 19.2593Z" fill="white"/>
</svg>
