<svg width="48" height="48" viewBox="0 0 48 48" fill="none" xmlns="http://www.w3.org/2000/svg">
<path fill-rule="evenodd" clip-rule="evenodd" d="M42.2539 25.5873C45.3207 25.5908 47.806 28.0761 47.8095 31.1429V47.0159C47.8095 47.4542 47.4541 47.8095 47.0158 47.8095H0.98408C0.545787 47.8095 0.19043 47.4542 0.19043 47.0159V32.7302C0.19043 32.2919 0.545787 31.9365 0.98408 31.9365H8.12694V31.1429C8.12694 29.8279 9.19291 28.7619 10.5079 28.7619H13.6825C14.9975 28.7619 16.0634 29.8279 16.0634 31.1429V31.9365H20.8253V31.1429C20.8288 28.0761 23.3141 25.5908 26.3809 25.5873H30.3492V24.7143C27.477 23.4117 25.444 20.7622 24.9293 17.6508H24C22.685 17.6508 21.619 16.5848 21.619 15.2699C21.619 13.9549 22.685 12.8889 24 12.8889H24.7936V7.33335C24.798 3.39029 27.9934 0.194856 31.9365 0.190491H43.8412V12.8889H44.6349C45.9499 12.8889 47.0158 13.9549 47.0158 15.2699C47.0158 16.5848 45.9499 17.6508 44.6349 17.6508H43.7055C43.1908 20.7622 41.1578 23.4117 38.2857 24.7143V25.5873H42.2539ZM30.3492 12.8889C31.6641 12.8889 32.7301 13.9549 32.7301 15.2699V16.0635H31.1428V15.2699C31.1428 14.8316 30.7875 14.4762 30.3492 14.4762C29.9109 14.4762 29.5555 14.8316 29.5555 15.2699V16.0635H27.9682V15.2699C27.9682 13.9549 29.0342 12.8889 30.3492 12.8889ZM38.2857 12.8889C39.6007 12.8889 40.6666 13.9549 40.6666 15.2699V16.0635H39.0793V15.2699C39.0793 14.8316 38.724 14.4762 38.2857 14.4762C37.8474 14.4762 37.492 14.8316 37.492 15.2699V16.0635H35.9047V15.2699C35.9047 13.9549 36.9707 12.8889 38.2857 12.8889ZM37.492 18.4445H35.9047V19.2381C35.9047 20.1148 35.1941 20.8254 34.3174 20.8254C33.4407 20.8254 32.7301 20.1148 32.7301 19.2381V18.4445H31.1428V19.2381C31.1428 20.9914 32.5641 22.4127 34.3174 22.4127C36.0707 22.4127 37.492 20.9914 37.492 19.2381V18.4445ZM44.6349 16.0635H43.8412V14.4762H44.6349C45.0732 14.4762 45.4285 14.8316 45.4285 15.2699C45.4285 15.7081 45.0732 16.0635 44.6349 16.0635ZM24.7936 14.4762H24C23.5617 14.4762 23.2063 14.8316 23.2063 15.2699C23.2063 15.7081 23.5617 16.0635 24 16.0635H24.7936V14.4762ZM37.8206 27.1746H40.6666L37.4063 31.5222L37.2595 31.3754L35.4396 29.5556L37.8206 27.1746ZM35.5761 31.9365L34.3174 30.6778L33.0587 31.9365L33.8523 32.7302H34.7825L35.5761 31.9365ZM34.3174 28.4333L33.0587 27.1746H35.5761L34.3174 28.4333ZM26.3809 7.33335V9.7143H32.7301C34.0451 9.7143 35.1111 8.64833 35.1111 7.33335V6.5397H42.2539V1.77779H31.9365C28.8697 1.78126 26.3844 4.26658 26.3809 7.33335ZM31.4317 23.4508C28.3793 22.2737 26.3701 19.3349 26.3809 16.0635V11.3016H32.7301C34.6152 11.2995 36.2395 9.97353 36.619 8.127H42.254L42.2539 16.0635C42.2647 19.3349 40.2555 22.2737 37.2031 23.4508C36.8989 23.5698 36.6985 23.863 36.6984 24.1897V25.5873H31.9365V24.1897C31.9364 23.863 31.736 23.5698 31.4317 23.4508ZM30.8142 27.1746H27.9682L31.2285 31.5222L31.3754 31.3754L33.1952 29.5556L30.8142 27.1746ZM9.71424 31.9365V31.1429C9.71424 30.7046 10.0696 30.3492 10.5079 30.3492H13.6825C14.1208 30.3492 14.4761 30.7046 14.4761 31.1429V31.9365H9.71424ZM22.4127 46.2222V40.6667H14.4761V43.0476C14.4761 43.4859 14.1208 43.8413 13.6825 43.8413H10.5079C10.0696 43.8413 9.71424 43.4859 9.71424 43.0476V40.6667H1.77773V46.2222H22.4127ZM12.8888 42.254H11.3015V40.6667H12.8888V42.254ZM22.4127 39.0794V33.5238H1.77773V39.0794H22.4127ZM33.3253 46.2222H24V32.7302C24 32.2919 23.6446 31.9365 23.2063 31.9365H22.4127V31.1429C22.4193 29.1005 23.978 27.3981 26.0119 27.2119L30.5079 33.2064C30.6455 33.3912 30.8567 33.507 31.0865 33.5238H31.1428C31.3533 33.5238 31.5551 33.4401 31.7039 33.2913L31.9365 33.0587L32.6738 33.796L31.1539 42.9167C31.118 43.1308 31.1714 43.3501 31.3015 43.5238L33.3253 46.2222ZM32.7753 42.8429L34.3174 44.8992L35.8595 42.8429L34.4388 34.3175H34.196L32.7753 42.8429ZM46.2222 31.1429V46.2222H35.3095L37.3333 43.5238C37.4634 43.3501 37.5168 43.1308 37.4809 42.9167L35.9611 33.796L36.6984 33.0587L36.9309 33.2913C37.0797 33.4401 37.2815 33.5238 37.492 33.5238H37.5484C37.7781 33.507 37.9893 33.3912 38.1269 33.2064L42.623 27.2119C44.6568 27.3981 46.2155 29.1005 46.2222 31.1429Z" fill="white"/>
</svg>
