<svg width="31" height="42" viewBox="0 0 31 42" fill="none" xmlns="http://www.w3.org/2000/svg">
<path fill-rule="evenodd" clip-rule="evenodd" d="M31 13.0922C31 20.3226 25.2353 26.1844 18.0977 26.1844H11.5171V28.9953H19.3965C20.0662 28.9953 20.6091 29.5462 20.6091 30.2257V35.4976C20.6091 36.1772 20.0662 36.7281 19.3965 36.7281H11.5172V40.7695C11.5172 41.4491 10.9743 42 10.3046 42H5.10918C4.43949 42 3.89655 41.4491 3.89655 40.7695V36.7282H1.21262C0.542931 36.7282 0 36.1773 0 35.4977V30.2258C0 29.5463 0.542931 28.9953 1.21262 28.9953H3.89655V26.1844H1.21262C0.542931 26.1844 0 25.6335 0 24.9539V19.682C0 19.0025 0.542931 18.4515 1.21262 18.4515H3.89655V1.23047C3.89655 0.550922 4.43949 0 5.10918 0H18.0977C25.2121 0 31 5.87311 31 13.0922ZM17.657 8H11V19H17.657C20.6031 19 23 16.5326 23 13.5C23 10.4674 20.6031 8 17.657 8Z" fill="white"/>
</svg>
