<svg width="40" height="48" viewBox="0 0 40 48" fill="none" xmlns="http://www.w3.org/2000/svg">
<path fill-rule="evenodd" clip-rule="evenodd" d="M39.9531 12.8365L39.9516 12.8C39.9312 12.3488 39.9176 11.8714 39.9093 11.3403C39.871 8.75036 37.8121 6.60802 35.2218 6.46324C29.8212 6.16185 25.6433 4.40081 22.0735 0.921379L22.0431 0.892351C20.8787 -0.175238 19.1223 -0.175238 17.9576 0.892351L17.9272 0.921379C14.3574 4.40081 10.1795 6.16185 4.77888 6.4636C2.18893 6.60802 0.129729 8.75036 0.0913833 11.3407C0.0834991 11.8682 0.0695226 12.3455 0.0490954 12.8L0.0469453 12.8849C-0.0580576 18.392 -0.188505 25.2458 2.10436 31.4668C3.36511 34.8878 5.27451 37.8616 7.77917 40.3061C10.6318 43.0899 14.3682 45.3 18.8844 46.8746C19.0313 46.9259 19.184 46.9675 19.3395 46.9986C19.5588 47.0424 19.7796 47.0642 20.0004 47.0642C20.2211 47.0642 20.4422 47.0424 20.6612 46.9986C20.8167 46.9675 20.9705 46.9255 21.1181 46.8739C25.6289 45.2964 29.3614 43.0852 32.2115 40.3018C34.7151 37.8566 36.6245 34.8821 37.8863 31.4604C40.1878 25.2208 40.0577 18.354 39.9531 12.8365ZM19.9996 35.2849C13.5447 35.2849 8.29343 30.0337 8.29343 23.5787C8.29343 17.1237 13.5447 11.8725 19.9996 11.8725C26.4543 11.8725 31.7058 17.1237 31.7058 23.5787C31.7058 30.0337 26.4543 35.2849 19.9996 35.2849ZM19.9996 14.6291C15.0645 14.6291 11.0497 18.6439 11.0497 23.5787C11.0497 28.5138 15.0645 32.5287 19.9996 32.5287C24.9344 32.5287 28.9493 28.5138 28.9493 23.5787C28.9493 18.6439 24.9344 14.6291 19.9996 14.6291ZM25.3132 21.8933L18.9016 28.3049C18.6325 28.574 18.2795 28.7088 17.9268 28.7088C17.5742 28.7088 17.2215 28.5744 16.9524 28.3049L14.5022 25.8547C13.9639 25.3168 13.9639 24.4442 14.5022 23.9059C15.0401 23.3676 15.9128 23.3676 16.451 23.9059L17.9268 25.3817L23.3644 19.9445C23.9023 19.4062 24.7749 19.4062 25.3132 19.9445C25.8515 20.4824 25.8515 21.355 25.3132 21.8933Z" fill="white"/>
</svg>
