<svg width="50" height="45" viewBox="0 0 50 45" fill="none" xmlns="http://www.w3.org/2000/svg">
<path fill-rule="evenodd" clip-rule="evenodd" d="M38.1449 19.031C38.1443 18.9933 38.1418 18.9556 38.1374 18.9177L38.1362 18.9066L38.1361 18.9064L38.1353 18.8985L38.1342 18.8898C38.1277 18.8439 38.119 18.7981 38.1067 18.7528L38.1062 18.7514C38.0947 18.7091 38.08 18.6674 38.0634 18.6261C38.0599 18.6172 38.056 18.6085 38.0521 18.5998L38.0484 18.5914C38.0353 18.5616 38.0208 18.5323 38.005 18.5034C37.9981 18.4908 37.9914 18.4782 37.984 18.4658C37.9822 18.4628 37.9806 18.4598 37.979 18.4568C37.977 18.453 37.975 18.4492 37.9727 18.4455C37.956 18.4187 37.9377 18.3936 37.9192 18.3687C37.9157 18.3641 37.9129 18.3592 37.9094 18.3547C37.8812 18.3178 37.8507 18.2836 37.8187 18.2512C37.8128 18.2451 37.8062 18.2394 37.8 18.2335C37.7722 18.2066 37.7435 18.1814 37.7134 18.1576L37.7081 18.1534C37.7023 18.1488 37.6965 18.1442 37.6904 18.1398C37.6502 18.1098 37.6088 18.0818 37.5656 18.0576L20.9375 8.54136L30.5114 2.47159L46.5619 11.657L39.8022 15.9426C39.2746 16.2769 39.1163 16.9786 39.4484 17.5097C39.7805 18.0408 40.4773 18.2002 41.0049 17.8658L49.3599 12.5689C49.6958 12.356 49.8959 11.9811 49.8869 11.5816C49.878 11.182 49.6614 10.8168 49.3163 10.6193L31.0394 0.159543C30.6779 -0.0475023 30.2324 -0.0372751 29.8803 0.185793L18.1471 7.62454L18.1399 7.62909L12.2768 11.3462L12.2687 11.3514L0.527551 18.7952C0.191659 19.0081 -0.00845353 19.383 0.000575811 19.7825C0.00949229 20.182 0.226084 20.5473 0.57123 20.7448L18.8482 31.2045C19.0213 31.3037 19.2137 31.3531 19.4059 31.3531C19.615 31.3531 19.8238 31.2945 20.0072 31.1783L28.3623 25.8812C28.8899 25.5469 29.0482 24.8452 28.716 24.3142C28.3841 23.7831 27.687 23.6235 27.1596 23.9581L19.3762 28.8926L3.32575 19.7069L12.8998 13.637L30.0183 23.4339V36.4091C30.0183 36.823 30.2417 37.204 30.6015 37.404C30.7716 37.4985 30.9594 37.5455 31.147 37.5455C31.3562 37.5455 31.565 37.4869 31.7483 37.3707L37.619 33.6487C37.9472 33.4407 38.1463 33.0776 38.1463 32.6872V19.0508L38.1461 19.0459L38.1456 19.0399L38.1456 19.0397L38.1451 19.0338L38.1449 19.031ZM35.8888 32.06L32.2756 34.3508V22.7728C32.2756 22.3641 32.0576 21.9869 31.7046 21.785L15.0668 12.2633L18.7703 9.91523L34.8207 19.1008L33.4154 19.9917C32.8878 20.326 32.7295 21.0277 33.0616 21.5587C33.2761 21.9019 33.6428 22.0898 34.0178 22.0898C34.2233 22.0898 34.4314 22.0333 34.6181 21.9149L35.8888 21.1093V32.06ZM48.1573 15.191C48.6848 14.8565 49.3817 15.016 49.7138 15.5472C50.0459 16.0782 49.8876 16.7799 49.3601 17.1142L41.005 22.4111C40.8183 22.5295 40.6102 22.586 40.4048 22.586C40.0297 22.586 39.663 22.3982 39.4485 22.055C39.1164 21.524 39.2747 20.8223 39.8023 20.488L48.1573 15.191ZM28.7159 28.8597C28.384 28.3284 27.6869 28.1689 27.1595 28.5034L19.3761 33.438L1.68658 23.3144C1.14505 23.0044 0.455655 23.1949 0.147641 23.7408C-0.160372 24.2864 0.0291311 24.9801 0.571118 25.2902L18.8481 35.75C19.0212 35.8492 19.2136 35.8985 19.4058 35.8985C19.6149 35.8985 19.8237 35.84 20.0071 35.7237L28.3622 30.4267C28.8897 30.0924 29.0481 29.3907 28.7159 28.8597ZM48.1573 19.7365C48.6848 19.4019 49.3817 19.5614 49.7138 20.0926C50.0459 20.6236 49.8876 21.3253 49.3601 21.6597L41.005 26.9566C40.8183 27.075 40.6102 27.1315 40.4048 27.1315C40.0297 27.1315 39.663 26.9436 39.4485 26.6005C39.1164 26.0694 39.2747 25.3677 39.8023 25.0334L48.1573 19.7365ZM28.7159 33.4051C28.384 32.8737 27.6869 32.7143 27.1595 33.0489L19.3761 37.9834L1.68658 27.8599C1.14505 27.5499 0.455655 27.7403 0.147641 28.2862C-0.160372 28.8318 0.0291311 29.5256 0.571118 29.8357L18.8481 40.2955C19.0212 40.3947 19.2136 40.444 19.4058 40.444C19.6149 40.444 19.8237 40.3855 20.0071 40.2692L28.3622 34.9722C28.8897 34.6378 29.0481 33.9361 28.7159 33.4051ZM48.1573 24.2819C48.6848 23.9475 49.3817 24.1069 49.7138 24.6381C50.0459 25.1691 49.8876 25.8708 49.3601 26.2051L41.005 31.502C40.8183 31.6205 40.6102 31.6769 40.4048 31.6769C40.0297 31.6769 39.663 31.4891 39.4485 31.1459C39.1164 30.6149 39.2747 29.9132 39.8023 29.5789L48.1573 24.2819ZM28.7159 37.9506C28.384 37.4193 27.6869 37.2598 27.1595 37.5943L19.3761 42.5289L1.68658 32.4053C1.14505 32.0953 0.455655 32.2858 0.147641 32.8317C-0.160372 33.3773 0.0291311 34.071 0.571118 34.3811L18.8481 44.8409C19.0212 44.9401 19.2136 44.9894 19.4058 44.9894C19.6149 44.9894 19.8237 44.9309 20.0071 44.8147L28.3622 39.5176C28.8897 39.1833 29.0481 38.4816 28.7159 37.9506Z" fill="white"/>
</svg>
