<svg width="44" height="54" viewBox="0 0 44 54" fill="none" xmlns="http://www.w3.org/2000/svg">
<path fill-rule="evenodd" clip-rule="evenodd" d="M35.8978 7.15869C35.8977 5.20056 34.3076 3.60756 32.353 3.60756H25.8562C25.5031 2.56025 24.5137 1.80383 23.3506 1.80383H21.5032C20.6692 0.680379 19.3484 0 17.949 0C16.5497 0 15.2287 0.680379 14.3948 1.80373H12.5475C11.3843 1.80373 10.3949 2.56015 10.0418 3.60745H3.54474C1.59013 3.60745 0 5.20056 0 7.15859V45.0375C0 46.9956 1.59024 48.5886 3.54474 48.5886H21.5499C22.0159 48.5886 22.3939 48.2101 22.3939 47.7431C22.3939 47.2762 22.0161 46.8975 21.5499 46.8975H3.54474C2.52091 46.8975 1.68794 46.0631 1.68794 45.0374V7.15869C1.68794 6.13301 2.52091 5.29854 3.54474 5.29854H9.90297V8.06055C9.90297 8.52746 10.2808 8.9061 10.747 8.9061H25.1511C25.6171 8.9061 25.9951 8.52757 25.9951 8.06055V5.29854H32.353C33.3768 5.29854 34.2098 6.13301 34.2098 7.15869V31.5094C34.2098 31.9763 34.5876 32.355 35.0538 32.355C35.5199 32.355 35.8978 31.9764 35.8978 31.5094V7.15869ZM24.3072 4.45954V7.21501H11.591V4.45627L11.5911 4.453L11.591 4.45141C11.592 3.92365 12.0205 3.49471 12.5475 3.49471H14.8474C15.1479 3.49471 15.4257 3.33471 15.5769 3.07441C16.0802 2.2082 16.967 1.69098 17.949 1.69098C18.9311 1.69098 19.8178 2.2082 20.3212 3.07441C20.4722 3.33461 20.7502 3.49471 21.0506 3.49471H23.3506C23.8769 3.49471 24.3051 3.9228 24.307 4.44973L24.3069 4.453L24.3071 4.45717L24.3072 4.45954ZM21.5497 43.2902C22.0158 43.2902 22.3937 43.6687 22.3938 44.1357C22.3938 44.6027 22.0158 44.9813 21.5498 44.9813H4.44509C3.97892 44.9813 3.60107 44.6026 3.60107 44.1357V8.06055C3.60107 7.59354 3.97902 7.21501 4.44509 7.21501H7.14613C7.61231 7.21501 7.99015 7.59354 7.99015 8.06055C7.99015 8.52757 7.6122 8.9061 7.14613 8.9061H5.28901V43.2902H21.5497ZM32.2969 8.06055C32.2968 7.59364 31.9188 7.21501 31.4527 7.21501H28.752C28.2859 7.21501 27.908 7.59354 27.908 8.06055C27.908 8.52757 28.2858 8.9061 28.752 8.9061H30.6088V31.5092C30.6088 31.9761 30.9867 32.3548 31.4528 32.3548C31.919 32.3548 32.2969 31.9762 32.2969 31.5092V8.06055ZM34.1535 34.2714C39.5829 34.2714 44 38.6965 44 44.1357C44 49.575 39.5828 54 34.1535 54C28.7241 54 24.3069 49.575 24.3069 44.1357C24.3069 38.6965 28.724 34.2714 34.1535 34.2714ZM42.3121 44.1357C42.3121 48.6425 38.6522 52.309 34.1535 52.309C29.6548 52.309 25.9949 48.6425 25.9949 44.1357C25.9949 39.6289 29.6548 35.9624 34.1535 35.9624C38.6521 35.9624 42.3121 39.6289 42.3121 44.1357ZM17.9581 3.60756C18.4242 3.60756 18.8021 3.98609 18.802 4.4531C18.802 4.92012 18.424 5.29864 17.958 5.29864C17.4918 5.29864 17.1095 4.92001 17.1095 4.4531C17.1095 3.98609 17.483 3.60756 17.949 3.60756H17.9581ZM39.2515 42.028C39.5811 41.6977 39.5811 41.1623 39.2516 40.8322C38.9221 40.502 38.3876 40.502 38.0581 40.8322L32.353 46.5476L29.3487 43.5379C29.0191 43.2077 28.4847 43.2077 28.1552 43.5379C27.8256 43.8681 27.8256 44.4035 28.1552 44.7336L31.7563 48.3412C31.921 48.5062 32.1371 48.5888 32.353 48.5888C32.5689 48.5888 32.7849 48.5063 32.9497 48.3412L39.2515 42.028ZM14.2916 18.7006C15.9104 19.1934 17.8926 20.0071 17.8927 22.1242C17.8927 23.6189 16.367 24.8265 14.2916 25.087V25.1963C14.2916 25.6633 13.9138 26.0418 13.4476 26.0418C12.9814 26.0418 12.6036 25.6632 12.6036 25.1963V25.087C10.5282 24.8264 9.00251 23.6188 9.00251 22.1242C9.00251 21.6572 9.38036 21.2786 9.84654 21.2786C10.3127 21.2786 10.6906 21.6573 10.6906 22.1242C10.6906 22.5673 11.4145 23.1741 12.6036 23.3781V19.9674C10.9848 19.4746 9.00251 18.661 9.00251 16.5438C9.00251 15.0491 10.5282 13.8415 12.6036 13.581V13.4717C12.6036 13.0047 12.9814 12.6262 13.4476 12.6262C13.9138 12.6262 14.2916 13.0048 14.2916 13.4717V13.581C16.367 13.8416 17.8927 15.0492 17.8927 16.5438C17.8927 17.0108 17.5149 17.3894 17.0487 17.3894C16.5825 17.3894 16.2047 17.0107 16.2047 16.5438C16.2047 16.1008 15.4808 15.4939 14.2916 15.2899V18.7006ZM12.6036 15.2911V18.184C11.1798 17.6869 10.6906 17.2387 10.6906 16.5438C10.6906 16.2765 10.926 15.9812 11.3363 15.7338C11.6831 15.5248 12.1231 15.3737 12.6036 15.2911ZM15.5589 22.9342C15.9692 22.6869 16.2047 22.3916 16.2047 22.1242C16.2047 21.4294 15.7154 20.9811 14.2916 20.484V23.3769C14.7721 23.2944 15.2121 23.1432 15.5589 22.9342ZM26.8952 15.2756C26.8952 14.8086 26.5174 14.43 26.0512 14.43H21.5499C21.0838 14.43 20.7059 14.8086 20.7059 15.2756C20.7059 15.7426 21.0837 16.1211 21.5499 16.1211H26.0512C26.5173 16.1211 26.8952 15.7426 26.8952 15.2756ZM24.2507 18.0376C24.7168 18.0376 25.0947 18.4161 25.0947 18.8831C25.0947 19.3501 24.7168 19.7287 24.2507 19.7287H21.55C21.0838 19.7287 20.706 19.3501 20.706 18.8831C20.706 18.4161 21.0839 18.0376 21.55 18.0376H24.2507ZM26.8952 22.4907C26.8952 22.0237 26.5174 21.6451 26.0512 21.6451H21.5499C21.0838 21.6451 20.7059 22.0237 20.7059 22.4907C20.7059 22.9577 21.0837 23.3362 21.5499 23.3362H26.0512C26.5173 23.3362 26.8952 22.9577 26.8952 22.4907ZM11.6471 29.762C12.1132 29.762 12.4911 30.1405 12.4911 30.6076C12.4911 31.0746 12.1132 31.4531 11.6471 31.4531H9.84664C9.38047 31.4531 9.00262 31.0746 9.00262 30.6076C9.00262 30.1405 9.38057 29.762 9.84664 29.762H11.6471ZM12.4911 37.8226C12.4911 37.3556 12.1132 36.977 11.6471 36.977H9.84664C9.38057 36.977 9.00262 37.3556 9.00262 37.8226C9.00262 38.2896 9.38047 38.6681 9.84664 38.6681H11.6471C12.1132 38.6681 12.4911 38.2896 12.4911 37.8226ZM11.6471 33.3696C12.1132 33.3696 12.4911 33.7481 12.4911 34.2151C12.4911 34.6821 12.1132 35.0607 11.6471 35.0607H9.84664C9.38047 35.0607 9.00262 34.6821 9.00262 34.2151C9.00262 33.7481 9.38057 33.3696 9.84664 33.3696H11.6471ZM26.8952 30.6076C26.8952 30.1405 26.5174 29.762 26.0512 29.762H15.2481C14.782 29.762 14.4041 30.1405 14.4041 30.6076C14.4041 31.0746 14.7819 31.4531 15.2481 31.4531H26.0512C26.5173 31.4531 26.8952 31.0746 26.8952 30.6076ZM23.3505 36.977C23.8165 36.977 24.1945 37.3556 24.1945 37.8226C24.1945 38.2896 23.8165 38.6681 23.3505 38.6681H15.2482C14.782 38.6681 14.4042 38.2896 14.4042 37.8226C14.4042 37.3556 14.7821 36.977 15.2482 36.977H23.3505ZM26.8952 34.2151C26.8952 33.7481 26.5174 33.3696 26.0512 33.3696H15.2481C14.782 33.3696 14.4041 33.7481 14.4041 34.2151C14.4041 34.6821 14.7819 35.0607 15.2481 35.0607H26.0512C26.5173 35.0607 26.8952 34.6821 26.8952 34.2151Z" fill="white"/>
</svg>
