<svg width="54" height="34" viewBox="0 0 54 34" fill="none" xmlns="http://www.w3.org/2000/svg">
<path fill-rule="evenodd" clip-rule="evenodd" d="M1.08197 29H3.85239C4.38798 29 4.8624 28.6171 4.93161 28.0898C5.35627 24.86 7.9514 22.8569 11.0907 22.8569C14.23 22.8569 16.8251 24.8601 17.2498 28.0898C17.319 28.6171 17.7929 29 18.329 29H31.918C32.5153 29 33 28.5188 33 27.9259V1.07407C33 0.481227 32.5152 0 31.918 0H1.08197C0.484145 0 0 0.481227 0 1.07407V27.9259C0 28.5189 0.484145 29 1.08197 29ZM44.0581 6H36.0857C35.4858 6 35 6.4793 35 7.06977V27.9302C35 28.5207 35.4858 29 36.0857 29H37.2372C37.7746 29 38.2507 28.6186 38.3201 28.0934C38.7463 24.8766 41.3504 22.8815 44.5006 22.8815C47.6508 22.8815 50.2549 24.8767 50.681 28.0934C50.7505 28.6187 51.226 29 51.764 29H52.9143C53.5136 29 54 28.5207 54 27.9302V17.5C54 17.2486 53.9104 17.0058 53.747 16.8137L44.8908 6.38351C44.6846 6.14071 44.3795 6 44.0581 6ZM37.1714 14.5581V9.2093C37.1714 8.61883 37.6573 8.13953 38.2572 8.13953H43.0397C43.3616 8.13953 43.6673 8.28077 43.8735 8.52462L48.3972 13.8735C48.9862 14.5704 48.4835 15.6279 47.5629 15.6279H38.2572C37.6573 15.6279 37.1714 15.1492 37.1714 14.5581ZM44.5 25C42.0187 25 40 27.0192 40 29.5C40 31.9813 42.0187 34 44.5 34C46.9808 34 49 31.9813 49 29.5C49 27.0192 46.9808 25 44.5 25ZM44.5 30.8235C43.77 30.8235 43.1765 30.23 43.1765 29.5C43.1765 28.77 43.77 28.1765 44.5 28.1765C45.23 28.1765 45.8235 28.77 45.8235 29.5C45.8235 30.23 45.23 30.8235 44.5 30.8235ZM11.5 25C9.01869 25 7 27.0192 7 29.5C7 31.9813 9.01869 34 11.5 34C13.9808 34 16 31.9813 16 29.5C16 27.0192 13.9808 25 11.5 25ZM11.5 30.8235C10.77 30.8235 10.1765 30.23 10.1765 29.5C10.1765 28.77 10.77 28.1765 11.5 28.1765C12.23 28.1765 12.8235 28.77 12.8235 29.5C12.8235 30.23 12.23 30.8235 11.5 30.8235Z" fill="white"/>
</svg>
