<svg width="24" height="24" viewBox="0 0 24 24" fill="none" xmlns="http://www.w3.org/2000/svg">
<path d="M23.8924 19.1341L23.7726 18.7695C23.4914 17.9309 22.5644 17.0559 21.7103 16.8214L18.5569 15.9593C17.7029 15.7275 16.4842 16.0401 15.8568 16.6677L14.7162 17.8085C10.5707 16.686 7.31837 13.4331 6.19862 9.2868L7.3392 8.14601C7.96415 7.52095 8.27662 6.30207 8.04489 5.44524L7.18546 2.29124C6.95373 1.43699 6.07355 0.509809 5.23512 0.22853L4.87573 0.108684C4.03463 -0.172595 2.83423 0.111268 2.20928 0.738999L0.50109 2.44751C0.196448 2.74962 0.00113062 3.61688 0.00113062 3.61955C-0.056198 9.04202 2.06871 14.2639 5.90173 18.1002C9.72434 21.9235 14.9271 24.0462 20.3302 23.9992C20.3589 23.9992 21.2521 23.8091 21.5567 23.5044L23.2649 21.7958C23.8898 21.1734 24.171 19.9727 23.8924 19.1341Z" fill="#393939"/>
</svg>
