<svg width="111" height="16" viewBox="0 0 111 16" fill="none" xmlns="http://www.w3.org/2000/svg">
<path fill-rule="evenodd" clip-rule="evenodd" d="M11 10C12.1046 10 13 9.10457 13 8C13 6.89543 12.1046 6 11 6C9.89543 6 9 6.89543 9 8C9 9.10457 9.89543 10 11 10Z" fill="#F8355E"/>
<path fill-rule="evenodd" clip-rule="evenodd" d="M93 10C94.1046 10 95 9.10457 95 8C95 6.89543 94.1046 6 93 6C91.8954 6 91 6.89543 91 8C91 9.10457 91.8954 10 93 10Z" fill="#F8355E"/>
<path fill-rule="evenodd" clip-rule="evenodd" d="M26.7005 4.08608L28.3557 1.51506C26.4845 0.160689 24.6853 0 23.6058 0C22.0944 0 20.775 0.298422 19.6475 1.40029C18.6879 2.34146 18.2561 3.46628 18.2561 4.84362C18.2561 5.57819 18.3761 6.6571 19.2157 7.50646C19.8634 8.14921 20.703 8.47059 21.4467 8.7231L22.7662 9.15925C22.8679 9.20024 22.9959 9.24695 23.1382 9.29886L23.1385 9.29897L23.1385 9.29898L23.1387 9.29904L23.1388 9.29906C23.634 9.47972 24.302 9.7234 24.6373 10.0086C24.9972 10.2841 25.1891 10.5825 25.1891 11.1105C25.1891 11.6844 24.9252 12.0976 24.6134 12.3501C24.0616 12.7862 23.4139 12.878 22.9341 12.878C22.2144 12.878 21.5427 12.6944 20.919 12.3271C20.4632 12.0746 19.8394 11.5466 19.4316 11.1564L17.5124 13.6815C18.1122 14.2554 19.0238 14.967 19.8634 15.3572C20.895 15.8393 21.8785 16 23.03 16C24.0616 16 26.1727 15.8393 27.5641 14.439C28.4037 13.6126 28.9795 12.2353 28.9795 10.6514C28.9795 9.7561 28.7396 8.65423 27.804 7.80488C27.1563 7.23099 26.3166 6.88666 25.6209 6.63415L24.4214 6.19799C24.1995 6.11775 23.9998 6.04818 23.8193 5.9853C23.1221 5.74237 22.7112 5.59921 22.4063 5.32568C22.1664 5.11908 22.0465 4.84362 22.0465 4.47633C22.0465 4.08608 22.1904 3.76471 22.4543 3.5122C22.9101 3.05308 23.5098 2.98422 24.0136 2.98422C24.4694 2.98422 25.501 3.05308 26.7005 4.08608ZM3.6944 0.344333H0V15.6557H3.6944V0.344333ZM40.7344 3.32855H37.2559V15.6557H33.5615V3.32855H30.083V0.344333H40.7344V3.32855ZM56.8554 2.22669C55.2481 0.734577 53.185 0 50.6661 0C47.4755 0 45.4843 1.21664 44.4048 2.24964C42.9654 3.62697 41.9339 5.85366 41.9339 8.05739C41.9339 10.33 42.8934 12.373 44.4288 13.7504C45.6523 14.8522 47.6434 16 50.6661 16C53.3769 16 55.3441 15.1277 56.8554 13.7504C58.5827 12.1205 59.3503 10.0545 59.3503 8.01148C59.3503 5.6241 58.3907 3.62697 56.8554 2.22669ZM50.6421 3.25968C49.2267 3.25968 48.0032 3.74175 47.1396 4.56815C46.4439 5.2109 45.7242 6.31277 45.7242 8.03443C45.7242 9.41176 46.204 10.5595 47.1876 11.4778C48.2192 12.4189 49.3707 12.7403 50.6181 12.7403C52.2494 12.7403 53.4009 12.1664 54.1686 11.4319C54.8163 10.858 55.56 9.77905 55.56 8.01148C55.56 6.42755 54.9123 5.27977 54.1686 4.56815C53.3769 3.83357 52.1055 3.25968 50.6421 3.25968ZM67.7227 0.344333H62.1091V15.6557H65.8035V9.61836L70.1217 15.6557H74.6317L69.7139 9.38881C70.6015 9.18221 71.3931 8.74605 71.9449 8.21808C72.9764 7.23099 73.1924 6.08321 73.1924 5.09613C73.1924 3.37446 72.4727 2.29555 71.8009 1.67575C71.0333 0.964132 69.7618 0.344333 67.7227 0.344333ZM65.8035 3.099V7.29986H66.6432C67.3149 7.29986 68.2025 7.25395 68.8502 6.63415C69.1141 6.38164 69.45 5.89957 69.45 5.14204C69.45 4.24677 69.0182 3.83357 68.7063 3.58106C68.1065 3.14491 67.147 3.099 66.6672 3.099H65.8035ZM85.7149 3.32855V0.344333H76.6708V15.6557H85.7149V12.6714H80.3652V9.27403H85.451V6.28981H80.3652V3.32855H85.7149ZM99.9648 0.344333H103.659V15.6557H99.9648V0.344333ZM111 0.344333H107.306V15.6557H111V0.344333Z" fill="#30373D"/>
</svg>
