<svg width="50" height="46" viewBox="0 0 50 46" fill="none" xmlns="http://www.w3.org/2000/svg">
<path fill-rule="evenodd" clip-rule="evenodd" d="M18.66 0H3.34C1.49765 0.0054914 0.0054914 1.49765 0 3.34V42.66C0.0109994 44.5079 1.51211 46 3.36 46H18.64C20.4879 46 21.989 44.5079 22 42.66V3.34C21.9945 1.49765 20.5024 0.0054914 18.66 0ZM13.5 1.13C13.6545 1.12593 13.7961 1.21589 13.8581 1.35752C13.9201 1.49914 13.8901 1.6642 13.7823 1.77496C13.6744 1.88573 13.5102 1.92011 13.367 1.86193C13.2238 1.80375 13.1301 1.66459 13.13 1.51C13.1273 1.41015 13.1651 1.31345 13.2348 1.24188C13.3045 1.17032 13.4001 1.12996 13.5 1.13ZM9.46 1.26C9.34402 1.26 9.25 1.35402 9.25 1.47V1.54C9.25 1.65598 9.34402 1.75 9.46 1.75H12.53C12.646 1.75 12.74 1.65598 12.74 1.54V1.47C12.74 1.35402 12.646 1.26 12.53 1.26H9.46ZM21 43C21 44.1046 20.1046 45 19 45H3C1.89543 45 1 44.1046 1 43V3C1 1.89543 1.89543 1 3 1H4.5C4.66 1 4.96 1.14 4.99 1.42V2.07C5.00612 2.35308 5.14165 2.616 5.36287 2.79336C5.58408 2.97071 5.87019 3.04582 6.15 3H15.86C16.1367 3.03963 16.4173 2.96166 16.6339 2.78497C16.8505 2.60828 16.9833 2.34901 17 2.07V1.4C17 1.12 17.33 1.02 17.49 1H19C20.1046 1 21 1.89543 21 3V43ZM32 46H21.65C22.0035 45.716 22.3105 45.3786 22.56 45H32.2C33.1918 44.9945 33.9945 44.1918 34 43.2V7.8C33.9945 6.80816 33.1918 6.00546 32.2 6H30.44C30.29 6.02 30 6.11 30 6.36V7.17C29.9525 7.67505 29.5052 8.04634 29 8H23V5H32C33.6569 5 35 6.34315 35 8V43C35 44.6569 33.6569 46 32 46ZM26.75 6.75C26.8881 6.75 27 6.63807 27 6.5C27 6.36193 26.8881 6.25 26.75 6.25H24.25C24.1119 6.25 24 6.36193 24 6.5C24 6.63807 24.1119 6.75 24.25 6.75H26.75ZM47.13 8H36V12H49V42H36V43C35.9935 44.1521 35.4906 45.2454 34.62 46H47.13C48.7359 45.9303 50.0015 44.6074 50 43V10.88C49.9946 9.29558 48.7144 8.01096 47.13 8ZM42 10.5H39V10H42V10.5ZM39 44C39 44.8284 39.6716 45.5 40.5 45.5C41.3284 45.5 42 44.8284 42 44C42 43.1716 41.3284 42.5 40.5 42.5C39.6716 42.5 39 43.1716 39 44Z" fill="url(#paint0_linear)"/>
<defs>
<linearGradient id="paint0_linear" x1="30.7008" y1="79.4894" x2="75.7816" y2="19.3147" gradientUnits="userSpaceOnUse">
<stop stop-color="#FFA260"/>
<stop offset="1" stop-color="#FF548C"/>
</linearGradient>
</defs>
</svg>
