<svg width="64" height="64" viewBox="0 0 64 64" fill="none" xmlns="http://www.w3.org/2000/svg">
<path fill-rule="evenodd" clip-rule="evenodd" d="M53.897 35.2975L59.297 28.9807C62.3162 25.4485 63.9741 20.9709 63.9756 16.3432C63.9648 7.32121 56.582 0.010234 47.4719 0H43.7962C41.5477 0.0886947 39.3199 0.460043 37.1664 1.10576C26.8038 4.03902 23.8216 14.0147 23.6995 14.4377L23.3639 15.6034L24.5834 15.7033C24.7546 15.7184 25.95 15.8144 27.6926 15.8432V18.6907L23.3186 27.3925L27.6926 29.5607V36.9282H35.7555V45.6115L25.6768 60.5823V63.8757H27.6926V61.1808L37.3116 46.8927C39.6127 46.8405 41.9025 46.5564 44.1456 46.0442L46.6402 53.458L37.7712 58.8255V63.8757H39.7869V59.9454L47.8498 55.0647L55.9127 59.9454V63.8757H57.9284V58.8255L48.6894 53.2363L46.1052 45.5593C48.338 44.9389 50.5151 44.1378 52.615 43.1641L61.9599 54.401V63.8757H63.9756V53.6856L53.897 41.5612V35.2975ZM51.8813 41.2947C47.4615 43.3975 42.6668 44.6188 37.7712 44.8878V36.9282H39.1944L43.4271 33.7342L42.2037 32.1474L38.5128 34.932H29.7083V28.3267L26.0194 26.5002L29.7083 19.1629V15.8442C34.2545 15.7652 40.6417 15.1127 43.8184 12.3149V17.965H45.8341C46.9473 17.965 47.8498 18.8588 47.8498 19.9612V23.1771C47.8164 23.9977 47.3793 24.7502 46.6796 25.1912C45.5162 26.007 44.8248 27.3321 44.8262 28.7439V30.4559L51.8813 35.4462V41.2947ZM46.842 28.7439V29.4276L52.7198 33.5855L57.7592 27.6903C60.4697 24.5187 61.9584 20.4982 61.9599 16.3432C61.951 8.42307 55.4698 2.00489 47.4719 1.99612H43.8302C41.7569 2.08091 39.7023 2.42594 37.7166 3.02293C30.4593 5.08094 27.1744 11.2072 26.0799 13.8022C30.8421 14.0289 40.2613 13.7301 43.0261 10.2511C43.5521 9.61167 43.8326 8.80903 43.8184 7.98447H45.8341V15.9689C48.0604 15.9689 49.8655 17.7565 49.8655 19.9612V23.1771C49.8375 24.6483 49.0801 26.0114 47.8405 26.8228C47.213 27.2648 46.8405 27.9812 46.842 28.7439Z" fill="black"/>
<path fill-rule="evenodd" clip-rule="evenodd" d="M17.6917 63.2909L0.0629883 45.8336L4.434 41.5051L22.0627 58.9624L17.6917 63.2909ZM2.91335 45.8336L17.6917 60.4682L19.2124 58.9624L4.434 44.3278L2.91335 45.8336Z" fill="black"/>
<path d="M7.53534 38.9243H9.55106V40.9204H7.53534V38.9243Z" fill="black"/>
<path d="M19.8433 21.8398L23.8595 17.3646L25.3653 18.6902L21.3491 23.1654L19.8433 21.8398Z" fill="black"/>
<path d="M13.8168 28.5538L17.8344 24.0781L19.3403 25.4037L15.3227 29.8793L13.8168 28.5538Z" fill="black"/>
<path d="M7.79028 35.2678L11.8075 30.7921L13.3133 32.1177L9.29568 36.5933L7.79028 35.2678Z" fill="black"/>
<path d="M20.3876 33.2556L25.2546 31.0323L26.0991 32.8452L21.2321 35.0684L20.3876 33.2556Z" fill="black"/>
<path d="M12.1529 37.0198L17.6445 34.5095L18.4889 36.3219L12.9979 38.8322L12.1529 37.0198Z" fill="black"/>
<path d="M20.5091 40.1114L26.5317 39.5685L26.7142 41.5563L20.6922 42.0992L20.5091 40.1114Z" fill="black"/>
<path d="M29.5415 39.2981L33.6478 38.9287L33.8303 40.9165L29.7241 41.2859L29.5415 39.2981Z" fill="black"/>
<path d="M11.4753 40.9233L17.4978 40.3813L17.6804 42.3692L11.6579 42.9111L11.4753 40.9233Z" fill="black"/>
</svg>
