<svg width="64" height="64" viewBox="0 0 64 64" fill="none" xmlns="http://www.w3.org/2000/svg">
<path d="M60.7372 0H56.4914C55.8992 0 55.419 0.480214 55.419 1.07287C55.419 1.66504 55.8992 2.14525 56.4914 2.14525H60.7372C61.3539 2.14574 61.8543 2.64609 61.8548 3.2628V7.50863C61.8548 8.10079 62.335 8.58101 62.9271 8.58101C63.5198 8.58101 64 8.10079 64 7.50863V3.2628C63.998 1.46176 62.5383 0.00196407 60.7372 0Z" fill="black"/>
<path d="M62.9271 55.4189C62.335 55.4189 61.8548 55.8992 61.8548 56.4913V60.7371C61.8543 61.3539 61.3539 61.8542 60.7372 61.8547H56.4914C55.8992 61.8547 55.419 62.3349 55.419 62.9271C55.419 63.5197 55.8992 64 56.4914 64H60.7372C62.5383 63.998 63.998 62.5382 64 60.7371V56.4913C64 55.8992 63.5198 55.4189 62.9271 55.4189Z" fill="black"/>
<path d="M1.07287 8.58101C1.66504 8.58101 2.14525 8.10079 2.14525 7.50863V3.2628C2.14574 2.64609 2.64609 2.14574 3.2628 2.14525H7.50863C8.10079 2.14525 8.58101 1.66504 8.58101 1.07287C8.58101 0.480214 8.10079 0 7.50863 0H3.2628C1.46176 0.00196407 0.00196407 1.46176 0 3.2628V7.50863C0 8.10079 0.480214 8.58101 1.07287 8.58101Z" fill="black"/>
<path d="M3.2628 64.0001H7.50863C8.10079 64.0001 8.58101 63.5281 8.58101 62.9455C8.58101 62.3635 8.10079 61.8915 7.50863 61.8915H3.2628C2.64609 61.891 2.14574 61.3992 2.14525 60.793V56.8307C2.14525 56.2486 1.66504 55.7766 1.07287 55.7766C0.480214 55.7766 0 56.2486 0 56.8307V60.793C0.00196407 62.5633 1.46176 63.9981 3.2628 64.0001Z" fill="black"/>
<path d="M15.0221 52.9163C15.2321 52.9163 15.4376 52.8554 15.6126 52.7408C16.1037 52.4191 16.5845 52.0833 17.054 51.7323C17.5235 51.3819 17.9817 51.0188 18.4276 50.6444C18.8735 50.2671 19.3081 49.8767 19.7314 49.4731C20.1547 49.0691 20.5647 48.6552 20.961 48.2312C21.3577 47.8056 21.7432 47.3655 22.1124 46.9161C22.4821 46.4672 22.8419 46.0051 23.1866 45.5323C23.5312 45.0595 23.8586 44.5735 24.1733 44.0842C24.4879 43.5943 24.7888 43.0874 25.0725 42.5751C25.3561 42.0628 25.6265 41.5403 25.8812 41.0066C26.1354 40.4733 26.3708 39.9357 26.6004 39.3659L26.7553 38.9579C26.948 38.4115 26.6643 37.8125 26.1172 37.6097C25.57 37.4069 24.9599 37.6745 24.7436 38.2126L24.5975 38.5992C24.3925 39.1071 24.1679 39.6086 23.9402 40.0985C23.7126 40.5884 23.455 41.0748 23.1885 41.551C22.9221 42.0267 22.6517 42.4913 22.3572 42.947C22.0632 43.4027 21.7594 43.8517 21.4423 44.2884C21.1257 44.7251 20.7978 45.1531 20.4477 45.5659C20.0977 45.9793 19.7486 46.3892 19.3804 46.7845C19.0117 47.1793 18.6287 47.5649 18.2428 47.9363C17.8573 48.3082 17.4473 48.6699 17.0339 49.0193C16.6204 49.3683 16.1947 49.7051 15.761 50.0288C15.3269 50.3524 14.8825 50.6678 14.4273 50.9603C14.031 51.2196 13.853 51.7055 13.9897 52.1564C14.1264 52.6068 14.5453 52.9153 15.0202 52.9143L15.0221 52.9163Z" fill="black"/>
<path d="M41.0459 27.4476C40.997 27.2056 40.9393 26.966 40.8621 26.7268C40.7854 26.4877 40.7043 26.2604 40.6104 26.036C40.5166 25.8121 40.4096 25.5921 40.2967 25.3829C40.1819 25.1698 40.0573 24.9631 39.9219 24.7628C39.7875 24.5625 39.6433 24.3695 39.4948 24.1849C39.3462 24.0002 39.181 23.821 39.011 23.6487C38.8414 23.4758 38.664 23.3158 38.4773 23.1636C38.2907 23.0114 38.1015 22.8665 37.9021 22.7344C37.7023 22.6028 37.4985 22.4742 37.2869 22.3583C37.0758 22.2424 36.8603 22.1374 36.6369 22.0441C36.4102 21.9468 36.179 21.8619 35.944 21.7887C35.7094 21.7151 35.4709 21.6537 35.23 21.6051C34.9827 21.554 34.7335 21.5157 34.4828 21.4902C33.9756 21.4401 33.4649 21.4401 32.9581 21.4902C32.7099 21.5157 32.4631 21.5535 32.2182 21.6041C31.9749 21.6532 31.7335 21.7166 31.4989 21.7887C31.2638 21.8604 31.0346 21.9473 30.8133 22.0416C30.5924 22.1359 30.3705 22.2424 30.157 22.3583C29.9434 22.4742 29.7396 22.6004 29.5451 22.7325C29.3511 22.8645 29.1503 23.0148 28.969 23.1616C28.7828 23.3138 28.6049 23.4758 28.4348 23.6462C28.2657 23.8166 28.105 23.9953 27.9535 24.1824C27.802 24.37 27.6598 24.5629 27.5264 24.7618C27.3939 24.9602 27.2683 25.1664 27.1515 25.3819C27.0352 25.5975 26.9307 25.8111 26.8403 26.034C26.744 26.2604 26.6599 26.4911 26.5871 26.7258C26.5133 26.9625 26.4522 27.2031 26.4034 27.4467C26.353 27.6902 26.3149 27.9401 26.288 28.1974C26.2616 28.4547 26.2509 28.7046 26.2509 28.9634C26.2509 29.5492 26.2328 30.1295 26.1962 30.704C26.16 31.279 26.1048 31.8495 26.031 32.4152C25.9591 32.9803 25.8707 33.5725 25.7627 34.1259C25.6508 34.7072 26.0281 35.2694 26.6062 35.3829C26.6746 35.3941 26.744 35.3986 26.8134 35.3961C27.3236 35.3951 27.7619 35.0313 27.8596 34.528C27.976 33.9309 28.0732 33.2916 28.1509 32.6813C28.2291 32.071 28.2877 31.4562 28.3283 30.8332C28.3689 30.2096 28.3869 29.5865 28.3869 28.956C28.3855 28.5912 28.4216 28.2269 28.4935 27.8694C28.5277 27.6976 28.5712 27.5277 28.624 27.3607C28.6758 27.1923 28.7364 27.0273 28.8053 26.8653C28.8712 26.7072 28.945 26.5525 29.0261 26.4018C29.1097 26.2496 29.1991 26.1003 29.2964 25.9569C29.3917 25.814 29.4943 25.6761 29.6038 25.544C29.7108 25.4109 29.8271 25.2842 29.9468 25.163C30.0661 25.0417 30.1941 24.9273 30.329 24.8168C30.5943 24.5973 30.8802 24.4039 31.1827 24.2394C31.6431 23.988 32.1381 23.8068 32.6517 23.7032C32.8281 23.6659 33.0065 23.6384 33.1853 23.6207C33.5484 23.5844 33.9145 23.5844 34.2776 23.6207C34.4569 23.6389 34.6348 23.6664 34.8112 23.7032C34.9842 23.7385 35.1552 23.7837 35.3194 23.8343C35.4841 23.8844 35.6483 23.9467 35.8115 24.0155C36.1282 24.151 36.4307 24.3165 36.7161 24.5099C36.8578 24.6062 36.9966 24.7102 37.129 24.8197C37.2615 24.9292 37.3851 25.0441 37.5058 25.1639C37.6265 25.2842 37.7419 25.4119 37.8518 25.5459C37.9618 25.68 38.0654 25.815 38.1602 25.9609C38.2555 26.1072 38.3439 26.2486 38.427 26.4028C38.5106 26.5574 38.5829 26.7106 38.6523 26.8717C38.7217 27.0327 38.7793 27.1933 38.8297 27.3578C38.88 27.5218 38.9259 27.7 38.9602 27.867L38.9963 28.0614C39.0936 28.6457 39.6438 29.04 40.2254 28.9423C40.8074 28.8446 41.1998 28.2917 41.1026 27.7074L41.0459 27.4476Z" fill="black"/>
<path d="M34.1045 47.7415C33.8124 48.2588 33.999 48.9129 34.5215 49.2028C35.0445 49.4932 35.7058 49.3101 36.0004 48.7938C36.3462 48.1854 36.5234 47.8414 36.8374 47.2168C37.1518 46.5917 37.4474 45.9607 37.732 45.3199C38.0167 44.6791 38.2809 44.0299 38.5302 43.3738C38.779 42.7182 39.0159 42.0523 39.2333 41.3814C39.4508 40.7105 39.6518 40.0298 39.8354 39.3442C40.019 38.6581 40.1857 37.9646 40.3345 37.2647C40.4833 36.5648 40.6147 35.859 40.7291 35.1473C40.8431 34.4356 40.9356 33.7185 41.0127 32.9969C41.0521 32.6357 41.0844 32.2734 41.1138 31.9102C41.162 31.3181 40.7157 30.7993 40.1171 30.7521C39.5184 30.7043 38.9945 31.1458 38.9462 31.7379C38.9193 32.0854 38.8875 32.4295 38.8517 32.7725C38.7795 33.4581 38.6884 34.1393 38.58 34.8151C38.4715 35.4914 38.3471 36.1598 38.2073 36.8203C38.0674 37.4838 37.9097 38.1403 37.734 38.7915C37.5589 39.4422 37.3683 40.0874 37.1623 40.7268C36.9558 41.3647 36.7339 41.9957 36.496 42.6193C36.2586 43.2429 36.0049 43.8571 35.7352 44.462C35.467 45.0689 35.1843 45.6694 34.8863 46.2629C34.5952 46.8477 34.4285 47.1705 34.1045 47.7415Z" fill="black"/>
<path d="M27.8538 58.9901C28.1226 58.9905 28.3814 58.8838 28.5754 58.6929C29.0563 58.2181 29.5257 57.732 29.9842 57.2342C30.4423 56.7368 30.8879 56.2278 31.3221 55.7074C31.7572 55.1871 32.1795 54.6545 32.5889 54.1106C32.9988 53.5668 33.3953 53.0141 33.779 52.4532C34.1083 51.9686 33.9925 51.3018 33.5207 50.9636C33.0493 50.6253 32.3997 50.7443 32.0704 51.2289C31.7077 51.7634 31.3311 52.2877 30.9417 52.8017C30.5524 53.3157 30.1515 53.8204 29.7383 54.3153C29.326 54.8092 28.9028 55.2923 28.4682 55.7652C28.0335 56.2376 27.5893 56.7006 27.1356 57.1539C26.8291 57.4564 26.7323 57.9195 26.8911 58.3238C27.0493 58.7287 27.4311 58.994 27.8557 58.9945L27.8538 58.9901Z" fill="black"/>
<path d="M22.8801 57.5618C23.1308 57.5618 23.3737 57.4738 23.5662 57.3131C24.0779 56.8866 24.5775 56.4449 25.0637 55.9886C25.5549 55.5332 25.8512 55.2489 26.3101 54.7755C27.2493 53.8105 28.1338 52.7933 28.9579 51.7292L29.146 51.4889C29.529 51.0003 29.9839 50.4218 30.3091 49.9508C30.6925 49.4012 31.0603 48.8413 31.4119 48.2721C31.7635 47.7029 32.1029 47.1225 32.4295 46.5313C32.7508 45.9421 33.0578 45.3431 33.3502 44.7339C33.643 44.1251 33.9173 43.5076 34.1744 42.8822C34.4354 42.2554 34.6773 41.6212 34.9006 40.9792L34.9731 40.7657C35.1068 40.4042 35.0343 39.9982 34.7836 39.7046C34.5329 39.4114 34.143 39.2756 33.764 39.3494C33.3845 39.4236 33.0745 39.6962 32.9535 40.0627L32.8806 40.2684C32.667 40.8732 32.4388 41.4717 32.1974 42.0639C31.9555 42.6555 31.6989 43.2398 31.4281 43.8164C31.1533 44.3899 30.8639 44.9547 30.5593 45.5112C30.2547 46.0677 29.9354 46.6144 29.6019 47.1513C29.2704 47.6888 28.9242 48.2159 28.5632 48.7333C28.2562 49.1721 27.8272 49.7183 27.4687 50.1775L27.2719 50.4282C26.4971 51.4258 25.668 52.38 24.7875 53.2863C24.3512 53.7368 24.073 54.0016 23.6112 54.4296C23.149 54.8575 22.6769 55.2748 22.1935 55.6783C21.8483 55.9666 21.7205 56.4395 21.8747 56.8617C22.0285 57.2838 22.431 57.5647 22.8816 57.5642L22.8801 57.5618Z" fill="black"/>
<path d="M34.8168 32.6427C34.7417 33.3031 34.6488 33.9582 34.5379 34.6088C34.4671 35.019 34.3758 35.492 34.2913 35.8949C34.171 36.4744 34.5438 37.0416 35.1237 37.1618C35.194 37.177 35.2661 37.1844 35.3383 37.1844C35.8471 37.1834 36.2857 36.8252 36.3873 36.3267C36.4762 35.8983 36.572 35.3964 36.6461 34.9636C36.7645 34.2737 36.8637 33.5784 36.9432 32.8763C37.0238 32.1766 37.0837 31.468 37.1235 30.7575C37.1632 30.0465 37.1844 29.3272 37.1844 28.6049C37.1844 28.498 37.178 28.3905 37.1686 28.2772C37.1588 28.1633 37.1406 28.0627 37.121 27.9671C37.1004 27.8586 37.0729 27.7512 37.0395 27.6457C37.0076 27.5451 36.9712 27.444 36.9324 27.3518C36.8509 27.1594 36.7512 26.9754 36.6343 26.8022C36.5749 26.7163 36.514 26.6339 36.4507 26.5578C36.3873 26.4818 36.3156 26.4013 36.2469 26.3336C36.1742 26.258 36.0971 26.1864 36.016 26.1192C35.936 26.0524 35.8525 25.9901 35.7661 25.9317C35.6806 25.8738 35.5922 25.8204 35.5024 25.7708C35.411 25.7227 35.3177 25.6776 35.2234 25.6368C35.1291 25.5961 35.027 25.5598 34.9253 25.5299C34.8232 25.4975 34.7191 25.471 34.614 25.4504C34.5079 25.4283 34.4004 25.4116 34.2923 25.4013C34.0738 25.3802 33.8538 25.3802 33.6357 25.4013C33.4226 25.4219 33.2124 25.4646 33.0081 25.5284C32.906 25.5608 32.8063 25.5971 32.7154 25.6359C32.6241 25.6746 32.5229 25.7227 32.4311 25.7718C32.3388 25.8213 32.2464 25.8792 32.1723 25.9298C32.0844 25.9877 31.9994 26.0505 31.9179 26.1182C31.8364 26.1859 31.7593 26.2556 31.6984 26.3174C31.6198 26.3944 31.5456 26.4759 31.4759 26.5608C31.3487 26.7168 31.2363 26.8841 31.139 27.0603C31.0884 27.153 31.0428 27.2482 31.002 27.3454C30.9612 27.4425 30.9254 27.5416 30.8945 27.6422C30.8615 27.7482 30.834 27.8557 30.8119 27.9641C30.7918 28.0711 30.7756 28.1687 30.7648 28.2727C30.754 28.3768 30.7486 28.4872 30.7486 28.6005C30.7486 29.1928 31.2289 29.6726 31.8216 29.6726C32.4139 29.6726 32.8942 29.1928 32.8942 28.6005C32.8942 28.5647 32.8961 28.5289 32.8996 28.4936L33.0209 28.101C33.0209 28.0956 33.0734 28.0142 33.0759 28.0078L33.2001 27.8557L33.3612 27.7207L33.5478 27.6133L33.7462 27.5505C33.7826 27.5426 33.8204 27.5372 33.8533 27.5333C33.9264 27.5255 33.8931 27.5098 34.1818 27.549L34.3792 27.6103L34.5659 27.7109L35.1645 26.8223L34.7191 27.8375L34.7932 27.918L34.9003 28.0829L34.9489 28.1825L35.0088 28.3733C35.0088 28.3733 35.026 28.4808 35.026 28.4882C35.0299 28.524 35.0324 28.5593 35.0324 28.5951C35.0324 29.2772 35.0137 29.9543 34.9754 30.6265C34.9376 31.2992 34.8846 31.971 34.8168 32.6427Z" fill="black"/>
<path d="M30.3878 33.7845C30.2796 34.3903 30.0206 35.4607 29.8772 36.0344C29.7329 36.6241 29.5688 37.2075 29.3844 37.7841C29.2005 38.3607 29.0023 38.9305 28.7908 39.4935C28.5748 40.0554 28.3449 40.6092 28.1017 41.1502L27.9876 41.3969C27.8259 41.7419 27.8635 42.1458 28.0864 42.4557C28.3093 42.7657 28.683 42.9355 29.0676 42.9004C29.4516 42.8659 29.7878 42.6318 29.9494 42.2869L30.0735 42.0158C30.3359 41.432 30.5841 40.8403 30.8134 40.2394C31.0423 39.6389 31.2538 39.0298 31.4481 38.4133C31.6423 37.7968 31.8183 37.172 31.975 36.5414C32.1035 36.0271 32.3823 34.8696 32.5148 34.1669C32.5924 33.7903 32.4569 33.4016 32.1608 33.151C31.8648 32.9004 31.4545 32.8264 31.0877 32.9578C30.7205 33.0892 30.4541 33.405 30.3908 33.7845H30.3878Z" fill="black"/>
<path d="M18.5973 55.417C18.829 55.4155 19.0544 55.3417 19.2396 55.206C19.7547 54.8349 20.2599 54.4483 20.7547 54.0463C21.2495 53.6443 21.7304 53.2312 22.1979 52.8074C22.6664 52.3856 23.1206 51.9431 23.5664 51.4909C24.0121 51.0386 24.4321 50.5768 24.8521 50.1033C25.2716 49.6299 25.6708 49.1395 26.0606 48.64C26.4499 48.14 26.8178 47.6333 27.1804 47.1121C27.3488 46.8679 27.5142 46.6217 27.6757 46.3741C27.9179 46.0561 27.956 45.6323 27.7752 45.2776C27.5944 44.9229 27.225 44.697 26.8183 44.6927C26.4122 44.6883 26.0373 44.906 25.8486 45.2569C25.697 45.4895 25.542 45.7207 25.384 45.9475C25.0487 46.4345 24.6981 46.9118 24.337 47.377C23.9755 47.8418 23.5981 48.2993 23.2073 48.7477C22.8165 49.1955 22.4144 49.627 22.0008 50.0483C21.5877 50.4701 21.1593 50.8813 20.722 51.279C20.2852 51.6762 19.8305 52.0652 19.3709 52.4387C18.9108 52.8118 18.4358 53.1766 17.9524 53.5212C17.58 53.7934 17.4279 54.2678 17.575 54.6983C17.7221 55.1288 18.1357 55.4189 18.6017 55.4189L18.5973 55.417Z" fill="black"/>
<path d="M11.8068 50.0558C12.0017 50.0558 12.1926 50.0032 12.3593 49.9041C12.8097 49.6376 13.2518 49.3571 13.6849 49.0624C14.1181 48.7683 14.5399 48.461 14.9504 48.1415C15.3598 47.8231 15.7589 47.4915 16.1477 47.1477C16.3806 46.9435 16.6085 46.7349 16.832 46.521C17.2607 46.1135 17.2735 45.4406 16.8601 45.0181C16.4467 44.5951 15.7639 44.5829 15.3352 44.9904C15.1309 45.1834 14.9227 45.374 14.7111 45.5617C14.3519 45.8763 13.9864 46.1792 13.6149 46.4709C13.239 46.7621 12.8532 47.0437 12.461 47.3111C12.0683 47.579 11.6632 47.8357 11.2503 48.0788C10.8344 48.3248 10.6356 48.814 10.7658 49.2744C10.8956 49.7353 11.3213 50.0538 11.8068 50.0524V50.0558Z" fill="black"/>
<path d="M23.2256 27.5308C22.6255 27.5308 22.1389 28.011 22.1389 28.6033C22.1389 29.1175 22.1225 29.6257 22.0867 30.1301C22.0508 30.6344 22.0016 31.1334 21.9344 31.6318C21.8672 32.1307 21.7846 32.6159 21.6846 33.0987C21.5846 33.5814 21.4672 34.0641 21.3408 34.5317C21.2149 34.9997 21.0661 35.4691 20.9059 35.9263C20.7462 36.3835 20.5715 36.8383 20.3824 37.2832C20.1929 37.7286 19.9918 38.1662 19.7744 38.5978C19.557 39.029 19.3281 39.4504 19.0877 39.8624C18.8474 40.2744 18.5887 40.682 18.32 41.0803C18.1299 41.3621 17.9324 41.6401 17.7298 41.9126C17.5005 42.2215 17.4552 42.6282 17.6114 42.9793C17.7677 43.3299 18.102 43.572 18.4882 43.6138C18.8743 43.6555 19.2534 43.4905 19.4833 43.1816C19.7008 42.8835 19.9182 42.5786 20.1292 42.2706C20.4223 41.8351 20.7019 41.3921 20.9691 40.9374C21.2368 40.4826 21.4866 40.021 21.7224 39.5515C21.9583 39.0815 22.1812 38.5988 22.3887 38.1107C22.5962 37.6225 22.7858 37.128 22.9604 36.6256C23.1356 36.1237 23.2953 35.612 23.4386 35.093C23.5824 34.5734 23.7073 34.0524 23.8157 33.522C23.9247 32.9921 24.0158 32.4558 24.0889 31.9132C24.1616 31.3701 24.2183 30.823 24.2571 30.2715C24.2964 29.72 24.3128 29.1612 24.3128 28.6003C24.3108 28.0091 23.8247 27.5308 23.2256 27.5308V27.5308Z" fill="black"/>
<path d="M24.6627 21.4556C24.4243 21.747 24.2008 22.0498 23.9915 22.3633C23.7802 22.6773 23.5864 23.0066 23.4095 23.3344C23.2457 23.6317 23.0979 23.9384 22.967 24.2519C22.7388 24.7971 22.9898 25.4261 23.5282 25.6572C23.6586 25.7142 23.7991 25.7431 23.9411 25.7431C24.3656 25.7426 24.7489 25.486 24.9147 25.09C25.0208 24.8398 25.1395 24.5949 25.2704 24.3569C25.4167 24.0846 25.5752 23.8201 25.7458 23.564C25.9183 23.3079 26.0996 23.0601 26.2944 22.8211C26.4892 22.5822 26.6947 22.3535 26.9094 22.1361C27.1245 21.9183 27.3508 21.7073 27.5878 21.512C27.8253 21.3172 28.0686 21.1297 28.3196 20.957C28.5706 20.7843 28.8362 20.6224 29.1071 20.4737C29.378 20.3245 29.6557 20.1886 29.9392 20.0674C30.5149 19.8206 31.1139 19.6327 31.7264 19.5056C32.0366 19.4413 32.353 19.3932 32.6729 19.3589C33.3213 19.2926 33.9746 19.2926 34.623 19.3589C34.9404 19.3932 35.2578 19.4413 35.5704 19.5056C35.8825 19.5699 36.1834 19.6494 36.4829 19.7436C36.5949 19.7789 36.7073 19.8167 36.8173 19.8505C37.1769 19.9914 37.5835 19.9227 37.8786 19.6719C38.1737 19.4207 38.3114 19.0277 38.2372 18.6445C38.1631 18.2617 37.8893 17.9497 37.5224 17.8304C37.3858 17.7809 37.2481 17.7347 37.1115 17.692C36.371 17.458 35.6087 17.301 34.8367 17.2225C34.0458 17.142 33.2486 17.142 32.4577 17.2225C32.07 17.2617 31.6847 17.3211 31.3029 17.4006C30.9263 17.4781 30.5537 17.5758 30.1868 17.692C29.8209 17.8064 29.4633 17.9384 29.1144 18.0885C28.7659 18.2387 28.4262 18.404 28.0962 18.5846C27.7681 18.7657 27.4478 18.9629 27.1347 19.1763C26.8221 19.3903 26.5241 19.616 26.2401 19.854C25.9532 20.0939 25.6775 20.3476 25.4133 20.615C25.1497 20.8824 24.8992 21.1626 24.6627 21.4556Z" fill="black"/>
<path d="M43.1563 33.12C43.0926 33.806 43.0162 34.488 42.9233 35.1642C42.8803 35.4856 42.8586 35.7613 42.837 36.0302C42.8195 36.3408 42.7851 36.65 42.7336 36.9566C42.6539 37.3374 42.7789 37.7334 43.0605 37.9905C43.3421 38.2476 43.7355 38.3256 44.0884 38.1941C44.4412 38.0621 44.6973 37.7422 44.7577 37.3575C44.8242 36.9762 44.87 36.5916 44.8945 36.2049C44.9134 35.9758 44.9308 35.7398 44.969 35.4664C45.0643 34.7569 45.1455 34.0425 45.212 33.3227C45.2785 32.6034 45.3275 31.8791 45.3582 31.15C45.3926 30.4223 45.4091 29.6897 45.4077 28.9518C45.4077 28.545 45.3884 28.1431 45.3502 27.7467C45.3115 27.3502 45.2544 26.9601 45.178 26.5774C45.103 26.1961 45.0096 25.8188 44.8978 25.4474C44.7889 25.0784 44.661 24.7153 44.5153 24.3596C44.3719 24.0087 44.2129 23.6652 44.0384 23.3296C43.8638 22.9935 43.6747 22.6697 43.4704 22.3571C43.2643 22.0441 43.0492 21.7418 42.8204 21.4528C42.6143 21.1918 42.3973 20.9415 42.17 20.7021C41.9124 20.4283 41.5341 20.3184 41.177 20.4136C40.8204 20.5087 40.5393 20.7948 40.4402 21.1638C40.3412 21.5333 40.4388 21.9292 40.6968 22.203C40.8832 22.4003 41.0605 22.6059 41.2303 22.8203C41.4195 23.0588 41.5968 23.3061 41.7634 23.5622C41.9299 23.8193 42.0855 24.0862 42.227 24.3561C42.3681 24.6265 42.5011 24.9135 42.6186 25.202C42.7365 25.491 42.8398 25.7869 42.9275 26.0877C43.019 26.3909 43.0959 26.6991 43.1572 27.0102C43.219 27.3271 43.2653 27.6471 43.2964 27.9685C43.3294 28.2967 43.3454 28.626 43.345 28.9557C43.345 29.6588 43.3289 30.3585 43.2973 31.0548C43.2657 31.7506 43.219 32.439 43.1563 33.12Z" fill="black"/>
<path d="M32.8941 59.7096C33.1991 59.7096 33.4897 59.5807 33.693 59.3554C34.1502 58.8493 34.595 58.334 35.0276 57.81C35.4563 57.2849 35.8855 56.7468 36.293 56.2071C36.7011 55.667 37.1008 55.1079 37.4838 54.5474C37.6983 54.2394 37.9031 53.9279 38.1103 53.6112C38.2777 53.3528 38.4437 53.0925 38.6038 52.8331C38.9647 52.2541 39.3133 51.6653 39.6487 51.0673C39.9841 50.4692 40.3057 49.8644 40.614 49.2528C40.9209 48.6397 41.2165 48.0188 41.4969 47.3916C41.7768 46.7643 42.0449 46.1279 42.2978 45.4783C42.5511 44.8287 42.7893 44.1869 43.0137 43.53C43.213 42.9475 43.4006 42.3592 43.5764 41.7651C43.7434 41.2016 43.4173 40.6109 42.8487 40.4455C42.2801 40.2805 41.684 40.6031 41.517 41.1671C41.3496 41.734 41.1709 42.2945 40.9808 42.8497C40.7663 43.476 40.5389 44.0949 40.2983 44.7066C40.0582 45.3182 39.8039 45.924 39.5348 46.5245C39.2667 47.1225 38.9868 47.7156 38.6927 48.2986C38.399 48.881 38.0921 49.4591 37.7725 50.0289C37.4528 50.5987 37.1224 51.1578 36.7757 51.7135C36.6215 51.9636 36.4629 52.2122 36.3063 52.4579C36.1108 52.7567 35.912 53.054 35.7097 53.3494C35.3419 53.8866 34.9628 54.4145 34.5715 54.9323C34.1806 55.4505 33.778 55.9604 33.365 56.4621C32.9531 56.9638 32.5273 57.4547 32.0938 57.9365C31.8124 58.2489 31.7422 58.696 31.9145 59.078C32.0874 59.4605 32.4704 59.7067 32.8927 59.7072L32.8941 59.7096Z" fill="black"/>
<path d="M9.28995 46.837C9.47081 46.837 9.64876 46.7904 9.80682 46.7011C10.1908 46.4823 10.5666 46.2517 10.9337 46.0098C11.3002 45.7675 11.659 45.5133 12.0077 45.2489C12.3563 44.984 12.7015 44.7073 13.0332 44.4203C13.3643 44.1328 13.6868 43.835 13.998 43.5283C14.3093 43.2222 14.6133 42.9028 14.9067 42.5736C15.2 42.2444 15.4818 41.9079 15.7543 41.562C16.0263 41.2156 16.2837 40.8599 16.5359 40.49C16.788 40.1206 17.0207 39.7526 17.2443 39.3744C17.4678 38.9961 17.684 38.6036 17.8799 38.2062C18.0758 37.8088 18.2698 37.4055 18.4467 36.992C18.6237 36.5784 18.7847 36.1623 18.9316 35.7399C19.079 35.318 19.2167 34.8828 19.3374 34.4457C19.4582 34.0081 19.5663 33.5656 19.655 33.1167C19.7443 32.6673 19.8257 32.2139 19.8892 31.7533C19.9527 31.2926 19.9954 30.8304 20.0313 30.3599C20.0672 29.8894 20.0788 29.4199 20.0788 28.944C20.0788 28.4677 20.1031 27.9918 20.1511 27.5178C20.1976 27.0581 20.2665 26.5916 20.3629 26.1338C20.4517 25.6957 20.5651 25.2468 20.7019 24.8018C20.8386 24.3569 20.9909 23.9379 21.1644 23.5223C21.3385 23.1063 21.532 22.6991 21.7439 22.3046C21.9557 21.9102 22.1865 21.5265 22.4333 21.1556C22.6244 20.8706 22.8911 20.5522 23.1296 20.2642L23.3415 20.0057C23.5917 19.7118 23.6649 19.3036 23.5335 18.9391C23.4021 18.5741 23.0855 18.3101 22.7068 18.2483C22.3281 18.1865 21.9461 18.3371 21.708 18.6413L21.5048 18.8871C21.2207 19.231 20.906 19.6137 20.6786 19.9586C20.3969 20.38 20.1288 20.8255 19.882 21.2842C19.6352 21.7429 19.4145 22.207 19.2123 22.6917C19.0102 23.176 18.8322 23.668 18.6775 24.1694C18.5229 24.6713 18.3886 25.2027 18.2867 25.7109C18.181 26.2378 18.0991 26.7741 18.0453 27.3054C17.991 27.8372 17.9638 28.4 17.9638 28.9485C17.9638 29.3772 17.9493 29.8006 17.9202 30.2186C17.8925 30.6376 17.8494 31.0522 17.7941 31.4609C17.7393 31.869 17.668 32.2772 17.5822 32.679C17.4964 33.0813 17.4033 33.4777 17.2942 33.8688C17.1851 34.2603 17.0678 34.6439 16.933 35.0251C16.7987 35.4068 16.6532 35.7757 16.4976 36.1462C16.3419 36.5171 16.1727 36.8752 15.9923 37.2309C15.8124 37.5866 15.6219 37.9329 15.4192 38.2759C15.217 38.6188 15.0042 38.951 14.784 39.2748C14.5634 39.5986 14.3273 39.9179 14.0848 40.2295C13.8424 40.5415 13.5893 40.8427 13.3275 41.1351C13.0656 41.428 12.798 41.7131 12.5148 41.9927C12.2321 42.2724 11.9475 42.5349 11.6484 42.7924C11.3497 43.0495 11.0471 43.2958 10.7324 43.5337C10.4178 43.7717 10.0968 43.9988 9.76949 44.2157C9.4422 44.432 9.10667 44.6376 8.76435 44.8319C8.34397 45.0703 8.13596 45.5658 8.25815 46.0378C8.38033 46.5093 8.80169 46.8385 9.28316 46.838L9.28995 46.837Z" fill="black"/>
<path d="M46.8057 23.5379C46.9833 23.9559 47.1393 24.3827 47.2732 24.8169C47.39 25.1882 47.491 25.5664 47.5754 25.9509C47.6505 26.3321 47.9262 26.643 48.2951 26.7633C48.6646 26.8831 49.0698 26.7942 49.3548 26.53C49.6394 26.2663 49.7596 25.8684 49.6683 25.4907C49.5707 25.0462 49.4539 24.6086 49.321 24.1808C49.1655 23.6789 48.9849 23.1848 48.7798 22.701C48.5797 22.2256 48.3511 21.7526 48.1023 21.2934C47.8541 20.8342 47.5872 20.3956 47.2977 19.9663C47.0083 19.5371 46.7007 19.1269 46.373 18.7272C46.0447 18.3269 45.6974 17.9467 45.3363 17.5852C44.9752 17.2238 44.5926 16.876 44.1937 16.5455C43.7953 16.2154 43.3837 15.9094 42.9569 15.6207C42.5306 15.3323 42.0881 15.0627 41.6323 14.8152C41.177 14.5671 40.7046 14.3388 40.2252 14.1359C39.7464 13.9331 39.2455 13.7499 38.7476 13.5942C38.2408 13.436 37.7261 13.3039 37.2061 13.1983C36.6811 13.0908 36.1439 13.0082 35.6116 12.9537C34.5186 12.8442 33.4172 12.8442 32.3246 12.9537C31.7884 13.0082 31.2526 13.0908 30.7306 13.1983C30.2101 13.3039 29.695 13.436 29.1877 13.5942C28.6858 13.7509 28.1888 13.9331 27.7095 14.1359C27.2307 14.3388 26.7602 14.5652 26.3035 14.8142C25.7834 15.0971 25.5906 15.7484 25.8732 16.2695C26.1558 16.7901 26.8068 16.9831 27.3269 16.7002C27.7223 16.4856 28.1285 16.2896 28.5465 16.1123C28.9645 15.9345 29.3908 15.7783 29.824 15.6432C30.2656 15.5072 30.715 15.3913 31.1594 15.2999C31.6167 15.2051 32.0778 15.1339 32.5419 15.0853C33.4898 14.99 34.445 14.99 35.3928 15.0853C35.8579 15.1334 36.3201 15.2051 36.7773 15.2999C37.2203 15.3903 37.6692 15.5062 38.1117 15.6423C38.5543 15.7783 38.9693 15.934 39.3902 16.1113C39.8117 16.2881 40.2125 16.4836 40.6079 16.6992C41.0033 16.9148 41.385 17.1457 41.7569 17.3976C42.1288 17.6496 42.4854 17.9158 42.8284 18.2002C43.1713 18.4845 43.5025 18.7851 43.8189 19.1014C44.1348 19.4177 44.4341 19.7453 44.7182 20.0916C45.0022 20.4383 45.2691 20.7944 45.5208 21.1647C45.7725 21.535 46.004 21.9157 46.2174 22.315C46.4308 22.7138 46.632 23.1249 46.8057 23.5379Z" fill="black"/>
<path d="M38.9592 59.3485C39.2926 59.3485 39.6067 59.1908 39.8064 58.9232C40.196 58.4016 40.5755 57.8727 40.9444 57.3355C41.3137 56.7983 41.6733 56.2533 42.0237 55.7006C42.3722 55.1478 42.7105 54.5883 43.0391 54.0219C43.3673 53.456 43.6847 52.8828 43.992 52.3023C44.2969 51.7218 44.5915 51.135 44.877 50.5409C45.1586 49.9468 45.432 49.3463 45.6913 48.7415C45.9506 48.1367 46.2026 47.5221 46.4386 46.9037C46.6747 46.2848 46.9025 45.66 47.1133 45.0308C47.3236 44.4012 47.5282 43.7648 47.7157 43.1171C47.9028 42.47 48.0807 41.8301 48.245 41.1796C48.4088 40.529 48.5625 39.8711 48.6958 39.2089C48.8295 38.5467 48.9585 37.881 49.0699 37.2105C49.1809 36.5395 49.2817 35.8646 49.3622 35.1907C49.4426 34.5168 49.5163 33.8273 49.5735 33.1383C49.6307 32.4493 49.67 31.8299 49.6976 31.1346C49.7189 30.5487 49.2638 30.0558 48.6802 30.0334H48.6357C48.0676 30.033 47.5999 30.483 47.5766 31.0528C47.5495 31.718 47.5112 32.3126 47.4584 32.9661C47.4056 33.62 47.3367 34.2798 47.2558 34.9294C47.1753 35.579 47.0823 36.2271 46.9757 36.8704C46.8685 37.5132 46.7498 38.1457 46.6184 38.7836C46.4876 39.4215 46.3432 40.0453 46.1866 40.6691C46.0301 41.2934 45.8614 41.9119 45.6816 42.5264C45.5018 43.1405 45.3098 43.7468 45.1048 44.3516C44.8993 44.9564 44.6812 45.5515 44.4587 46.1436C44.2363 46.7358 43.9939 47.3212 43.7429 47.9026C43.4918 48.4841 43.2349 49.0583 42.9635 49.6246C42.6926 50.191 42.4091 50.7555 42.1168 51.3106C41.8245 51.8654 41.5207 52.4162 41.2061 52.9582C40.8916 53.5003 40.5707 54.037 40.2353 54.5644C39.8994 55.0914 39.5553 55.6145 39.202 56.1297C38.8482 56.6455 38.4842 57.1506 38.1115 57.6508C37.8706 57.9729 37.8318 58.404 38.0111 58.7641C38.1905 59.1242 38.5574 59.3519 38.9582 59.3519L38.9592 59.3485Z" fill="black"/>
<path d="M51.74 53.1808C51.9921 53.2967 52.2781 53.3045 52.5355 53.2029C52.7929 53.1012 53.0008 52.8979 53.1131 52.6382C53.3106 52.18 53.5037 51.7184 53.6931 51.2519C53.8825 50.7859 54.0642 50.3184 54.2388 49.8499C54.4154 49.378 54.5862 48.9046 54.7522 48.4263C54.9187 47.948 55.0753 47.4717 55.2294 46.989C55.3831 46.5063 55.5297 46.0236 55.6719 45.5354C55.8147 45.0473 55.9498 44.5567 56.0787 44.0657C56.2072 43.5741 56.3333 43.0777 56.4508 42.5797C56.5678 42.0823 56.6801 41.5814 56.7853 41.0781C56.8904 40.5747 56.9932 40.0699 57.0817 39.5631C57.1697 39.0568 57.2625 38.5461 57.3415 38.0359C57.4205 37.5252 57.4961 37.0091 57.5627 36.493C57.6293 35.9774 57.6907 35.4578 57.7445 34.9398C57.7987 34.4217 57.8487 33.8963 57.8872 33.3767L57.9181 32.9829C57.9657 32.3926 57.5399 31.8741 56.9675 31.825C56.3956 31.7764 55.8932 32.2154 55.8456 32.8061L55.8147 33.2009C55.7761 33.7052 55.7304 34.2071 55.6786 34.7105C55.6262 35.2133 55.5673 35.7103 55.5025 36.2121C55.4383 36.714 55.3674 37.2046 55.2946 37.6991C55.2223 38.1936 55.1338 38.6817 55.0444 39.1718C54.9549 39.6618 54.8602 40.146 54.7584 40.6297C54.6566 41.1134 54.5505 41.5951 54.4353 42.0744C54.3197 42.5542 54.2046 43.0305 54.079 43.5078C53.9529 43.9852 53.823 44.4541 53.686 44.9226C53.5485 45.3916 53.4062 45.8605 53.2606 46.3172C53.115 46.7744 52.9585 47.2453 52.7991 47.7035C52.6402 48.1611 52.476 48.6193 52.3057 49.0731C52.1349 49.5268 51.9593 49.9786 51.7795 50.4259C51.5996 50.8733 51.4117 51.3197 51.2204 51.7626C50.9849 52.3023 51.2175 52.9367 51.74 53.1808Z" fill="black"/>
<path d="M58.1575 26.4441C58 24.8113 57.6859 23.1995 57.2196 21.6329C57.1671 21.4583 57.1169 21.2846 57.0597 21.1135C56.944 20.7495 56.6515 20.4783 56.2924 20.4018C55.9334 20.3247 55.5626 20.4542 55.3194 20.7412C55.0766 21.0281 54.9983 21.4288 55.1141 21.7928L55.2617 22.2695C55.4726 22.9798 55.6508 23.7052 55.7923 24.4262C55.9367 25.1649 56.045 25.9104 56.1167 26.6604C56.1917 27.4251 56.2301 28.1932 56.2315 28.9618C56.2315 29.5538 56.6899 30.0335 57.2552 30.0335C57.8209 30.0335 58.2793 29.5538 58.2793 28.9618C58.2789 28.1211 58.2386 27.2809 58.1575 26.4441Z" fill="black"/>
<path d="M47.9775 11.4641C48.5299 11.9191 49.0637 12.4028 49.5654 12.9025C50.067 13.4022 50.5536 13.935 51.0094 14.4857C51.4653 15.0359 51.8933 15.6056 52.297 16.201C52.7007 16.7959 53.0756 17.4092 53.4173 18.0372C53.5992 18.3703 53.9453 18.5816 54.3261 18.5918C54.7064 18.6015 55.0632 18.4082 55.2622 18.0852C55.4611 17.7618 55.4713 17.3573 55.2899 17.0241C54.9136 16.3369 54.5016 15.66 54.0628 15.0082C53.6241 14.357 53.1458 13.7257 52.6519 13.1298C52.1576 12.5334 51.6208 11.9448 51.0723 11.3985C50.5239 10.8517 49.9393 10.3214 49.3333 9.82261C48.7273 9.32434 48.0925 8.85327 47.447 8.41912C47.1316 8.19621 46.7201 8.16124 46.3716 8.32684C46.023 8.49293 45.7914 8.83385 45.7675 9.21799C45.7431 9.60213 45.9299 9.96927 46.255 10.1771C46.844 10.5729 47.4246 11.0046 47.9775 11.4641Z" fill="black"/>
<path d="M27.8 7.23228C28.2215 7.11937 28.6465 7.01791 29.0754 6.92838C29.8157 6.77568 30.5634 6.66079 31.315 6.58369C32.8511 6.42602 34.3991 6.42602 35.9358 6.58369C36.6874 6.66079 37.4355 6.77568 38.1758 6.92838C38.8989 7.07809 39.6254 7.26709 40.3367 7.49091C40.9387 7.68042 41.5447 7.89976 42.1399 8.14298C42.6898 8.36929 43.317 8.10219 43.5408 7.54612C43.7641 6.99005 43.5 6.35589 42.95 6.12959C42.2988 5.86249 41.6338 5.62127 40.9751 5.41386C40.197 5.16915 39.3986 4.96174 38.6111 4.79761C37.8 4.62999 36.9815 4.50365 36.1581 4.4196C34.4788 4.2475 32.7867 4.2475 31.1074 4.4196C30.284 4.50365 29.4645 4.62999 28.6534 4.79761C28.1827 4.89559 27.7168 5.00601 27.2564 5.12985C26.6829 5.28454 26.342 5.8799 26.4945 6.45985C26.6475 7.03979 27.2363 7.38497 27.8098 7.23029L27.8 7.23228Z" fill="black"/>
<path d="M9.80196 31.8C10.0807 31.8562 10.3707 31.8 10.6072 31.6438C10.8437 31.4875 11.0076 31.244 11.0616 30.968C11.1121 30.7225 11.1528 30.4732 11.1872 30.2262C11.2215 29.9793 11.2461 29.7164 11.2633 29.4631C11.2804 29.2099 11.2888 28.9494 11.2888 28.6884C11.2893 27.1821 11.4424 25.6792 11.7456 24.2025C11.8948 23.4874 12.0812 22.7699 12.3021 22.0694C12.5229 21.3689 12.7726 20.6917 13.0577 20.0261C13.3428 19.3605 13.6588 18.7099 14.0062 18.0812C14.3537 17.453 14.732 16.832 15.1329 16.246C15.5338 15.66 15.97 15.0803 16.4288 14.5335C16.8876 13.9863 17.3763 13.4512 17.8822 12.952C18.3886 12.4528 18.9264 11.9687 19.4819 11.5151C20.0369 11.0615 20.6149 10.6346 21.215 10.2339C21.8157 9.83319 22.4349 9.46013 23.0728 9.11909C23.5017 8.88914 23.936 8.67326 24.3761 8.47048C24.7358 8.31912 24.9831 7.98633 25.0224 7.60211C25.0621 7.2179 24.8869 6.84338 24.5655 6.62362C24.2441 6.40435 23.8275 6.37476 23.4781 6.54698C22.9914 6.76819 22.5144 7.00444 22.0468 7.25574C21.35 7.63025 20.6665 8.04212 20.0104 8.47776C19.3543 8.9134 18.7154 9.3893 18.1129 9.88073C17.5103 10.3726 16.9166 10.9058 16.3635 11.4525C15.8105 11.9993 15.2776 12.5799 14.7752 13.1844C14.2722 13.7884 13.7952 14.4176 13.3566 15.0599C12.9184 15.7022 12.4993 16.3775 12.122 17.0736C11.7446 17.7698 11.3928 18.479 11.0832 19.2048C10.7735 19.9305 10.4914 20.6883 10.2544 21.4441C10.012 22.213 9.80883 22.9931 9.64592 23.7819C9.48154 24.5736 9.35641 25.3876 9.27152 26.2012C9.18761 27.0278 9.14541 27.8579 9.14492 28.6884C9.14492 28.9004 9.13854 29.1124 9.12382 29.3244C9.10861 29.5364 9.09045 29.7358 9.0615 29.9434C9.03255 30.151 9.00017 30.3514 8.95944 30.5517C8.9035 30.8278 8.96091 31.1145 9.11891 31.3488C9.27692 31.5831 9.52276 31.7451 9.80196 31.8Z" fill="black"/>
<path d="M7.6884 34.1422C7.58344 34.3069 7.46981 34.4692 7.35281 34.6266C7.23629 34.7845 7.11304 34.9438 6.98689 35.0901C6.86074 35.2359 6.72737 35.3884 6.59449 35.5294C6.46208 35.6698 6.31812 35.8108 6.17368 35.9459C6.02972 36.0815 5.88239 36.2084 5.73313 36.3309C5.58387 36.454 5.42498 36.5765 5.26417 36.6932C5.10336 36.8095 4.9411 36.9184 4.77499 37.0231C4.38355 37.2754 4.203 37.7563 4.33156 38.2063C4.45963 38.6557 4.86647 38.9672 5.33158 38.972C5.5285 38.9725 5.72206 38.9163 5.88865 38.8102C6.09279 38.6819 6.2926 38.5468 6.48712 38.4068C6.68212 38.2673 6.87134 38.1201 7.05959 37.967C7.24785 37.8135 7.42455 37.6556 7.59933 37.4938C7.77362 37.3321 7.94406 37.1625 8.11354 36.9872C8.28254 36.8114 8.43613 36.6361 8.59213 36.4515C8.74764 36.2675 8.89401 36.0805 9.03605 35.8878C9.17808 35.6955 9.31867 35.4955 9.45012 35.2921C9.68074 34.9758 9.7183 34.5568 9.54785 34.2042C9.37693 33.8512 9.02642 33.6226 8.63642 33.6095C8.24691 33.5964 7.88195 33.8013 7.6884 34.1422Z" fill="black"/>
<path d="M9.2818 41.6884C9.55095 41.4803 9.8163 41.2721 10.0741 41.0549C10.3314 40.8373 10.582 40.6063 10.8242 40.37C11.0668 40.1338 11.3028 39.8904 11.5292 39.6417C11.7785 39.3664 11.8624 38.9787 11.7496 38.6243C11.6373 38.2695 11.3449 38.0028 10.9834 37.9232C10.6214 37.8442 10.2451 37.9651 9.99636 38.2404C9.79829 38.4586 9.59407 38.6701 9.38463 38.8749C9.17472 39.0797 8.95769 39.2774 8.73357 39.4679C8.51086 39.6594 8.2801 39.8437 8.04507 40.0194C7.81004 40.1952 7.56791 40.3638 7.32056 40.5253C7.07321 40.6863 6.82255 40.8373 6.56478 40.9821C6.0971 41.276 5.94073 41.8866 6.2094 42.3705C6.47759 42.8549 7.07606 43.0426 7.57075 42.7978C7.8688 42.6301 8.16211 42.4534 8.44547 42.2691C8.7293 42.0847 9.00887 41.8923 9.2818 41.6884Z" fill="black"/>
<path d="M44.8516 57.055C45.3561 57.3549 46.0127 57.1963 46.3177 56.7003C46.6281 56.1962 46.9307 55.6862 47.2255 55.1696C47.5203 54.653 47.8053 54.1325 48.0801 53.6082C48.3568 53.0829 48.6251 52.5523 48.8852 52.0169C49.1448 51.4801 49.3677 50.9995 49.6092 50.4536C49.7618 50.1095 49.7163 49.7116 49.4895 49.4098C49.2626 49.1079 48.8896 48.9479 48.5103 48.9897C48.1309 49.032 47.8034 49.2699 47.6508 49.6135C47.4191 50.1388 47.204 50.5963 46.9552 51.112C46.7064 51.6272 46.4482 52.1357 46.1823 52.6403C45.9163 53.1454 45.6431 53.6452 45.362 54.1407C45.0814 54.6362 44.7895 55.1254 44.4908 55.6103C44.3432 55.8492 44.2982 56.1356 44.3662 56.4067C44.4336 56.6777 44.6086 56.9108 44.8516 57.055Z" fill="black"/>
<path d="M50.0463 47.1955C50.5048 47.195 50.9122 46.9047 51.0598 46.4728C51.1745 46.1365 51.2878 45.7988 51.3961 45.4606C51.5829 44.8803 51.7614 44.2947 51.9315 43.7052C52.1007 43.1166 52.2527 42.5217 52.4051 41.9268C52.5571 41.3319 52.691 40.7282 52.8194 40.1226C52.9479 39.5175 53.0646 38.9108 53.1729 38.2964C53.2808 37.6825 53.3754 37.0705 53.4632 36.4512C53.551 35.8319 53.625 35.2111 53.6922 34.5855C53.7598 33.9598 53.8123 33.3318 53.8564 32.7007C53.9001 32.0697 53.9344 31.4343 53.955 30.7989C53.9751 30.1635 53.9888 29.5193 53.9888 28.8795C53.9888 28.188 53.9535 27.494 53.8819 26.8103C53.8128 26.1354 53.7093 25.4643 53.5725 24.7997C53.4387 24.1447 53.2715 23.4966 53.071 22.8583C52.8773 22.2356 52.6429 21.609 52.3855 20.995C52.107 20.3391 51.5138 19.2357 51.2716 18.7921C50.9892 18.2748 50.3385 18.083 49.8188 18.3641C49.2986 18.6452 49.1064 19.2928 49.3888 19.8106C49.8634 20.6773 50.2459 21.4299 50.4126 21.8252C50.8789 22.9218 51.2343 24.0613 51.4741 25.2272C51.5966 25.8216 51.6883 26.4218 51.7496 27.0255C51.8124 27.6419 51.8433 28.2607 51.8428 28.8795C51.8428 29.4974 51.832 30.1128 51.8104 30.7262C51.7888 31.3397 51.757 31.9487 51.7143 32.5534C51.6722 33.161 51.6187 33.7646 51.5579 34.3659C51.4966 34.9671 51.4206 35.5654 51.3437 36.1579C51.2662 36.7509 51.1657 37.3448 51.0627 37.9319C50.9602 38.5194 50.8485 39.1046 50.7244 39.6858C50.6004 40.2666 50.4685 40.8434 50.3248 41.4183C50.1812 41.9927 50.0326 42.5612 49.8728 43.1239C49.7134 43.6866 49.5408 44.2518 49.3619 44.8096C49.257 45.137 49.1501 45.4621 49.0407 45.7837C48.85 46.341 49.1491 46.9466 49.709 47.1369C49.8174 47.1745 49.9316 47.194 50.0463 47.1955Z" fill="black"/>
<path d="M41.6332 10.0559C41.0278 9.80059 40.4053 9.57424 39.7814 9.3812C38.5005 8.98643 37.1828 8.72003 35.8485 8.58635C35.4712 8.54871 35.1027 8.71376 34.8813 9.01925C34.6599 9.32522 34.6196 9.72482 34.7754 10.0684C34.9313 10.4116 35.2595 10.6466 35.6363 10.6842C36.2374 10.7446 36.8351 10.8353 37.427 10.9564C38.0096 11.0737 38.5865 11.2209 39.1545 11.397C39.7105 11.5689 40.2684 11.772 40.8112 11.9998C41.3545 12.2276 41.8721 12.4752 42.3863 12.7537C42.901 13.0321 43.3963 13.3313 43.8716 13.6518C44.3465 13.9727 44.8102 14.3163 45.2588 14.6841C45.6152 14.9761 46.5086 15.8356 47.1859 16.5088C47.6025 16.9084 48.2643 16.9021 48.6731 16.4953C49.082 16.088 49.0873 15.4307 48.6848 15.0171C48.4377 14.7714 47.1757 13.5224 46.6081 13.0562C46.1075 12.6451 45.5846 12.2571 45.0573 11.9038C44.53 11.551 43.9668 11.2083 43.3953 10.8995C42.8233 10.5906 42.2242 10.3035 41.6332 10.0559Z" fill="black"/>
<path d="M22.506 12.0566C21.9686 12.424 21.4311 12.8226 20.9331 13.2405C20.4356 13.6584 19.9439 14.1071 19.4838 14.5681C19.0237 15.0297 18.5798 15.5234 18.1669 16.0281C17.754 16.5328 17.3553 17.0677 16.9897 17.6125C16.656 18.1093 16.7855 18.7845 17.2786 19.1206C17.7717 19.4567 18.442 19.3263 18.7756 18.8296C19.1024 18.3398 19.4533 17.8668 19.8268 17.4122C20.1979 16.9596 20.5935 16.5189 21.0094 16.1039C21.4257 15.689 21.8578 15.2894 22.3081 14.9127C22.7584 14.5359 23.2318 14.1814 23.7146 13.8522C24.1969 13.5231 24.7068 13.2122 25.2195 12.9297C25.7323 12.6471 26.2742 12.3883 26.816 12.1543C27.3578 11.9203 27.9307 11.7126 28.4952 11.5361C29.0596 11.3591 29.6585 11.2035 30.2457 11.083C30.8274 10.9635 31.2028 10.3914 31.0842 9.80544C30.9651 9.21896 30.3972 8.84071 29.8155 8.96068C29.1595 9.09602 28.5006 9.26606 27.8578 9.46733C27.2146 9.66861 26.5946 9.90062 25.9794 10.1604C25.3647 10.4202 24.7732 10.7097 24.194 11.027C23.6142 11.3442 23.0478 11.6888 22.506 12.0566Z" fill="black"/>
<path d="M12.8105 36.3808C13.3516 36.6161 13.9803 36.3666 14.2149 35.8227C14.2574 35.7249 14.3269 35.5746 14.4026 35.407C14.5757 35.0327 14.7795 34.5841 14.8597 34.3576C14.9804 34.0196 15.0894 33.6762 15.1803 33.3303C15.2708 32.9849 15.3637 32.6317 15.4365 32.2775C15.5088 31.9232 15.5734 31.5607 15.6232 31.1956C15.6736 30.8311 15.7122 30.4636 15.7376 30.0927C15.763 29.7212 15.7762 29.341 15.7762 28.9686C15.7762 28.3456 15.8075 27.7226 15.8701 27.1021C15.9322 26.4895 16.025 25.8807 16.1443 25.2907C16.2695 24.68 16.5813 23.407 16.7553 22.8489C16.8697 22.4829 16.7813 22.083 16.5227 21.8005C16.2646 21.5175 15.8759 21.3952 15.503 21.4782C15.13 21.5617 14.8303 21.8388 14.7155 22.2048C14.518 22.8489 14.1905 24.1799 14.0526 24.8549C13.9162 25.525 13.8136 26.2011 13.7452 26.881C13.6767 27.5659 13.6381 28.268 13.6381 28.9646C13.6381 29.2864 13.6273 29.6171 13.6039 29.9399C13.5804 30.2631 13.5496 30.584 13.5056 30.8964C13.4621 31.2089 13.4084 31.5218 13.3433 31.8333C13.2783 32.1443 13.2055 32.445 13.1214 32.7476C13.0368 33.0503 12.944 33.3411 12.8418 33.632C12.7753 33.8197 12.6013 34.1911 12.4581 34.5016C12.373 34.6883 12.2958 34.8543 12.2445 34.9639C12.1311 35.2272 12.1271 35.525 12.2332 35.7912C12.3398 36.0575 12.5475 36.2698 12.8105 36.3808Z" fill="black"/>
</svg>
