<svg width="64" height="64" viewBox="0 0 64 64" fill="none" xmlns="http://www.w3.org/2000/svg">
<path fill-rule="evenodd" clip-rule="evenodd" d="M54.4 0V6.064C55.9483 6.80367 57.1963 8.05167 57.936 9.6H64V11.7333H58.5813C58.6353 12.0867 58.6633 12.4427 58.6667 12.8V14.9333H64V17.0667H58.6667V20.2667H64V22.4H58.6667V25.6H64V27.7333H58.6667V30.9333H64V33.0667H58.6667V36.2667H64V38.4H58.6667V41.6H64V43.7333H58.6667V46.9333H64V49.0667H58.6667V51.2C58.6633 51.5573 58.6353 51.9133 58.5813 52.2667H64V54.4H57.936C57.1963 55.9483 55.9483 57.1963 54.4 57.936V64H52.2667V58.5813C51.9133 58.6353 51.5573 58.6633 51.2 58.6667H49.0667V64H46.9333V58.6667H43.7333V64H41.6V58.6667H38.4V64H36.2667V58.6667H33.0667V64H30.9333V58.6667H27.7333V64H25.6V58.6667H22.4V64H20.2667V58.6667H17.0667V64H14.9333V58.6667H12.8C12.4427 58.6633 12.0867 58.6353 11.7333 58.5813V64H9.6V57.936C8.05167 57.1963 6.80367 55.9483 6.064 54.4H0V52.2667H5.41867C5.36467 51.9133 5.33667 51.5573 5.33333 51.2V49.0667H0V46.9333H5.33333V43.7333H0V41.6H5.33333V38.4H0V36.2667H5.33333V33.0667H0V30.9333H5.33333V27.7333H0V25.6H5.33333V22.4H0V20.2667H5.33333V17.0667H0V14.9333H5.33333V12.8C5.33667 12.4427 5.36467 12.0867 5.41867 11.7333H0V9.6H6.064C6.80367 8.05167 8.05167 6.80367 9.6 6.064V0H11.7333V5.41867C12.0867 5.36467 12.4427 5.33667 12.8 5.33333H14.9333V0H17.0667V5.33333H20.2667V0H22.4V5.33333H25.6V0H27.7333V5.33333H30.9333V0H33.0667V5.33333H36.2667V0H38.4V5.33333H41.6V0H43.7333V5.33333H46.9333V0H49.0667V5.33333H51.2C51.5573 5.33667 51.9133 5.36467 52.2667 5.41867V0H54.4ZM51.2 56.5333C54.144 56.5297 56.5297 54.144 56.5333 51.2V12.8C56.5297 9.856 54.144 7.47033 51.2 7.46667H12.8C9.856 7.47033 7.47033 9.856 7.46667 12.8V51.2C7.47033 54.144 9.856 56.5297 12.8 56.5333H51.2Z" fill="black"/>
<path fill-rule="evenodd" clip-rule="evenodd" d="M13.8667 10.6666H50.1334C51.9004 10.6666 53.3334 12.0996 53.3334 13.8666V50.1333C53.3334 51.9003 51.9004 53.3333 50.1334 53.3333H13.8667C12.0997 53.3333 10.6667 51.9003 10.6667 50.1333V13.8666C10.6667 12.0996 12.0997 10.6666 13.8667 10.6666ZM50.1334 51.2C50.7227 51.2 51.2 50.7226 51.2 50.1333V13.8666C51.2 13.2773 50.7227 12.8 50.1334 12.8H13.8667C13.2774 12.8 12.8 13.2773 12.8 13.8666V50.1333C12.8 50.7226 13.2774 51.2 13.8667 51.2H50.1334Z" fill="black"/>
<path d="M46.9333 14.9333H49.0667V17.0667H46.9333V14.9333Z" fill="black"/>
<path d="M14.9333 46.9333H17.0667V49.0667H14.9333V46.9333Z" fill="black"/>
<path d="M14.9333 17.0667V20.2667H17.0667V17.0667H20.2667V14.9333H17.0667C15.8883 14.9333 14.9333 15.8883 14.9333 17.0667Z" fill="black"/>
<path d="M46.9333 46.9333H43.7333V49.0666H49.0667V43.7333H46.9333V46.9333Z" fill="black"/>
</svg>
