<svg width="64" height="64" viewBox="0 0 64 64" fill="none" xmlns="http://www.w3.org/2000/svg">
<path d="M32 33.2275C31.4755 33.2275 31.0029 32.8882 30.8242 32.3979C30.6479 31.915 30.7998 31.3564 31.1914 31.0239C31.6005 30.6767 32.2036 30.6323 32.6596 30.9155C33.0971 31.187 33.3247 31.7168 33.2251 32.2212C33.1108 32.7978 32.5883 33.2275 32 33.2275Z" fill="black"/>
<path fill-rule="evenodd" clip-rule="evenodd" d="M15.6807 32C15.6807 23.0015 23.0015 15.6807 32 15.6807C40.9985 15.6807 48.3193 23.0015 48.3193 32C48.3193 40.9985 40.9985 48.3193 32 48.3193C23.0015 48.3193 15.6807 40.9985 15.6807 32ZM33.25 37.6528V45.7632C40.2866 45.1294 45.8193 39.1987 45.8193 32C45.8193 24.8013 40.2866 18.8706 33.25 18.2368V26.3472C33.25 27.0376 32.6904 27.5972 32 27.5972C31.3096 27.5972 30.75 27.0376 30.75 26.3472V18.2368C23.7134 18.8706 18.1807 24.8013 18.1807 32C18.1807 39.1987 23.7134 45.1294 30.75 45.7632V37.6528C30.75 36.9624 31.3096 36.4028 32 36.4028C32.6904 36.4028 33.25 36.9624 33.25 37.6528Z" fill="black"/>
<path fill-rule="evenodd" clip-rule="evenodd" d="M10.4307 32C10.4307 43.8936 20.1064 53.5693 32 53.5693C43.8936 53.5693 53.5693 43.8936 53.5693 32C53.5693 20.1064 43.8936 10.4307 32 10.4307C20.1064 10.4307 10.4307 20.1064 10.4307 32ZM12.9307 32C12.9307 21.4854 21.4854 12.9307 32 12.9307C42.5146 12.9307 51.0693 21.4854 51.0693 32C51.0693 42.5146 42.5146 51.0693 32 51.0693C21.4854 51.0693 12.9307 42.5146 12.9307 32Z" fill="black"/>
<path d="M32 7.125C31.3096 7.125 30.75 6.56543 30.75 5.875V1.25C30.75 0.55957 31.3096 0 32 0C32.6904 0 33.25 0.55957 33.25 1.25V5.875C33.25 6.56543 32.6904 7.125 32 7.125Z" fill="black"/>
<path d="M32 64C31.3096 64 30.75 63.4404 30.75 62.75V58.125C30.75 57.4346 31.3096 56.875 32 56.875C32.6904 56.875 33.25 57.4346 33.25 58.125V62.75C33.25 63.4404 32.6904 64 32 64Z" fill="black"/>
<path d="M62.75 33.25H58.125C57.4346 33.25 56.875 32.6904 56.875 32C56.875 31.3096 57.4346 30.75 58.125 30.75H62.75C63.4404 30.75 64 31.3096 64 32C64 32.6904 63.4404 33.25 62.75 33.25Z" fill="black"/>
<path d="M5.875 33.25H1.25C0.55957 33.25 0 32.6904 0 32C0 31.3096 0.55957 30.75 1.25 30.75H5.875C6.56543 30.75 7.125 31.3096 7.125 32C7.125 32.6904 6.56543 33.25 5.875 33.25Z" fill="black"/>
<path d="M53.7437 54.9937C53.4233 54.9937 53.1035 54.8716 52.8599 54.6274L49.5894 51.3569C49.1011 50.8687 49.1011 50.0771 49.5894 49.5894C50.0776 49.1011 50.8687 49.1011 51.3569 49.5894L54.6274 52.8594C55.1157 53.3477 55.1157 54.1392 54.6274 54.6274C54.3833 54.8716 54.0635 54.9937 53.7437 54.9937Z" fill="black"/>
<path d="M13.5269 14.7769C13.207 14.7769 12.8872 14.6548 12.6431 14.4106L9.37256 11.1401C8.88428 10.6523 8.88428 9.86084 9.37256 9.37256C9.86084 8.88428 10.6519 8.88428 11.1401 9.37256L14.4106 12.6431C14.8989 13.1309 14.8989 13.9224 14.4106 14.4106C14.1665 14.6548 13.8467 14.7769 13.5269 14.7769Z" fill="black"/>
<path d="M50.4731 14.7769C50.1533 14.7769 49.8335 14.6548 49.5894 14.4106C49.1011 13.9229 49.1011 13.1313 49.5894 12.6431L52.8599 9.37256C53.3477 8.88428 54.1392 8.88428 54.6274 9.37256C55.1157 9.86084 55.1157 10.6523 54.6274 11.1401L51.3569 14.4106C51.1128 14.6548 50.793 14.7769 50.4731 14.7769Z" fill="black"/>
<path d="M10.2563 54.9937C9.93652 54.9937 9.6167 54.8716 9.37256 54.6274C8.88428 54.1392 8.88428 53.3477 9.37256 52.8599L12.6431 49.5894C13.1313 49.1011 13.9224 49.1011 14.4106 49.5894C14.8989 50.0771 14.8989 50.8687 14.4106 51.3569L11.1401 54.6274C10.8965 54.8716 10.5762 54.9937 10.2563 54.9937Z" fill="black"/>
</svg>
