<svg xmlns="http://www.w3.org/2000/svg" width="64" height="64" viewBox="0 0 64 64">
    <path fill-rule="nonzero" d="M1.069 64A1.07 1.07 0 0 1 0 62.933v-7.466c0-.018.01-.032.01-.05.005-.115.028-.227.068-.334.004-.012.005-.026.01-.038.042-.096.097-.187.164-.267L11.37 41.666a3.209 3.209 0 0 1 2.448-1.133h9.191a52.047 52.047 0 0 1 3.044-12.548 22.481 22.481 0 0 1-.386-12.211L.658 5.453a1.077 1.077 0 0 1-.346-.232 1.128 1.128 0 0 1-.098-.146.982.982 0 0 1-.132-.195A1.05 1.05 0 0 1 0 4.474V1.067C0 .477.478 0 1.069 0h8.507c.08.007.16.023.236.048.059.007.117.019.174.036h.006l18.867 7.78a20.128 20.128 0 0 1 3.824-4.586C35.836.529 39.33-.487 42.515.414a8.265 8.265 0 0 1 2.085.929c.032.01.063.021.092.035l6.4 3.19a2.982 2.982 0 0 1 2.702.2l4.34 1.934c.006.003.01.01.016.01a3.93 3.93 0 0 1 2.164 2.603c3.499 3.067 4.646 9.295 2.838 15.666-1.896 6.67-6.579 11.585-11.388 11.947h-.135c-.039 0-.077-.002-.116-.006l-1.424-.154a3.853 3.853 0 0 1-1.938.565h-.084l-6.295-.06c-.028 0-.05-.016-.077-.016-.083-.007-.164-.007-.246-.02a3.003 3.003 0 0 1-2.12-1.504l-4.894-.474a7.692 7.692 0 0 1-.694-.068 34.8 34.8 0 0 0-3.41 5.342h7.15c.945 0 1.84.414 2.45 1.133l11.115 13.112c.067.08.122.17.163.267.006.012.012.026.012.039.04.106.062.219.066.333.001.018.011.032.011.05v7.466c0 .59-.478 1.067-1.069 1.067H1.07zm48.092-2.133v-5.334H2.137v5.334h47.024zM18.469 48c1.275.512 2.625.816 3.996.9.009-.606.012-1.215.033-1.808A13.017 13.017 0 0 0 18.47 48zm9.699-19.591C25.892 34.079 24.7 41.026 24.6 49.052c.36.01.728.016 1.105.016a22.76 22.76 0 0 1 1.95-7.874l.009-.02a35.494 35.494 0 0 1 4.803-7.82 46.83 46.83 0 0 1 2.694-3.093 19.323 19.323 0 0 1 3.195-2.61 12.656 12.656 0 0 0 3.622-4.172c-8.061-2.936-10.18-1.42-10.237-1.376-.351.404-.672.831-.962 1.28a27.365 27.365 0 0 0-2.611 5.027zm15.635-9.298v.002c1.724-6.053.376-11.966-2.93-12.904-3.301-.926-7.56 3.391-9.28 9.441a19.486 19.486 0 0 0-.718 4.47c1.255-.657 4.51-1.341 12.038 1.432.351-.793.649-1.608.89-2.44zm4.55-13.525v.001c2.04 3.968 2.51 9.616.878 15.387-1.652 5.81-4.986 10.422-8.834 12.717l3.634.35c.409-.34.792-.71 1.146-1.108a32.074 32.074 0 0 0 5.382-9.2 38.799 38.799 0 0 0 3.08-11.617c.122-1.336.05-2.684-.214-4l-5.071-2.53zM28.077 47.024c-.119.65-.202 1.307-.25 1.967a15.094 15.094 0 0 0 5.006-.989 14.439 14.439 0 0 0-4.756-.978zM48.134 35.2c1.27 0 2.55-1.789 3.401-2.973.135-.186.261-.364.378-.521a33.685 33.685 0 0 0 4.35-8.24 33.128 33.128 0 0 0 2.27-9.46 13.392 13.392 0 0 0-.158-3.78.845.845 0 0 1-.03-.108 2.02 2.02 0 0 0-1.038-1.46c-.006-.002-.01-.01-.017-.01h-.02l-1.697-.755a16.44 16.44 0 0 1 .194 4.404 40.8 40.8 0 0 1-3.237 12.256 35.144 35.144 0 0 1-5.756 9.799c-.2.225-.475.516-.803.827l2.132.021h.03zm12.962-10.809a16.29 16.29 0 0 0-.387-11.009c-.015.296-.032.561-.047.775a35.273 35.273 0 0 1-2.4 10.062 35.87 35.87 0 0 1-4.63 8.753l-.358.493c-.273.373-.575.8-.915 1.226 3.607-.744 7.21-4.924 8.737-10.3zM34.092 4.884a21.03 21.03 0 0 0-6.042 10.107 22.339 22.339 0 0 0-.625 9.893c.413-.815.868-1.608 1.363-2.376-.21-2.504.044-5.025.748-7.437 2.103-7.407 7.345-12.216 11.92-10.912 4.573 1.303 6.507 8.127 4.403 15.536a21.355 21.355 0 0 1-1.378 3.596c-.013.027-.024.056-.037.084a15.587 15.587 0 0 1-4.885 6.03 17.37 17.37 0 0 0-2.85 2.32 46.3 46.3 0 0 0-1.272 1.401c4.787-.313 9.703-5.588 11.734-12.735 2.38-8.393.032-16.432-5.237-17.925-2.47-.697-5.253.16-7.842 2.418zM9.363 2.134H2.137v1.622l24.088 9.943c.42-1.36.95-2.682 1.584-3.956L9.363 2.133zm3.634 40.91L3.373 54.4h44.552l-9.63-11.356a1.07 1.07 0 0 0-.816-.377h-8.123c-.3.738-.561 1.49-.784 2.255 2.949.253 6.695.987 6.695 3.078 0 2.606-5.817 3.093-8.423 3.174a.977.977 0 0 1-.126.026.962.962 0 0 1-.096-.02c-.321.01-.642.02-.973.02-.678 0-1.281-.022-1.853-.058a1.013 1.013 0 0 1-.284.058 1.06 1.06 0 0 1-.446-.107c-2.78-.204-7.035-.884-7.035-3.093 0-2.09 3.774-2.814 6.587-3.062.046-.768.104-1.525.175-2.271h-8.977a1.07 1.07 0 0 0-.82.377zm4.102-8.91a3.203 3.203 0 0 1-3.206-3.2c0-1.768 1.436-3.2 3.206-3.2a3.203 3.203 0 0 1 3.206 3.2c0 1.767-1.435 3.2-3.206 3.2zm0-4.267a1.068 1.068 0 1 0-.002 2.135 1.068 1.068 0 0 0 .002-2.135zm-6.412-3.2a1.068 1.068 0 1 1-.002-2.136 1.068 1.068 0 0 1 .002 2.136zm3.206-5.334a1.068 1.068 0 1 1-.002-2.135 1.068 1.068 0 0 1 .002 2.135z"/>
</svg>
