<svg xmlns="http://www.w3.org/2000/svg" width="69" height="64" viewBox="0 0 69 64">
    <path fill-rule="nonzero" d="M60.107.037L69 14.757v5.523H0v-2.094h66.892v-2.092H2.107v3.14H0v-4.477L8.893.037h51.214zM3.11 14.001h62.666L58.452 1.46H10.432l-7.323 12.54zm18.189 14.447c7.28-7.232 19.124-7.232 26.404 0l-1.49 1.48c-6.458-6.415-16.966-6.416-23.424 0l-1.49-1.48zm13.202-.054a9.829 9.829 0 0 1 6.973 2.87l-1.49 1.48a7.73 7.73 0 0 0-5.483-2.257 7.73 7.73 0 0 0-5.483 2.257l-1.49-1.48a9.83 9.83 0 0 1 6.973-2.87zm-3.86 6.325a5.49 5.49 0 0 1 7.72 0L36.868 36.2a3.37 3.37 0 0 0-4.738 0l-1.49-1.48zm18.444 7.21c4.185 1.846 6.49 4.403 6.49 7.2v4.956c0 2.798-2.305 5.355-6.49 7.201-3.913 1.726-9.093 2.677-14.584 2.677s-10.67-.951-14.584-2.677c-4.185-1.846-6.49-4.403-6.49-7.201V49.13c0-2.798 2.305-5.355 6.49-7.201 3.913-1.726 9.093-2.677 14.584-2.677 5.492 0 10.67.95 14.584 2.677zM20.77 43.842c-3.328 1.469-5.237 3.396-5.237 5.288 0 1.892 1.909 3.819 5.237 5.287 3.65 1.61 8.525 2.497 13.729 2.497 5.203 0 10.079-.887 13.728-2.497 3.329-1.468 5.238-3.395 5.238-5.287s-1.91-3.82-5.238-5.288c-3.65-1.61-8.525-2.496-13.728-2.496-5.203 0-10.079.887-13.729 2.496zm32.695 10.243v-.55c-1.076 1.042-2.548 1.987-4.382 2.796-3.913 1.726-9.092 2.677-14.584 2.677-5.491 0-10.67-.95-14.584-2.677-1.833-.809-3.306-1.754-4.382-2.797v.551c0 1.892 1.91 3.82 5.238 5.287 3.65 1.61 8.525 2.497 13.728 2.497 5.203 0 10.08-.887 13.729-2.497 3.328-1.468 5.237-3.395 5.237-5.287zM34.5 44.458c5.286 0 9.272 2.009 9.272 4.672s-3.986 4.672-9.272 4.672-9.272-2.009-9.272-4.672 3.986-4.672 9.272-4.672zm0 7.25c4.373 0 7.164-1.527 7.164-2.578s-2.79-2.578-7.164-2.578-7.164 1.527-7.164 2.578 2.79 2.578 7.164 2.578z"/>
</svg>
