<svg xmlns="http://www.w3.org/2000/svg" width="86" height="64" viewBox="0 0 86 64">
    <path fill-rule="nonzero" d="M84.044 0c.987 0 1.789.796 1.789 1.778v60.444c0 .981-.802 1.778-1.789 1.778H1.788A1.784 1.784 0 0 1 0 62.222V1.778C0 .796.801 0 1.788 0h82.256zm-1.788 60.444V3.555H3.576v56.89h78.68zM5.472 3.555c.987 0 1.788.797 1.788 1.778 0 .982-.801 1.778-1.788 1.778s-1.806-.796-1.806-1.778c0-.981.783-1.778 1.77-1.778h.036zm0 7.112c.987 0 1.788.796 1.788 1.777 0 .982-.801 1.778-1.788 1.778s-1.806-.796-1.806-1.777c0-.982.783-1.778 1.77-1.778h.036zm0 7.11c.987 0 1.788.797 1.788 1.778 0 .982-.801 1.778-1.788 1.778s-1.806-.796-1.806-1.777c0-.982.783-1.778 1.77-1.778h.036zm0 7.112c.987 0 1.788.796 1.788 1.778 0 .981-.801 1.777-1.788 1.777s-1.806-.796-1.806-1.777c0-.982.783-1.778 1.77-1.778h.036zm0 7.111c.987 0 1.788.797 1.788 1.778s-.801 1.778-1.788 1.778-1.806-.797-1.806-1.778S4.449 32 5.436 32h.036zm0 7.111c.987 0 1.788.797 1.788 1.778s-.801 1.778-1.788 1.778-1.806-.797-1.806-1.778.783-1.778 1.77-1.778h.036zm0 7.111c.987 0 1.788.797 1.788 1.778s-.801 1.778-1.788 1.778S3.666 48.98 3.666 48s.783-1.778 1.77-1.778h.036zm0 7.111c.987 0 1.788.797 1.788 1.778 0 .982-.801 1.778-1.788 1.778s-1.806-.797-1.806-1.778.783-1.778 1.77-1.778h.036zM9.048 7.111c.987 0 1.788.796 1.788 1.778 0 .981-.8 1.778-1.788 1.778-.987 0-1.806-.797-1.806-1.778s.783-1.778 1.77-1.778h.036zm0 7.111c.987 0 1.788.797 1.788 1.778s-.8 1.778-1.788 1.778c-.987 0-1.806-.797-1.806-1.778s.783-1.778 1.77-1.778h.036zm0 7.111c.987 0 1.788.797 1.788 1.778 0 .982-.8 1.778-1.788 1.778-.987 0-1.806-.796-1.806-1.778 0-.981.783-1.778 1.77-1.778h.036zm0 7.112c.987 0 1.788.796 1.788 1.777 0 .981-.8 1.778-1.788 1.778-.987 0-1.806-.796-1.806-1.778 0-.981.783-1.777 1.77-1.777h.036zm0 7.11c.987 0 1.788.797 1.788 1.778 0 .982-.8 1.778-1.788 1.778-.987 0-1.806-.796-1.806-1.778 0-.981.783-1.777 1.77-1.777h.036zm0 7.112c.987 0 1.788.796 1.788 1.777 0 .982-.8 1.778-1.788 1.778-.987 0-1.806-.796-1.806-1.778 0-.98.783-1.777 1.77-1.777h.036zm0 7.11c.987 0 1.788.797 1.788 1.779 0 .981-.8 1.778-1.788 1.778-.987 0-1.806-.797-1.806-1.778 0-.982.783-1.778 1.77-1.778h.036zm0 7.112c.987 0 1.788.796 1.788 1.778 0 .981-.8 1.777-1.788 1.777-.987 0-1.806-.796-1.806-1.777 0-.982.783-1.778 1.77-1.778h.036zm3.577-53.334c.987 0 1.788.797 1.788 1.778 0 .982-.801 1.778-1.788 1.778-.988 0-1.806-.796-1.806-1.778 0-.981.783-1.778 1.77-1.778h.036zm0 7.112c.987 0 1.788.796 1.788 1.777 0 .982-.801 1.778-1.788 1.778-.988 0-1.806-.796-1.806-1.777 0-.982.783-1.778 1.77-1.778h.036zm0 7.11c.987 0 1.788.797 1.788 1.778 0 .982-.801 1.778-1.788 1.778-.988 0-1.806-.796-1.806-1.777 0-.982.783-1.778 1.77-1.778h.036zm0 7.112c.987 0 1.788.796 1.788 1.778 0 .981-.801 1.777-1.788 1.777-.988 0-1.806-.796-1.806-1.777 0-.982.783-1.778 1.77-1.778h.036zm0 7.111c.987 0 1.788.797 1.788 1.778s-.801 1.778-1.788 1.778c-.988 0-1.806-.797-1.806-1.778S11.602 32 12.589 32h.036zm0 7.111c.987 0 1.788.797 1.788 1.778s-.801 1.778-1.788 1.778c-.988 0-1.806-.797-1.806-1.778s.783-1.778 1.77-1.778h.036zm0 7.111c.987 0 1.788.797 1.788 1.778s-.801 1.778-1.788 1.778c-.988 0-1.806-.797-1.806-1.778s.783-1.778 1.77-1.778h.036zm0 7.111c.987 0 1.788.797 1.788 1.778 0 .982-.801 1.778-1.788 1.778-.988 0-1.806-.797-1.806-1.778s.783-1.778 1.77-1.778h.036zM16.2 7.111c.987 0 1.788.796 1.788 1.778 0 .981-.801 1.778-1.788 1.778s-1.806-.797-1.806-1.778.783-1.778 1.77-1.778h.036zm0 7.111c.987 0 1.788.797 1.788 1.778s-.801 1.778-1.788 1.778-1.806-.797-1.806-1.778.783-1.778 1.77-1.778h.036zm0 7.111c.987 0 1.788.797 1.788 1.778 0 .982-.801 1.778-1.788 1.778s-1.806-.796-1.806-1.778c0-.981.783-1.778 1.77-1.778h.036zm0 7.112c.987 0 1.788.796 1.788 1.777 0 .981-.801 1.778-1.788 1.778s-1.806-.796-1.806-1.778c0-.981.783-1.777 1.77-1.777h.036zm0 7.11c.987 0 1.788.797 1.788 1.778 0 .982-.801 1.778-1.788 1.778s-1.806-.796-1.806-1.778c0-.981.783-1.777 1.77-1.777h.036zm0 7.112c.987 0 1.788.796 1.788 1.777 0 .982-.801 1.778-1.788 1.778s-1.806-.796-1.806-1.778c0-.98.783-1.777 1.77-1.777h.036zm0 7.11c.987 0 1.788.797 1.788 1.779 0 .981-.801 1.778-1.788 1.778s-1.806-.797-1.806-1.778c0-.982.783-1.778 1.77-1.778h.036zm0 7.112c.987 0 1.788.796 1.788 1.778 0 .981-.801 1.777-1.788 1.777s-1.806-.796-1.806-1.777c0-.982.783-1.778 1.77-1.778h.036zm3.576-53.334c.987 0 1.788.797 1.788 1.778 0 .982-.8 1.778-1.788 1.778-.987 0-1.806-.796-1.806-1.778 0-.981.783-1.778 1.77-1.778h.036zm0 7.112c.987 0 1.788.796 1.788 1.777 0 .982-.8 1.778-1.788 1.778-.987 0-1.806-.796-1.806-1.777 0-.982.783-1.778 1.77-1.778h.036zm0 7.11c.987 0 1.788.797 1.788 1.778 0 .982-.8 1.778-1.788 1.778-.987 0-1.806-.796-1.806-1.777 0-.982.783-1.778 1.77-1.778h.036zm0 7.112c.987 0 1.788.796 1.788 1.778 0 .981-.8 1.777-1.788 1.777-.987 0-1.806-.796-1.806-1.777 0-.982.783-1.778 1.77-1.778h.036zm0 7.111c.987 0 1.788.797 1.788 1.778s-.8 1.778-1.788 1.778c-.987 0-1.806-.797-1.806-1.778S18.754 32 19.741 32h.036zm0 7.111c.987 0 1.788.797 1.788 1.778s-.8 1.778-1.788 1.778c-.987 0-1.806-.797-1.806-1.778s.783-1.778 1.77-1.778h.036zm0 7.111c.987 0 1.788.797 1.788 1.778s-.8 1.778-1.788 1.778c-.987 0-1.806-.797-1.806-1.778s.783-1.778 1.77-1.778h.036zm0 7.111c.987 0 1.788.797 1.788 1.778 0 .982-.8 1.778-1.788 1.778-.987 0-1.806-.797-1.806-1.778s.783-1.778 1.77-1.778h.036zM26.93 7.111c.987 0 1.788.796 1.788 1.778 0 .981-.801 1.778-1.788 1.778s-1.806-.797-1.806-1.778.783-1.778 1.77-1.778h.036zm0 14.222c.987 0 1.788.797 1.788 1.778 0 .982-.801 1.778-1.788 1.778s-1.806-.796-1.806-1.778c0-.981.783-1.778 1.77-1.778h.036zm0 14.223c.987 0 1.788.796 1.788 1.777 0 .982-.801 1.778-1.788 1.778s-1.806-.796-1.806-1.778c0-.981.783-1.777 1.77-1.777h.036zm0 14.222c.987 0 1.788.796 1.788 1.778 0 .981-.801 1.778-1.788 1.778s-1.806-.797-1.806-1.778c0-.982.783-1.778 1.77-1.778h.036zM48.388 7.11c.987 0 1.788.796 1.788 1.778 0 .981-.8 1.778-1.788 1.778-.987 0-1.806-.797-1.806-1.778s.783-1.778 1.77-1.778h.036zm10.729 3.556c.987 0 1.788.796 1.788 1.777 0 .982-.8 1.778-1.788 1.778-.987 0-1.806-.796-1.806-1.777 0-.982.783-1.778 1.77-1.778h.036zm0 14.222c.987 0 1.788.796 1.788 1.778 0 .981-.8 1.777-1.788 1.777-.987 0-1.806-.796-1.806-1.777 0-.982.783-1.778 1.77-1.778h.036zm0 14.222c.987 0 1.788.797 1.788 1.778s-.8 1.778-1.788 1.778c-.987 0-1.806-.797-1.806-1.778s.783-1.778 1.77-1.778h.036zm0 14.222c.987 0 1.788.797 1.788 1.778 0 .982-.8 1.778-1.788 1.778-.987 0-1.806-.797-1.806-1.778s.783-1.778 1.77-1.778h.036zm10.73-46.222c.986 0 1.787.796 1.787 1.778 0 .981-.8 1.778-1.788 1.778-.987 0-1.806-.797-1.806-1.778s.783-1.778 1.77-1.778h.036zm0 14.222c.986 0 1.787.797 1.787 1.778 0 .982-.8 1.778-1.788 1.778-.987 0-1.806-.796-1.806-1.778 0-.981.783-1.778 1.77-1.778h.036zm0 14.223c.986 0 1.787.796 1.787 1.777 0 .982-.8 1.778-1.788 1.778-.987 0-1.806-.796-1.806-1.778 0-.981.783-1.777 1.77-1.777h.036zm0 14.222c.986 0 1.787.796 1.787 1.778 0 .981-.8 1.778-1.788 1.778-.987 0-1.806-.797-1.806-1.778 0-.982.783-1.778 1.77-1.778h.036zm-21.459-32c.987 0 1.788.796 1.788 1.777 0 .982-.8 1.778-1.788 1.778-.987 0-1.806-.796-1.806-1.777 0-.982.783-1.778 1.77-1.778h.036zm0 10.667c.987 0 1.788.796 1.788 1.777 0 .981-.8 1.778-1.788 1.778-.987 0-1.806-.796-1.806-1.778 0-.981.783-1.777 1.77-1.777h.036zm0 10.666c.987 0 1.788.797 1.788 1.778s-.8 1.778-1.788 1.778c-.987 0-1.806-.797-1.806-1.778s.783-1.778 1.77-1.778h.036zm0 10.667c.987 0 1.788.796 1.788 1.778 0 .981-.8 1.778-1.788 1.778-.987 0-1.806-.797-1.806-1.778 0-.982.783-1.778 1.77-1.778h.036zm-7.153-39.111c.987 0 1.788.796 1.788 1.777 0 .982-.8 1.778-1.788 1.778-.987 0-1.806-.796-1.806-1.777 0-.982.783-1.778 1.77-1.778h.036zm0 10.666c.987 0 1.788.797 1.788 1.778 0 .982-.8 1.778-1.788 1.778-.987 0-1.806-.796-1.806-1.778 0-.981.783-1.778 1.77-1.778h.036zm0 10.667c.987 0 1.788.797 1.788 1.778s-.8 1.778-1.788 1.778c-.987 0-1.806-.797-1.806-1.778S40.212 32 41.2 32h.036zm0 10.667c.987 0 1.788.796 1.788 1.777 0 .982-.8 1.778-1.788 1.778-.987 0-1.806-.796-1.806-1.778 0-.98.783-1.777 1.77-1.777h.036zm0 10.666c.987 0 1.788.797 1.788 1.778 0 .982-.8 1.778-1.788 1.778-.987 0-1.806-.797-1.806-1.778s.783-1.778 1.77-1.778h.036zM34.083 3.556c.987 0 1.788.796 1.788 1.777 0 .982-.801 1.778-1.788 1.778s-1.806-.796-1.806-1.778c0-.981.783-1.778 1.77-1.778h.036zm0 10.666c.987 0 1.788.797 1.788 1.778s-.801 1.778-1.788 1.778-1.806-.797-1.806-1.778.783-1.778 1.77-1.778h.036zm0 10.667c.987 0 1.788.796 1.788 1.778 0 .981-.801 1.777-1.788 1.777s-1.806-.796-1.806-1.777c0-.982.783-1.778 1.77-1.778h.036zm0 10.667c.987 0 1.788.796 1.788 1.777 0 .982-.801 1.778-1.788 1.778s-1.806-.796-1.806-1.778c0-.981.783-1.777 1.77-1.777h.036zm0 10.666c.987 0 1.788.797 1.788 1.778s-.801 1.778-1.788 1.778-1.806-.797-1.806-1.778.783-1.778 1.77-1.778h.036zm0 10.667c.987 0 1.788.796 1.788 1.778 0 .981-.801 1.777-1.788 1.777s-1.806-.796-1.806-1.777c0-.982.783-1.778 1.77-1.778h.036z"/>
</svg>
