<svg width="69" height="64" viewBox="0 0 69 64" fill="none" xmlns="http://www.w3.org/2000/svg">
<path fill-rule="evenodd" clip-rule="evenodd" d="M60.1075 0.0373535H8.89251L0 14.7574V18.1864V19.2333V20.2802H69V14.7574L60.1075 0.0373535ZM66.8924 18.1864H2.10746V16.0944H66.8924V18.1864ZM3.1085 14.0006L10.4315 1.46169H17.2016H58.4522L65.7751 14.0006H3.1085ZM22.7882 29.9286L21.298 28.448C28.5776 21.2157 40.4223 21.2157 47.702 28.448L46.2118 29.9286C39.7538 23.5126 29.246 23.5124 22.7882 29.9286ZM34.4999 28.3936C31.8655 28.3936 29.3889 29.4128 27.5263 31.2635L29.0165 32.744C30.4813 31.2888 32.4285 30.4874 34.4999 30.4874C36.5711 30.4874 38.5184 31.2888 39.9831 32.7439L41.4734 31.2636C39.6107 29.4127 37.1341 28.3936 34.4999 28.3936ZM32.1308 36.2L30.6407 34.7193C32.7685 32.6056 36.2312 32.6053 38.3593 34.7193L36.8689 36.2C35.5626 34.902 33.4372 34.902 32.1308 36.2ZM49.0838 41.9287C45.1707 40.2028 39.9916 39.2522 34.5 39.2522C29.0086 39.2522 23.8291 40.2028 19.9163 41.9287C15.7313 43.7749 13.4266 46.3321 13.4266 49.1299V54.085C13.4266 56.8826 15.7313 59.4401 19.9163 61.286C23.8293 63.012 29.0086 63.9626 34.5 63.9626C39.9914 63.9626 45.1707 63.012 49.0838 61.286C53.2688 59.4399 55.5736 56.8826 55.5736 54.085V49.1299C55.5736 46.3321 53.2687 43.7749 49.0838 41.9287ZM20.7714 43.8424C24.421 42.2326 29.2966 41.346 34.4999 41.346C39.7033 41.346 44.5788 42.2326 48.2284 43.8424C51.5569 45.3107 53.4658 47.2378 53.4658 49.1299C53.466 51.0219 51.557 52.949 48.2284 54.4174C44.5788 56.0272 39.7032 56.9138 34.4999 56.9138C29.2964 56.9138 24.4209 56.0272 20.7714 54.4174C17.443 52.949 15.534 51.0219 15.534 49.1299C15.534 47.2378 17.443 45.3107 20.7714 43.8424ZM48.2287 59.3725C51.5571 57.9041 53.4661 55.977 53.4661 54.085V53.5344C52.3901 54.5767 50.9176 55.5223 49.0839 56.3311C45.1709 58.0571 39.9916 59.0077 34.5001 59.0077C29.0087 59.0077 23.8294 58.0571 19.9165 56.3311C18.083 55.5221 16.6104 54.5767 15.5343 53.5344V54.085C15.5343 55.977 17.4433 57.9041 20.7717 59.3725C24.4211 60.9822 29.2967 61.8689 34.5001 61.8689C39.7034 61.8689 44.5791 60.9822 48.2287 59.3725ZM34.4999 44.458C29.2141 44.458 25.2281 46.4665 25.2281 49.1299C25.2281 51.7933 29.2141 53.8018 34.4999 53.8018C39.7856 53.8018 43.7716 51.7933 43.7716 49.1299C43.7719 46.4665 39.7856 44.458 34.4999 44.458ZM34.4999 51.708C30.1264 51.708 27.3356 50.1811 27.3356 49.1299C27.3356 48.0789 30.1264 46.5518 34.4999 46.5518C38.8733 46.5518 41.6641 48.0789 41.6641 49.1299C41.6643 50.1811 38.8733 51.708 34.4999 51.708Z" fill="#2B2D30"/>
</svg>
