<svg width="20" height="20" viewBox="0 0 20 20" fill="none" xmlns="http://www.w3.org/2000/svg">
<path fill-rule="evenodd" clip-rule="evenodd" d="M13.9837 1.05375V4.47523V4.49193H12.0325V2.54152C12.0325 2.26052 11.8211 2.04565 11.5447 2.04565H3.77236L8.14634 4.32664C8.45528 4.49193 8.66667 4.83904 8.66667 5.20267V5.30185V8.52499V13.6159H11.5447C11.8211 13.6159 12.0325 13.401 12.0325 13.12V9.18614H13.9837V14.6076C13.9837 15.1533 13.5449 15.5994 13.0081 15.5994H8.65041V19.401C8.65041 19.7814 8.26016 20.0126 7.93496 19.8473L0.520325 15.9463C0.211382 15.781 0 15.4339 0 15.0704V14.624V1.69838V1.05375C0 0.508293 0.439024 0.0620117 0.97561 0.0620117H13.0081C13.5449 0.0620117 13.9837 0.508293 13.9837 1.05375ZM19.6585 6.07838L16.4878 2.85523C16.0813 2.44201 15.4472 2.42565 15.0569 2.82234C14.6667 3.20251 14.7154 3.88019 15.0896 4.26036C15.1059 4.26036 16.5203 5.69838 16.5203 5.69838H10.9756C10.813 5.69838 10.6341 5.74796 10.4878 5.83061C9.90244 6.16119 9.78862 7.03722 10.2439 7.53309C10.4228 7.74796 10.6993 7.86366 10.9756 7.86366H16.5202L15.0894 9.30168C14.7153 9.69838 14.6667 10.3597 15.0567 10.7562C15.4633 11.1694 16.0813 11.1528 16.4878 10.7395L19.6585 7.51639C20.065 7.10317 20.065 6.4916 19.6585 6.07838Z" fill="#FF548C"/>
</svg>
