<svg width="70" height="40" viewBox="0 0 70 40" fill="none" xmlns="http://www.w3.org/2000/svg">
<path fill-rule="evenodd" clip-rule="evenodd" d="M52.9691 39.9918L52.9691 39.9918C52.9638 39.9938 52.9576 39.9962 52.95 40H44C44 40 46.96 39.54 47 38V37H43V33V27H68V2H24V15H22.02L22 1.53C22 0.83 22.83 0 23.53 0H68.47C69.17 0 70 0.83 70 1.53V31.47C70 32.17 69.17 33 68.47 33H49L49.88 37.13C50.18 38.5 51.45 39.41 52.81 39.32H52.88C53.08 39.32 53.23 39.47 53.23 39.66C53.23 39.81 53.13 39.94 52.99 39.98C52.9866 39.9834 52.9832 39.9857 52.9794 39.9875C52.9763 39.9891 52.9729 39.9903 52.9691 39.9918ZM42 38V17.5C42 16.54 41.48 16 40.5 16H5.5C4.52 16 4 16.5 4 17.5V38H0C0.0122886 38.0221 0.0263893 38.0527 0.0418567 38.0862C0.0893235 38.1892 0.149662 38.32 0.21 38.32C0.21 38.32 2.28 39.57 4.85 39.74C7.42 39.92 9.99 40.01 10 40H23H36C36 40 38.36 39.92 40.93 39.75C43.5 39.58 45.57 38.33 45.57 38.33C45.65 38.33 45.95 38.1 46.01 38.01H42V38ZM6 18H40V38H6V18ZM46.95 30.83C46.92 30.89 46.89 30.95 46.86 31C46.8358 31.0403 46.8051 31.0807 46.7784 31.1158L46.7783 31.1158L46.76 31.14C46.73 31.18 46.7 31.21 46.68 31.22C46.64 31.25 46.61 31.27 46.57 31.29C46.54 31.31 46.5 31.32 46.46 31.32C46.44 31.32 46.4 31.31 46.37 31.3C46.35 31.295 46.3326 31.29 46.3151 31.285L46.315 31.285C46.2975 31.28 46.28 31.275 46.26 31.27C46.22 31.26 46.18 31.25 46.15 31.23C46.11 31.22 46.08 31.22 46.05 31.22C46.02 31.22 45.98 31.22 45.94 31.24C45.9 31.25 45.86 31.26 45.82 31.28C45.78 31.29 45.74 31.3 45.71 31.32C45.68 31.33 45.65 31.34 45.63 31.34C45.6 31.34 45.57 31.33 45.54 31.32C45.51 31.31 45.48 31.29 45.45 31.27C45.4306 31.2571 45.4113 31.2358 45.3892 31.2116C45.3771 31.1983 45.3642 31.1842 45.35 31.17C45.3267 31.1467 45.3068 31.1201 45.2844 31.09C45.2683 31.0684 45.2509 31.0451 45.23 31.02C45.2024 30.9786 45.1795 30.9371 45.1549 30.8924C45.1438 30.8724 45.1324 30.8517 45.12 30.83C45.09 30.76 45.06 30.69 45.04 30.61C45.02 30.54 45 30.46 44.99 30.39L44.9866 30.3634L44.9866 30.3634C44.9779 30.2942 44.97 30.2321 44.97 30.17C44.97 30.06 44.99 29.96 45.02 29.87C45.05 29.78 45.1 29.7 45.15 29.63C45.21 29.56 45.27 29.51 45.35 29.47C45.43 29.43 45.51 29.41 45.6 29.41C45.67 29.41 45.74 29.43 45.83 29.47C45.92 29.51 45.98 29.53 46.01 29.53C46.0162 29.53 46.0262 29.5262 46.04 29.5209C46.0485 29.5176 46.0585 29.5138 46.07 29.51C46.0824 29.5059 46.0982 29.5 46.1168 29.4932L46.1169 29.4931L46.1169 29.4931C46.1432 29.4834 46.1749 29.4717 46.21 29.46C46.27 29.44 46.31 29.43 46.35 29.42C46.39 29.41 46.42 29.41 46.46 29.41C46.56 29.41 46.65 29.43 46.74 29.48C46.83 29.53 46.9 29.59 46.95 29.67C46.86 29.73 46.79 29.8 46.74 29.88C46.7 29.96 46.68 30.05 46.68 30.16C46.68 30.27 46.71 30.37 46.77 30.47C46.83 30.56 46.91 30.63 47.02 30.68C47 30.7 46.97 30.77 46.95 30.83ZM46.04 29.12C46.01 29.19 46 29.25 46 29.31C46 29.32 46 29.34 45.99 29.37C45.99 29.38 46.01 29.38 46.03 29.38C46.09 29.38 46.14 29.36 46.2 29.33C46.26 29.3 46.31 29.26 46.35 29.21C46.4 29.16 46.43 29.1 46.46 29.04C46.49 28.97 46.5 28.9 46.5 28.84V28.81V28.78C46.44 28.78 46.37 28.8 46.31 28.83C46.25 28.86 46.19 28.9 46.15 28.95C46.1 29 46.07 29.06 46.04 29.12Z" fill="url(#paint0_linear)"/>
<defs>
<linearGradient id="paint0_linear" x1="29.3025" y1="72.7276" x2="78.8627" y2="-5.60453" gradientUnits="userSpaceOnUse">
<stop stop-color="#DB5BFF"/>
<stop offset="1" stop-color="#499BFF"/>
</linearGradient>
</defs>
</svg>
