<svg width="14" height="14" viewBox="0 0 14 14" fill="none" xmlns="http://www.w3.org/2000/svg">
<path d="M13.9373 11.1616L13.8674 10.9489C13.7033 10.4597 13.1625 9.94925 12.6643 9.81249L10.8249 9.3096C10.3267 9.1744 9.61578 9.35671 9.24977 9.72284L8.58444 10.3883C6.16623 9.73349 4.26905 7.83595 3.61586 5.4173L4.2812 4.75184C4.64575 4.38722 4.82803 3.67621 4.69285 3.17639L4.19152 1.33656C4.05634 0.838243 3.5429 0.297389 3.05382 0.133309L2.84418 0.0633992C2.35354 -0.10068 1.6533 0.0649062 1.28875 0.431083L0.292302 1.42771C0.114595 1.60395 0.000659528 2.10985 0.000659528 2.1114C-0.0327822 5.27451 1.20675 8.32061 3.44268 10.5585C5.67253 12.7887 8.70746 14.027 11.8593 13.9996C11.876 13.9996 12.397 13.8887 12.5747 13.7109L13.5712 12.7142C13.9357 12.3511 14.0997 11.6508 13.9373 11.1616Z" fill="#6344B6"/>
</svg>
