<svg width="24" height="6" viewBox="0 0 24 6" fill="none" xmlns="http://www.w3.org/2000/svg">
<path fill-rule="evenodd" clip-rule="evenodd" d="M5.08167 5.09699C6.24416 3.93451 6.24416 2.04973 5.08167 0.887246C3.91919 -0.275241 2.03441 -0.275241 0.871926 0.887246C-0.290561 2.04973 -0.290561 3.93451 0.871926 5.09699C2.03441 6.25948 3.91919 6.25948 5.08167 5.09699ZM14.0352 0.887246C15.1976 2.04973 15.1976 3.93451 14.0352 5.09699C12.8727 6.25948 10.9879 6.25948 9.8254 5.09699C8.66292 3.93451 8.66292 2.04973 9.8254 0.887246C10.9879 -0.275241 12.8727 -0.275241 14.0352 0.887246ZM22.9886 0.887246C24.1511 2.04973 24.1511 3.93451 22.9886 5.09699C21.8261 6.25948 19.9414 6.25948 18.7789 5.09699C17.6164 3.93451 17.6164 2.04973 18.7789 0.887246C19.9414 -0.275241 21.8261 -0.275241 22.9886 0.887246Z" fill="white"/>
</svg>
