<svg width="24" height="20" viewBox="0 0 24 20" fill="none" xmlns="http://www.w3.org/2000/svg">
<path opacity="0.5" d="M22.6509 8.11779L22.6884 8.12598H6.62869L11.6773 3.06628C11.9245 2.81925 12.0601 2.48462 12.0601 2.1334C12.0601 1.78218 11.9245 1.44989 11.6773 1.20228L10.8917 0.416325C10.6447 0.1693 10.3155 0.0327148 9.96449 0.0327148C9.61327 0.0327148 9.28391 0.168325 9.03688 0.415349L0.382639 9.06881C0.134639 9.31681 -0.000970382 9.64715 5.22758e-06 9.99857C-0.000970382 10.3519 0.134639 10.6825 0.382639 10.9301L9.03688 19.5843C9.28391 19.8312 9.61308 19.967 9.96449 19.967C10.3155 19.967 10.6447 19.831 10.8917 19.5843L11.6773 18.7984C11.9245 18.5517 12.0601 18.2224 12.0601 17.8712C12.0601 17.5201 11.9245 17.2081 11.6773 16.9613L6.57171 11.8733H22.6689C23.3922 11.8733 24 11.2499 24 10.527V9.41535C24 8.69242 23.3742 8.11779 22.6509 8.11779Z" fill="white"/>
</svg>
