<svg width="16" height="16" viewBox="0 0 16 16" fill="none" xmlns="http://www.w3.org/2000/svg">
<path fill-rule="evenodd" clip-rule="evenodd" d="M15.317 0.665874C15.4974 0.665874 15.6536 0.731915 15.7853 0.86356C15.9174 0.995423 15.9828 1.15145 15.9828 1.33182V5.99358C15.9828 6.17396 15.917 6.33002 15.7853 6.46181C15.6535 6.59364 15.4974 6.6595 15.317 6.6595H10.6553C10.4749 6.6595 10.3188 6.59364 10.1868 6.46181C10.0553 6.33002 9.98925 6.17392 9.98925 5.99358C9.98925 5.81321 10.0554 5.65704 10.1868 5.52521L11.623 4.08933C10.5963 3.13895 9.3858 2.66372 7.99133 2.66372C7.06183 2.66372 6.19473 2.88925 5.38992 3.34013C4.58518 3.79105 3.94005 4.41195 3.45451 5.20277C3.37811 5.32074 3.19435 5.72654 2.90303 6.42019C2.84749 6.57964 2.74351 6.65946 2.59083 6.65946H0.520164C0.429995 6.65946 0.352 6.62655 0.286068 6.56062C0.220137 6.49479 0.187226 6.41669 0.187226 6.32652V6.25374C0.638141 4.39449 1.5746 2.88758 2.99677 1.73263C4.41892 0.577528 6.08372 0.000106812 7.99147 0.000106812C9.00432 0.000106812 9.98965 0.192544 10.9468 0.577492C11.904 0.962403 12.7539 1.50535 13.4962 2.20607L14.8488 0.86356C14.9808 0.731915 15.1367 0.665874 15.317 0.665874ZM13.3918 9.32348H15.3896C15.4799 9.32348 15.5581 9.35653 15.624 9.4221C15.6899 9.48825 15.723 9.56603 15.723 9.65634C15.723 9.6909 15.7197 9.71521 15.7127 9.72905C15.2686 11.5881 14.339 13.0953 12.9238 14.2502C11.5087 15.4052 9.85082 15.9827 7.94996 15.9827C6.93722 15.9827 5.95736 15.7921 5.01044 15.4104C4.06353 15.0289 3.21888 14.4842 2.47657 13.7768L1.13429 15.1192C1.00242 15.2508 0.846396 15.3171 0.666059 15.3171C0.485686 15.3171 0.329585 15.2508 0.197686 15.1192C0.0658588 14.9875 0 14.8312 0 14.651V9.98925C0 9.80891 0.0658588 9.65263 0.197649 9.52098C0.32944 9.38905 0.48554 9.32304 0.666023 9.32304H5.32778C5.50815 9.32304 5.66418 9.38905 5.79601 9.52098C5.92776 9.65259 5.99369 9.80887 5.99369 9.98921C5.99369 10.1695 5.92776 10.3258 5.79601 10.4574L4.37041 11.8829C4.86287 12.3408 5.42138 12.6947 6.0457 12.9446C6.66996 13.1943 7.31863 13.319 7.99147 13.319C8.921 13.319 9.7881 13.0938 10.5929 12.6427C11.3975 12.1919 12.0426 11.5707 12.5283 10.7801C12.6045 10.6621 12.7885 10.2565 13.0797 9.56279C13.1351 9.40319 13.2391 9.32348 13.3918 9.32348Z" fill="#2C0952"/>
</svg>
