<svg width="24" height="24" viewBox="0 0 24 24" fill="none" xmlns="http://www.w3.org/2000/svg">
<path fill-rule="evenodd" clip-rule="evenodd" d="M0.749582 23.2542C-0.936977 21.3363 0.749582 19.6582 0.749582 19.6582L6.0502 13.9046C5.32738 12.586 4.96598 11.1476 4.96598 9.46948C4.96598 4.19534 9.18238 0 14.483 0C19.7836 0 24 4.31521 24 9.46948C24 14.7436 19.7836 18.939 14.483 18.939C12.676 18.939 10.0257 17.8602 10.0257 17.8602L4.24317 23.2542C4.24317 23.2542 2.31567 24.9323 0.749582 23.2542ZM14.5263 2.52632C10.626 2.52632 7.57895 5.69529 7.57895 9.47368C7.57895 13.2521 10.7479 16.4211 14.5263 16.4211C18.4266 16.4211 21.4737 13.2521 21.4737 9.47368C21.4737 5.57341 18.3047 2.52632 14.5263 2.52632Z" fill="#FF548C"/>
</svg>
