<svg width="54" height="42" viewBox="0 0 54 42" fill="none" xmlns="http://www.w3.org/2000/svg">
<path fill-rule="evenodd" clip-rule="evenodd" d="M50.9223 32.4249H52.426C52.9068 32.4249 53.3161 32.7772 53.3161 33.2579V36.6595C53.3161 39.579 50.9214 42 48.0019 42H5.31418C2.39463 42 0 39.579 0 36.6595V33.2579C0 32.7772 0.409306 32.4249 0.890018 32.4249H2.39378V5.34053C2.39378 2.42098 4.73189 0 7.65101 0H45.6651C48.5842 0 50.9223 2.42098 50.9223 5.34053V32.4249ZM7.65101 1.74093C5.69161 1.74093 4.13472 3.38113 4.13472 5.34053V32.4249H6.74611V5.59513C6.74611 5.11399 7.11207 4.67876 7.59278 4.67876H45.7233C46.204 4.67876 46.57 5.11399 46.57 5.59513V32.4249H49.1813V5.34053C49.1813 3.38113 47.6245 1.74093 45.6651 1.74093H7.65101ZM41.0186 29.1797C41.0084 27.9926 40.0415 27.0363 38.8543 27.0389L38.3434 27.0376C38.2363 27.0397 38.1297 27.0499 38.0242 27.0678C37.9554 26.0396 37.1002 25.2418 36.0699 25.2435H35.1085C34.9143 25.2435 34.7213 25.272 34.5356 25.329C34.1701 24.7989 33.5674 24.4819 32.9234 24.4819H31.9531C31.8808 24.484 31.809 24.4904 31.7376 24.5006C31.7393 23.9051 31.741 23.285 31.7423 22.7409H38.9848C39.4655 22.7409 39.8238 22.324 39.8238 21.8433V9.26741C39.8315 9.03789 39.7473 8.81475 39.5896 8.64771C39.432 8.48067 39.2143 8.38376 38.9848 8.37824H14.2518C13.7676 8.38716 13.3809 8.78329 13.3834 9.26741V21.8433C13.3804 22.3291 13.7664 22.7278 14.2518 22.7409H26.9386C26.9373 24.3731 26.9377 26.298 26.9386 28.1282C25.7574 27.0869 23.9931 27.0622 22.783 28.0696L22.3367 28.4087C21.9942 28.6774 21.8964 29.1551 22.1064 29.5368L25.0395 34.8187H24.3187C23.3241 34.8114 22.3775 34.3911 21.7056 33.6579L20.8079 32.6943C20.6417 32.5188 20.4096 32.421 20.1678 32.4249H8.48705V6.41969H44.829V32.4249H41.0216V32.2277C41.0237 31.245 41.0237 31.1859 41.0186 29.1797ZM29.5831 17.9534C30.7953 17.9534 31.7465 18.8672 31.7478 20.0509C31.7478 20.1588 31.7474 20.4567 31.7461 21H38.0829V10.1192H15.1244V21H26.9398L26.9408 20.4444L26.9415 20.0199C26.9407 19.4775 27.1481 18.956 27.5213 18.5629C27.1489 18.7354 26.7418 18.8192 26.3312 18.8081C24.9277 18.8081 24.155 18.0681 24.155 16.725V12.8011C24.155 12.4985 24.433 12.3026 24.8623 12.3026C25.2856 12.3026 25.5695 12.5028 25.5695 12.8011V16.7246C25.5695 17.2635 25.819 17.5254 26.3312 17.5254C26.7792 17.5254 27.0257 17.326 27.0809 16.9163C27.0818 16.9098 27.0825 16.9029 27.0831 16.8961C27.0837 16.8895 27.0844 16.8828 27.0852 16.8763L27.0865 16.8636C27.0879 16.851 27.0892 16.8383 27.0899 16.8249C27.092 16.7926 27.0928 16.7595 27.0928 16.725V12.8011C27.0928 12.4985 27.3708 12.3026 27.8001 12.3026C28.2234 12.3026 28.5073 12.5028 28.5073 12.8011V16.725C28.5073 17.3328 28.348 17.8424 28.0445 18.191C28.373 18.0243 28.7381 17.9427 29.1062 17.9534H29.5831ZM25.4812 16.9145L25.4811 16.9131C25.4821 16.9205 25.4826 16.9284 25.4831 16.9364L25.4823 16.9289L25.4818 16.9224L25.4812 16.9145V16.9145ZM28.1155 31.2127C28.4555 31.0852 28.6803 30.76 28.6799 30.3966C28.6774 26.9258 28.6769 22.4018 28.6829 20.0373C28.6829 19.7827 28.9031 19.6939 29.1066 19.6939H29.5831C29.7871 19.6939 30.0064 19.7831 30.0073 20.0386C30.0073 20.1971 30.006 20.898 30.0039 21.8441C30.0039 21.8457 30.0038 21.8463 30.0036 21.8466C30.0035 21.847 30.0032 21.847 30.0031 21.8478L30.003 21.8496L30.0031 21.8523L30.0033 21.8539L30.0035 21.8577C29.9984 24.0596 30.0043 27.4922 30.0054 28.1369V28.1376V28.1385V28.1386L30.0056 28.2426C30.0056 28.263 30.0122 28.2827 30.0188 28.3023C30.0252 28.3214 30.0315 28.3403 30.0315 28.3594V28.7658C30.0315 29.2465 30.4213 29.6362 30.902 29.6362C31.3827 29.6362 31.7724 29.2465 31.7724 28.7658V26.4264C31.7724 26.3065 31.8337 26.2224 31.9535 26.2224H32.9239C33.0437 26.2224 33.187 26.3065 33.187 26.4264V29.5274C33.187 30.0081 33.5767 30.3979 34.0574 30.3979C34.5381 30.3979 34.9279 30.0081 34.9279 29.5274V27.188C34.9279 27.0682 34.9891 26.984 35.109 26.984H36.0699C36.1898 26.984 36.2332 27.0682 36.2332 27.188V29.5274C36.2332 30.0081 36.6229 30.3979 37.1036 30.3979C37.5843 30.3979 37.9741 30.0081 37.9741 29.5274V29.1755C38.0339 29.0995 38.0481 29.0296 38.0601 28.9707C38.0699 28.9225 38.0782 28.8816 38.1088 28.8508C38.1705 28.7989 38.2495 28.7726 38.3298 28.7781L38.8475 28.7794C38.958 28.776 39.0652 28.8168 39.1455 28.8924C39.2254 28.9685 39.2717 29.0735 39.2743 29.184L39.2774 30.3457C39.28 31.2613 39.2805 31.4655 39.2789 32.2051C39.2781 32.7283 39.2772 33.5465 39.276 35.0448C39.2738 36.886 37.7811 38.4093 35.9471 38.4093H30.9713C29.7582 38.3953 28.6472 37.7289 28.0632 36.6658L23.9905 29.34C24.5911 28.909 25.4203 29.0008 25.9117 29.5525L27.1536 30.9734C27.3925 31.2458 27.7763 31.3415 28.1155 31.2127ZM48.0019 40.2591C49.9617 40.2591 51.5751 38.6193 51.5751 36.6595V34.1658H41.0186L41.0184 34.2781C41.0179 34.4939 41.0173 34.7875 41.0173 35.0664C41.0144 37.8674 38.7481 40.1396 35.9471 40.1503H30.9713C29.1292 40.1422 27.4354 39.1395 26.542 37.5287L26.009 36.5596H24.3187C22.8404 36.5587 21.4297 35.9416 20.4258 34.8565L19.7865 34.1658H1.74093V36.6595C1.74093 38.6193 3.35436 40.2591 5.31418 40.2591H48.0019ZM22.7456 13.9921C22.7456 14.5501 22.5616 14.976 22.199 15.2574C22.4982 15.4312 22.8497 15.7734 22.8497 16.6409V16.8173C22.8497 18.1111 22.2186 18.8238 21.0718 18.8243H19.2943C18.9407 18.8243 18.6062 18.5497 18.6062 18.2598V12.8101C18.6062 12.7905 18.6088 12.7714 18.6134 12.7522C18.6483 12.5278 18.885 12.4041 19.2943 12.4041H20.9124C22.1459 12.4041 22.7456 12.9235 22.7456 13.9921ZM21.3451 14.1366C21.3451 13.8348 21.2049 13.6516 20.9477 13.61H20.9473C20.9082 13.604 20.8682 13.601 20.8287 13.601H20.0207V14.6891H20.8376C21.1743 14.6891 21.3451 14.5034 21.3451 14.1366ZM20.8453 17.5181H20.0207V15.886H20.8453C21.2916 15.886 21.4352 16.0573 21.4352 16.5907V16.725C21.4352 17.2882 21.2644 17.5181 20.8453 17.5181ZM21.0837 14.7708C21.053 14.7807 21.0222 14.7892 20.9905 14.7951C21.0222 14.7887 21.053 14.7807 21.0837 14.7708ZM20.9633 14.7969L20.9412 14.8002C20.9065 14.8049 20.8718 14.8074 20.8368 14.8078C20.8715 14.8078 20.9066 14.8051 20.9412 14.8002C20.9487 14.7992 20.9562 14.7981 20.9637 14.7969H20.9633ZM20.9477 17.6316L20.9492 17.6314H20.9497L20.9477 17.6316ZM20.8466 17.6364C20.8803 17.6364 20.914 17.6349 20.9477 17.6316C20.9156 17.634 20.8825 17.6364 20.8466 17.6364ZM32.7513 16.1504V18.2509C32.7513 18.5493 32.4606 18.758 32.044 18.758C31.6925 18.758 31.3368 18.5841 31.3368 18.2509V16.1381C31.3368 16.1228 31.3398 16.107 31.3453 16.0926L29.635 13.0948C29.6107 13.0391 29.5971 12.9796 29.595 12.9189C29.595 12.5223 30.1178 12.3026 30.4791 12.3026C30.6895 12.2902 30.8837 12.4148 30.9606 12.6107L32.0899 14.7567L33.2278 12.6073C33.3047 12.4165 33.4934 12.2945 33.6991 12.3026C34.0583 12.3026 34.5777 12.5219 34.5777 12.9184C34.5772 12.9864 34.5581 13.0532 34.5233 13.1114L32.7861 16.1104C32.7781 16.1219 32.7691 16.1325 32.7589 16.1423C32.7564 16.1453 32.7538 16.1478 32.7513 16.1504Z" fill="white"/>
</svg>
