<svg width="40" height="46" viewBox="0 0 40 46" fill="none" xmlns="http://www.w3.org/2000/svg">
<path fill-rule="evenodd" clip-rule="evenodd" d="M29.4377 27.4574C34.2956 27.641 39.963 31.5155 39.963 36.4559V45.1016C39.963 45.5978 39.5579 46 39.0581 46H0.950388C0.450529 46 0.0454102 45.5978 0.0454102 45.1016V36.4559C0.0454102 31.5053 5.72344 27.6406 10.5707 27.4574L13.0679 25.2299C10.0885 23.0474 8.2807 19.5403 8.2807 15.8125V9.88281C8.2807 4.41779 12.7045 0 18.2036 0H21.8235C27.3301 0 31.8101 4.43358 31.8101 9.88281V15.8125C31.8101 19.5466 29.9779 23.0604 26.9593 25.2468L29.4377 27.4574ZM22.0038 40.0703H17.9997L17.0233 44.2031H22.9527L22.0038 40.0703ZM22.0816 38.2734H17.9424L17.2481 36.126L20.0048 34.7576L22.8204 36.1558L22.0816 38.2734ZM16.8596 27.0637L20.0044 32.0581L23.1443 27.071C22.1283 27.3483 21.0748 27.4918 20.0136 27.4918C18.9421 27.4918 17.8809 27.3455 16.8596 27.0637ZM21.2997 33.3917L25.6446 26.4895L27.988 28.5798L25.0062 35.2321L21.2997 33.3917ZM21.8235 1.79688H18.2036C13.73 1.79688 10.0907 5.42397 10.0907 9.88281V10.5482L11.7034 8.2021C11.8561 7.9796 12.1014 7.83711 12.3715 7.8136C12.6412 7.79008 12.9081 7.88765 13.0976 8.08032C14.9387 9.94809 17.0689 10.7812 20.0048 10.7812C22.941 10.7812 25.0709 9.94809 26.9105 8.08032C27.0993 7.8887 27.3637 7.79079 27.6331 7.81325C27.9021 7.83571 28.1471 7.97609 28.3009 8.19614L30.0002 10.6254V9.88281C30.0002 5.42397 26.3322 1.79688 21.8235 1.79688ZM10.0907 15.8125V13.7359L12.6041 10.0793C14.6177 11.7797 16.9971 12.5781 20.0048 12.5781C23.0156 12.5781 25.3968 11.778 27.4107 10.0741L30.0002 13.7759V15.8125C30.0002 21.1929 25.5704 25.6953 20.0136 25.6953C14.4748 25.6953 10.0907 21.207 10.0907 15.8125ZM18.7095 33.3917L14.3638 26.4899L12.0205 28.5798L15.0023 35.2321L18.7095 33.3917ZM1.85536 36.4559C1.85536 32.7547 6.38732 29.5589 10.3477 29.2684L13.7335 36.8212C13.8339 37.0451 14.0224 37.2188 14.255 37.3017C14.4876 37.3845 14.7439 37.369 14.9652 37.2595L15.61 36.9391L16.3442 39.2091L15.1642 44.2031H1.85536V36.4559ZM24.8089 44.2031H38.1531V36.4559C38.1531 32.7547 33.6211 29.5593 29.6608 29.2684L26.2749 36.8212C26.1745 37.0451 25.9861 37.2188 25.7535 37.3017C25.523 37.3838 25.266 37.3701 25.0433 37.2595L24.4529 36.9661L23.6657 39.2228L24.8089 44.2031ZM31.7695 40.0703H28.1496C27.6497 40.0703 27.2446 40.4725 27.2446 40.9688C27.2446 41.465 27.6497 41.8672 28.1496 41.8672H31.7695C32.2693 41.8672 32.6744 41.465 32.6744 40.9688C32.6744 40.4725 32.2693 40.0703 31.7695 40.0703ZM36.2445 40.9688C36.2445 40.4729 35.839 40.0703 35.3395 40.0703C34.84 40.0703 34.4346 40.4729 34.4346 40.9688C34.4346 41.4646 34.84 41.8672 35.3395 41.8672C35.839 41.8672 36.2445 41.4646 36.2445 40.9688Z" fill="white"/>
</svg>
