<svg width="44" height="48" viewBox="0 0 44 48" fill="none" xmlns="http://www.w3.org/2000/svg">
<path fill-rule="evenodd" clip-rule="evenodd" d="M43.9798 11.2673C43.9798 11.0857 43.9395 10.9042 43.8588 10.7327C43.6974 10.3897 43.3847 10.1577 43.0417 10.0871L22.4943 0.121045C22.1614 -0.0403485 21.768 -0.0403485 21.4351 0.121045L0.685924 10.1779C0.282439 10.3696 0.0201742 10.773 0 11.227V11.237V11.2774V36.5154C0 36.9794 0.262265 37.403 0.685924 37.6048L21.4351 47.6616C21.4394 47.6616 21.4419 47.6616 21.4441 47.6624C21.4461 47.6631 21.4478 47.6645 21.4506 47.667L21.4553 47.6717C21.4856 47.6818 21.5158 47.6919 21.5461 47.7121C21.5502 47.7121 21.5544 47.7138 21.5593 47.7158L21.5593 47.7158C21.5663 47.7187 21.5746 47.7221 21.5864 47.7221L21.6772 47.7524C21.6786 47.7524 21.68 47.7526 21.6814 47.7529C21.6829 47.7533 21.6844 47.7538 21.6859 47.7544C21.688 47.7553 21.6902 47.7564 21.6923 47.7575L21.6983 47.7603C21.7013 47.7616 21.7044 47.7625 21.7075 47.7625C21.7158 47.7653 21.7248 47.7673 21.7342 47.7689C21.742 47.7703 21.7499 47.7714 21.7579 47.7726C21.7756 47.7751 21.7932 47.7776 21.8083 47.7827H21.8386C21.8588 47.7827 21.8815 47.7852 21.9042 47.7877C21.9269 47.7902 21.9496 47.7928 21.9697 47.7928C22.0101 47.7928 22.0605 47.7928 22.1009 47.7827H22.1311C22.1614 47.7827 22.2017 47.7726 22.232 47.7625C22.237 47.7625 22.2421 47.76 22.2471 47.7575C22.2522 47.7549 22.2572 47.7524 22.2623 47.7524L22.353 47.7221C22.3572 47.7221 22.3614 47.7204 22.3663 47.7184C22.3732 47.7155 22.3816 47.7121 22.3934 47.7121C22.4237 47.702 22.4539 47.6919 22.4842 47.6717C22.4885 47.6717 22.4909 47.6717 22.4931 47.6709C22.4961 47.6699 22.4986 47.6674 22.5044 47.6616L43.3141 37.5745C43.7276 37.3728 44 36.9491 44 36.4851V11.2976C43.9798 11.2875 43.9798 11.2774 43.9798 11.2673ZM21.9597 2.55204L39.9551 11.2774L33.3278 14.4952L15.3324 5.76983L21.9597 2.55204ZM3.96424 11.2774L21.9597 20.0028L30.5539 15.8368L12.5585 7.11142L3.96424 11.2774ZM2.42091 13.2242L20.7492 22.111V44.6355L2.42091 35.7487V13.2242ZM23.1701 22.111V44.6355L41.5589 35.7084V13.1839L34.1953 16.7547V23.8258C34.1953 24.4915 33.6506 25.0362 32.9849 25.0362C32.3191 25.0362 31.7744 24.4915 31.7744 23.8258V17.9349L23.1701 22.111Z" fill="white"/>
</svg>
