<svg width="33" height="28" viewBox="0 0 33 28" fill="none" xmlns="http://www.w3.org/2000/svg">
<path fill-rule="evenodd" clip-rule="evenodd" d="M7.97411 16.1916L0.567738 13.4259C-0.184513 13.1439 -0.191048 12.0813 0.55906 11.7919L30.955 0.0600803C31.5993 -0.189261 32.2643 0.375563 32.1239 1.05262L26.6692 27.3043C26.5406 27.9242 25.8143 28.2052 25.3016 27.8324L17.8554 22.4235C17.4031 22.0951 16.7867 22.1127 16.354 22.4654L12.2255 25.8327C11.7463 26.2247 11.0243 26.0064 10.8408 25.4156L7.97411 16.1916ZM24.8536 5.79976L10.3788 14.7193C9.82404 15.0619 9.56282 15.7323 9.74207 16.3598L11.3071 21.8617C11.4182 22.2516 11.9838 22.2116 12.0377 21.8087L12.4446 18.7916C12.5214 18.2235 12.7922 17.7002 13.2121 17.3091L25.158 6.19918C25.3814 5.99186 25.1138 5.63993 24.8536 5.79976Z" fill="#5EA0DA"/>
</svg>
