<svg width="29" height="30" viewBox="0 0 29 30" fill="none" xmlns="http://www.w3.org/2000/svg">
<path fill-rule="evenodd" clip-rule="evenodd" d="M28.321 7.22997L28.3296 7.26443C29.191 11.1981 29.191 15.1873 28.3296 19.121L28.321 19.1555C27.6243 21.9722 24.4831 24.9947 21.5984 25.6235L21.5658 25.6302C19.2334 26.0753 16.8837 26.2973 14.535 26.2973C13.8437 26.2973 13.1524 26.2758 12.4615 26.2371L9.27578 29.5486C8.48713 30.3698 7.1003 29.8108 7.1003 28.6728V25.5286C4.32329 24.7355 1.41601 21.8519 0.748057 19.1554L0.7404 19.1209C-0.120986 15.1873 -0.120986 11.1981 0.7404 7.26443L0.748057 7.22997C1.44578 4.41324 4.58697 1.39073 7.4707 0.76192L7.5042 0.755221C12.1691 -0.134878 16.9 -0.134878 21.5658 0.755221L21.5984 0.76192C24.4831 1.39073 27.6243 4.41324 28.321 7.22997ZM21.0634 23.0948C22.9584 22.6727 25.3435 20.3881 25.8087 18.5505C26.5848 14.9949 26.5848 11.3905 25.8087 7.83476C25.3435 5.99714 22.9594 3.71255 21.0634 3.29047C16.7316 2.46641 12.3385 2.46641 8.00571 3.29047C6.11066 3.71255 3.72654 5.99714 3.26043 7.83476C2.48519 11.3904 2.48519 14.9948 3.26043 18.5504C3.72654 20.388 6.11066 22.6726 8.00571 23.0947L8.00715 23.095C8.09166 23.1115 8.15311 23.1847 8.15311 23.2707V28.4794C8.15311 28.7397 8.47086 28.868 8.65175 28.6794L11.1258 26.1403L13.4519 23.7525C13.4865 23.7169 13.5343 23.6977 13.584 23.699C16.082 23.7682 18.5825 23.5665 21.0634 23.0948ZM18.3801 20.8758L18.3801 20.8758L18.38 20.8758C18.189 20.8231 18.0052 20.7725 17.8305 20.6999C15.1587 19.5914 12.6997 18.1613 10.7519 15.9691C9.64426 14.7225 8.77732 13.3151 8.04448 11.8257C7.73287 11.1923 7.4652 10.5367 7.198 9.88231L7.10556 9.65611C6.83337 8.99113 7.23429 8.30412 7.65647 7.80308C8.05261 7.33286 8.56236 6.97299 9.11441 6.70778C9.5453 6.50076 9.97034 6.62011 10.285 6.98534C10.9653 7.77494 11.5902 8.60494 12.0962 9.52021C12.4074 10.0832 12.322 10.7713 11.7581 11.1544C11.648 11.2293 11.5457 11.3146 11.4435 11.3998C11.4185 11.4206 11.3935 11.4414 11.3685 11.4621C11.2565 11.5542 11.1511 11.6474 11.0744 11.7722C10.934 12.0005 10.9273 12.2698 11.0177 12.5181C11.7131 14.4292 12.8853 15.9153 14.8088 16.7157L14.8911 16.7503C15.1721 16.8689 15.4574 16.9892 15.7804 16.9516C16.1647 16.9067 16.3808 16.6181 16.5982 16.3278C16.7168 16.1694 16.8358 16.0106 16.9827 15.8904C17.3895 15.5579 17.9093 15.5535 18.3474 15.8307C18.7857 16.1081 19.2105 16.4058 19.6328 16.7068L19.7182 16.7676C20.1039 17.042 20.4863 17.3142 20.8424 17.6278C21.21 17.9516 21.3366 18.3763 21.1296 18.8157C20.7506 19.6204 20.1991 20.2899 19.4036 20.7173C19.2499 20.7997 19.0759 20.844 18.9001 20.8887L18.9001 20.8887L18.9001 20.8887L18.9001 20.8888C18.8189 20.9094 18.7374 20.9302 18.6573 20.9548C18.5634 20.9263 18.471 20.9008 18.3801 20.8758L18.3801 20.8758L18.3801 20.8758ZM21.5227 11.66C20.9076 8.20487 18.0371 5.88554 14.5423 5.78763C14.5227 5.78755 14.503 5.78723 14.4834 5.78691C14.4353 5.78614 14.3873 5.78536 14.3395 5.78801C14.0917 5.80132 13.872 6.00853 13.9185 6.26876C13.9707 6.56197 14.2655 6.59169 14.5084 6.61619L14.5505 6.62049C14.6734 6.63338 14.7966 6.64403 14.9198 6.65468L14.9199 6.65468L14.9199 6.65468C15.1929 6.67827 15.4659 6.70186 15.7345 6.7498C18.3259 7.21198 20.4018 9.36583 20.7636 11.9692C20.8183 12.3626 20.8452 12.7599 20.8721 13.157L20.8722 13.1572L20.8722 13.1576C20.879 13.2582 20.8858 13.3587 20.8931 13.4592C20.9113 13.7105 21.0373 13.9449 21.3175 13.9415C21.5887 13.9383 21.731 13.6995 21.7114 13.4481L21.6945 13.2272V13.2272C21.6546 12.7025 21.6146 12.1762 21.5227 11.66ZM20.3541 12.9013C20.3525 12.9129 20.3511 12.9284 20.3495 12.9467C20.3446 13.0008 20.3374 13.0798 20.3165 13.1553C20.215 13.5222 19.6328 13.5681 19.4987 13.1979C19.459 13.088 19.453 12.963 19.4528 12.8447C19.4515 12.0707 19.2754 11.2976 18.8668 10.6242C18.4469 9.9321 17.8053 9.35029 17.0527 8.99823C16.5977 8.78538 16.1056 8.65308 15.6068 8.57423C15.4711 8.5528 15.3345 8.5366 15.1979 8.5204C15.115 8.51058 15.0322 8.50076 14.9495 8.48977C14.6841 8.45454 14.5423 8.29292 14.5549 8.04305C14.5666 7.80888 14.7458 7.64046 15.0129 7.65487C15.8907 7.7025 16.7386 7.88373 17.519 8.27851C19.106 9.08139 20.0125 10.3487 20.2771 12.0409C20.2814 12.0684 20.2866 12.0957 20.2918 12.1231C20.3012 12.1721 20.3105 12.2211 20.3144 12.2705C20.325 12.404 20.3327 12.5377 20.3417 12.6923L20.3417 12.6924C20.3456 12.7578 20.3496 12.8269 20.3541 12.9013ZM17.1955 12.0726C17.2256 12.3313 17.3817 12.4875 17.6733 12.4824C17.8061 12.4737 17.9423 12.3846 17.985 12.2067C18.0091 12.1061 17.9991 11.9953 17.9896 11.8897L17.9887 11.8794C17.8508 10.34 16.8848 9.66405 15.5331 9.56965C15.3169 9.5545 15.1243 9.70395 15.0912 9.89541C15.0547 10.1058 15.1829 10.2874 15.4147 10.3424C15.5148 10.3661 15.6167 10.3751 15.7188 10.3841C15.8346 10.3943 15.9507 10.4045 16.0644 10.4363C16.2328 10.4833 16.3936 10.5562 16.5354 10.6562C16.836 10.868 17.0259 11.1883 17.1136 11.5339C17.1519 11.685 17.1694 11.8414 17.1869 11.9971C17.1897 12.0223 17.1926 12.0474 17.1955 12.0726Z" fill="#7D539F"/>
</svg>
