<svg width="340" height="329" viewBox="0 0 340 329" fill="none" xmlns="http://www.w3.org/2000/svg">
<path d="M216.924 108.389V220.471C216.924 228.125 210.706 234.338 203.046 234.338H92.9147C85.2549 234.338 79.0371 228.125 79.0371 220.471V108.389C79.0371 100.721 85.2549 94.5221 92.9147 94.5221H203.046C210.706 94.5221 216.924 100.721 216.924 108.389Z" fill="url(#paint0_linear)"/>
<path d="M216.924 108.389V220.471C216.924 228.125 210.706 234.338 203.046 234.338H113.731C106.071 234.338 99.8535 228.125 99.8535 220.471V108.389C99.8535 100.721 106.071 94.5221 113.731 94.5221H203.046C210.706 94.5221 216.924 100.721 216.924 108.389Z" fill="url(#paint1_linear)"/>
<path d="M216.923 108.389V220.471C216.923 228.125 210.706 234.338 203.046 234.338H182.229C189.889 234.338 196.107 228.125 196.107 220.471V108.389C196.107 100.721 189.889 94.5221 182.229 94.5221H203.046C210.706 94.5221 216.923 100.721 216.923 108.389Z" fill="url(#paint2_linear)"/>
<path d="M295.993 262.022C265.115 303.467 215.85 328.204 164.2 328.204C73.6621 328.204 0 254.601 0 164.139C0 73.6737 73.6621 0.0704346 164.2 0.0704346C218.834 0.0704346 269.737 27.11 300.351 72.3846C306.027 80.7721 303.821 92.1578 295.427 97.829C293.773 98.9367 291.998 99.7546 290.179 100.256C282.769 102.376 274.526 99.63 269.973 92.9053C246.175 57.7137 206.637 36.7055 164.2 36.7055C93.8822 36.7055 36.6644 93.8776 36.6644 164.139C36.6644 234.4 93.8822 291.569 164.2 291.569C204.916 291.569 242.234 272.823 266.587 240.152C271.471 233.582 279.909 231.237 287.252 233.761C288.986 234.357 290.68 235.232 292.234 236.396C300.351 242.441 302.045 253.908 295.993 262.022Z" fill="url(#paint3_linear)"/>
<path d="M337.989 146.806C334.462 154.403 325.095 158.522 316.644 154.486L279.245 136.696L241.857 118.905C230.768 113.621 229.562 98.3409 239.68 91.3941L273.789 67.9321L307.916 44.4702C308.041 44.3862 308.166 44.305 308.29 44.2346C318.365 37.6886 331.896 44.2617 332.839 56.3406L336.113 97.5934L339.39 138.846C339.626 141.744 339.084 144.447 337.989 146.806Z" fill="#63D7FE"/>
<path fill-rule="evenodd" clip-rule="evenodd" d="M36.6642 164.139C36.6642 234.4 93.882 291.569 164.199 291.569C204.916 291.569 242.234 272.823 266.587 240.152C271.471 233.582 279.909 231.237 287.252 233.761C289.859 239.045 289.485 245.547 285.739 250.596C258.469 287.187 214.95 309.043 169.347 309.043C89.3718 309.043 24.3262 244.036 24.3262 164.139C24.3262 84.2387 89.3718 19.2343 169.347 19.2343C210.36 19.2343 248.996 36.494 276.274 66.243L287.211 58.7239L308.287 44.2367L308.29 44.2345C318.365 37.6886 331.896 44.2616 332.839 56.3406L336.113 97.5933L339.39 138.846C339.626 141.744 339.084 144.447 337.989 146.806C335.392 146.984 332.687 146.527 330.063 145.278L326.621 143.642L326.621 143.639L292.664 127.474L255.263 109.683C244.19 104.415 242.982 89.1353 253.083 82.1858L258.574 78.4109C234.56 52.0237 200.437 36.7055 164.199 36.7055C93.882 36.7055 36.6642 93.8775 36.6642 164.139ZM119.995 142.602V94.8606H175.968V142.602L161.977 133.056L147.983 142.602L133.989 133.056L119.995 142.602Z" fill="url(#paint4_linear)"/>
<defs>
<linearGradient id="paint0_linear" x1="79.0371" y1="94.5221" x2="79.0371" y2="234.338" gradientUnits="userSpaceOnUse">
<stop stop-color="#ABEDFD"/>
<stop offset="1" stop-color="#73D7F9"/>
</linearGradient>
<linearGradient id="paint1_linear" x1="99.8535" y1="94.5221" x2="99.8535" y2="234.338" gradientUnits="userSpaceOnUse">
<stop stop-color="#98E8FF"/>
<stop offset="1" stop-color="#5FCDFF"/>
</linearGradient>
<linearGradient id="paint2_linear" x1="216.923" y1="234.338" x2="216.923" y2="94.5221" gradientUnits="userSpaceOnUse">
<stop stop-color="#5EDCFF"/>
<stop offset="1" stop-color="#30B6FF"/>
</linearGradient>
<linearGradient id="paint3_linear" x1="0" y1="0.0704346" x2="0" y2="328.204" gradientUnits="userSpaceOnUse">
<stop stop-color="#65D9FE"/>
<stop offset="1" stop-color="#35B1FC"/>
</linearGradient>
<linearGradient id="paint4_linear" x1="339.444" y1="309.043" x2="339.444" y2="19.2343" gradientUnits="userSpaceOnUse">
<stop stop-color="#5FC5FA"/>
<stop offset="1" stop-color="#3193F3"/>
</linearGradient>
</defs>
</svg>
